%TF.GenerationSoftware,KiCad,Pcbnew,(5.1.6)-1*%
%TF.CreationDate,2020-11-12T12:18:02-07:00*%
%TF.ProjectId,OPA454_SmallSig_Amp,4f504134-3534-45f5-936d-616c6c536967,rev?*%
%TF.SameCoordinates,Original*%
%TF.FileFunction,Soldermask,Top*%
%TF.FilePolarity,Negative*%
%FSLAX46Y46*%
G04 Gerber Fmt 4.6, Leading zero omitted, Abs format (unit mm)*
G04 Created by KiCad (PCBNEW (5.1.6)-1) date 2020-11-12 12:18:02*
%MOMM*%
%LPD*%
G01*
G04 APERTURE LIST*
%ADD10C,0.010000*%
%ADD11C,5.100000*%
%ADD12O,1.700000X1.700000*%
%ADD13C,1.700000*%
%ADD14C,1.750000*%
%ADD15C,2.500000*%
%ADD16R,2.500000X2.500000*%
%ADD17R,1.700000X1.700000*%
%ADD18C,0.400000*%
%ADD19R,3.050000X5.000000*%
G04 APERTURE END LIST*
D10*
%TO.C,U1*%
G36*
X97439000Y-109766000D02*
G01*
X100149000Y-109766000D01*
X100149000Y-113166000D01*
X97439000Y-113166000D01*
X97439000Y-109766000D01*
G37*
X97439000Y-109766000D02*
X100149000Y-109766000D01*
X100149000Y-113166000D01*
X97439000Y-113166000D01*
X97439000Y-109766000D01*
G36*
X96889000Y-109931000D02*
G01*
X95299000Y-109931000D01*
X95296383Y-109930931D01*
X95293774Y-109930726D01*
X95291178Y-109930384D01*
X95288604Y-109929907D01*
X95286059Y-109929296D01*
X95283549Y-109928553D01*
X95281082Y-109927679D01*
X95278663Y-109926677D01*
X95276300Y-109925550D01*
X95274000Y-109924301D01*
X95271768Y-109922934D01*
X95269611Y-109921451D01*
X95267534Y-109919857D01*
X95265543Y-109918157D01*
X95263645Y-109916355D01*
X95261843Y-109914457D01*
X95260143Y-109912466D01*
X95258549Y-109910389D01*
X95257066Y-109908232D01*
X95255699Y-109906000D01*
X95254450Y-109903700D01*
X95253323Y-109901337D01*
X95252321Y-109898918D01*
X95251447Y-109896451D01*
X95250704Y-109893941D01*
X95250093Y-109891396D01*
X95249616Y-109888822D01*
X95249274Y-109886226D01*
X95249069Y-109883617D01*
X95249000Y-109881000D01*
X95249000Y-109241000D01*
X95249069Y-109238383D01*
X95249274Y-109235774D01*
X95249616Y-109233178D01*
X95250093Y-109230604D01*
X95250704Y-109228059D01*
X95251447Y-109225549D01*
X95252321Y-109223082D01*
X95253323Y-109220663D01*
X95254450Y-109218300D01*
X95255699Y-109216000D01*
X95257066Y-109213768D01*
X95258549Y-109211611D01*
X95260143Y-109209534D01*
X95261843Y-109207543D01*
X95263645Y-109205645D01*
X95265543Y-109203843D01*
X95267534Y-109202143D01*
X95269611Y-109200549D01*
X95271768Y-109199066D01*
X95274000Y-109197699D01*
X95276300Y-109196450D01*
X95278663Y-109195323D01*
X95281082Y-109194321D01*
X95283549Y-109193447D01*
X95286059Y-109192704D01*
X95288604Y-109192093D01*
X95291178Y-109191616D01*
X95293774Y-109191274D01*
X95296383Y-109191069D01*
X95299000Y-109191000D01*
X96889000Y-109191000D01*
X96891617Y-109191069D01*
X96894226Y-109191274D01*
X96896822Y-109191616D01*
X96899396Y-109192093D01*
X96901941Y-109192704D01*
X96904451Y-109193447D01*
X96906918Y-109194321D01*
X96909337Y-109195323D01*
X96911700Y-109196450D01*
X96914000Y-109197699D01*
X96916232Y-109199066D01*
X96918389Y-109200549D01*
X96920466Y-109202143D01*
X96922457Y-109203843D01*
X96924355Y-109205645D01*
X96926157Y-109207543D01*
X96927857Y-109209534D01*
X96929451Y-109211611D01*
X96930934Y-109213768D01*
X96932301Y-109216000D01*
X96933550Y-109218300D01*
X96934677Y-109220663D01*
X96935679Y-109223082D01*
X96936553Y-109225549D01*
X96937296Y-109228059D01*
X96937907Y-109230604D01*
X96938384Y-109233178D01*
X96938726Y-109235774D01*
X96938931Y-109238383D01*
X96939000Y-109241000D01*
X96939000Y-109881000D01*
X96938931Y-109883617D01*
X96938726Y-109886226D01*
X96938384Y-109888822D01*
X96937907Y-109891396D01*
X96937296Y-109893941D01*
X96936553Y-109896451D01*
X96935679Y-109898918D01*
X96934677Y-109901337D01*
X96933550Y-109903700D01*
X96932301Y-109906000D01*
X96930934Y-109908232D01*
X96929451Y-109910389D01*
X96927857Y-109912466D01*
X96926157Y-109914457D01*
X96924355Y-109916355D01*
X96922457Y-109918157D01*
X96920466Y-109919857D01*
X96918389Y-109921451D01*
X96916232Y-109922934D01*
X96914000Y-109924301D01*
X96911700Y-109925550D01*
X96909337Y-109926677D01*
X96906918Y-109927679D01*
X96904451Y-109928553D01*
X96901941Y-109929296D01*
X96899396Y-109929907D01*
X96896822Y-109930384D01*
X96894226Y-109930726D01*
X96891617Y-109930931D01*
X96889000Y-109931000D01*
G37*
X96889000Y-109931000D02*
X95299000Y-109931000D01*
X95296383Y-109930931D01*
X95293774Y-109930726D01*
X95291178Y-109930384D01*
X95288604Y-109929907D01*
X95286059Y-109929296D01*
X95283549Y-109928553D01*
X95281082Y-109927679D01*
X95278663Y-109926677D01*
X95276300Y-109925550D01*
X95274000Y-109924301D01*
X95271768Y-109922934D01*
X95269611Y-109921451D01*
X95267534Y-109919857D01*
X95265543Y-109918157D01*
X95263645Y-109916355D01*
X95261843Y-109914457D01*
X95260143Y-109912466D01*
X95258549Y-109910389D01*
X95257066Y-109908232D01*
X95255699Y-109906000D01*
X95254450Y-109903700D01*
X95253323Y-109901337D01*
X95252321Y-109898918D01*
X95251447Y-109896451D01*
X95250704Y-109893941D01*
X95250093Y-109891396D01*
X95249616Y-109888822D01*
X95249274Y-109886226D01*
X95249069Y-109883617D01*
X95249000Y-109881000D01*
X95249000Y-109241000D01*
X95249069Y-109238383D01*
X95249274Y-109235774D01*
X95249616Y-109233178D01*
X95250093Y-109230604D01*
X95250704Y-109228059D01*
X95251447Y-109225549D01*
X95252321Y-109223082D01*
X95253323Y-109220663D01*
X95254450Y-109218300D01*
X95255699Y-109216000D01*
X95257066Y-109213768D01*
X95258549Y-109211611D01*
X95260143Y-109209534D01*
X95261843Y-109207543D01*
X95263645Y-109205645D01*
X95265543Y-109203843D01*
X95267534Y-109202143D01*
X95269611Y-109200549D01*
X95271768Y-109199066D01*
X95274000Y-109197699D01*
X95276300Y-109196450D01*
X95278663Y-109195323D01*
X95281082Y-109194321D01*
X95283549Y-109193447D01*
X95286059Y-109192704D01*
X95288604Y-109192093D01*
X95291178Y-109191616D01*
X95293774Y-109191274D01*
X95296383Y-109191069D01*
X95299000Y-109191000D01*
X96889000Y-109191000D01*
X96891617Y-109191069D01*
X96894226Y-109191274D01*
X96896822Y-109191616D01*
X96899396Y-109192093D01*
X96901941Y-109192704D01*
X96904451Y-109193447D01*
X96906918Y-109194321D01*
X96909337Y-109195323D01*
X96911700Y-109196450D01*
X96914000Y-109197699D01*
X96916232Y-109199066D01*
X96918389Y-109200549D01*
X96920466Y-109202143D01*
X96922457Y-109203843D01*
X96924355Y-109205645D01*
X96926157Y-109207543D01*
X96927857Y-109209534D01*
X96929451Y-109211611D01*
X96930934Y-109213768D01*
X96932301Y-109216000D01*
X96933550Y-109218300D01*
X96934677Y-109220663D01*
X96935679Y-109223082D01*
X96936553Y-109225549D01*
X96937296Y-109228059D01*
X96937907Y-109230604D01*
X96938384Y-109233178D01*
X96938726Y-109235774D01*
X96938931Y-109238383D01*
X96939000Y-109241000D01*
X96939000Y-109881000D01*
X96938931Y-109883617D01*
X96938726Y-109886226D01*
X96938384Y-109888822D01*
X96937907Y-109891396D01*
X96937296Y-109893941D01*
X96936553Y-109896451D01*
X96935679Y-109898918D01*
X96934677Y-109901337D01*
X96933550Y-109903700D01*
X96932301Y-109906000D01*
X96930934Y-109908232D01*
X96929451Y-109910389D01*
X96927857Y-109912466D01*
X96926157Y-109914457D01*
X96924355Y-109916355D01*
X96922457Y-109918157D01*
X96920466Y-109919857D01*
X96918389Y-109921451D01*
X96916232Y-109922934D01*
X96914000Y-109924301D01*
X96911700Y-109925550D01*
X96909337Y-109926677D01*
X96906918Y-109927679D01*
X96904451Y-109928553D01*
X96901941Y-109929296D01*
X96899396Y-109929907D01*
X96896822Y-109930384D01*
X96894226Y-109930726D01*
X96891617Y-109930931D01*
X96889000Y-109931000D01*
G36*
X96889000Y-111201000D02*
G01*
X95299000Y-111201000D01*
X95296383Y-111200931D01*
X95293774Y-111200726D01*
X95291178Y-111200384D01*
X95288604Y-111199907D01*
X95286059Y-111199296D01*
X95283549Y-111198553D01*
X95281082Y-111197679D01*
X95278663Y-111196677D01*
X95276300Y-111195550D01*
X95274000Y-111194301D01*
X95271768Y-111192934D01*
X95269611Y-111191451D01*
X95267534Y-111189857D01*
X95265543Y-111188157D01*
X95263645Y-111186355D01*
X95261843Y-111184457D01*
X95260143Y-111182466D01*
X95258549Y-111180389D01*
X95257066Y-111178232D01*
X95255699Y-111176000D01*
X95254450Y-111173700D01*
X95253323Y-111171337D01*
X95252321Y-111168918D01*
X95251447Y-111166451D01*
X95250704Y-111163941D01*
X95250093Y-111161396D01*
X95249616Y-111158822D01*
X95249274Y-111156226D01*
X95249069Y-111153617D01*
X95249000Y-111151000D01*
X95249000Y-110511000D01*
X95249069Y-110508383D01*
X95249274Y-110505774D01*
X95249616Y-110503178D01*
X95250093Y-110500604D01*
X95250704Y-110498059D01*
X95251447Y-110495549D01*
X95252321Y-110493082D01*
X95253323Y-110490663D01*
X95254450Y-110488300D01*
X95255699Y-110486000D01*
X95257066Y-110483768D01*
X95258549Y-110481611D01*
X95260143Y-110479534D01*
X95261843Y-110477543D01*
X95263645Y-110475645D01*
X95265543Y-110473843D01*
X95267534Y-110472143D01*
X95269611Y-110470549D01*
X95271768Y-110469066D01*
X95274000Y-110467699D01*
X95276300Y-110466450D01*
X95278663Y-110465323D01*
X95281082Y-110464321D01*
X95283549Y-110463447D01*
X95286059Y-110462704D01*
X95288604Y-110462093D01*
X95291178Y-110461616D01*
X95293774Y-110461274D01*
X95296383Y-110461069D01*
X95299000Y-110461000D01*
X96889000Y-110461000D01*
X96891617Y-110461069D01*
X96894226Y-110461274D01*
X96896822Y-110461616D01*
X96899396Y-110462093D01*
X96901941Y-110462704D01*
X96904451Y-110463447D01*
X96906918Y-110464321D01*
X96909337Y-110465323D01*
X96911700Y-110466450D01*
X96914000Y-110467699D01*
X96916232Y-110469066D01*
X96918389Y-110470549D01*
X96920466Y-110472143D01*
X96922457Y-110473843D01*
X96924355Y-110475645D01*
X96926157Y-110477543D01*
X96927857Y-110479534D01*
X96929451Y-110481611D01*
X96930934Y-110483768D01*
X96932301Y-110486000D01*
X96933550Y-110488300D01*
X96934677Y-110490663D01*
X96935679Y-110493082D01*
X96936553Y-110495549D01*
X96937296Y-110498059D01*
X96937907Y-110500604D01*
X96938384Y-110503178D01*
X96938726Y-110505774D01*
X96938931Y-110508383D01*
X96939000Y-110511000D01*
X96939000Y-111151000D01*
X96938931Y-111153617D01*
X96938726Y-111156226D01*
X96938384Y-111158822D01*
X96937907Y-111161396D01*
X96937296Y-111163941D01*
X96936553Y-111166451D01*
X96935679Y-111168918D01*
X96934677Y-111171337D01*
X96933550Y-111173700D01*
X96932301Y-111176000D01*
X96930934Y-111178232D01*
X96929451Y-111180389D01*
X96927857Y-111182466D01*
X96926157Y-111184457D01*
X96924355Y-111186355D01*
X96922457Y-111188157D01*
X96920466Y-111189857D01*
X96918389Y-111191451D01*
X96916232Y-111192934D01*
X96914000Y-111194301D01*
X96911700Y-111195550D01*
X96909337Y-111196677D01*
X96906918Y-111197679D01*
X96904451Y-111198553D01*
X96901941Y-111199296D01*
X96899396Y-111199907D01*
X96896822Y-111200384D01*
X96894226Y-111200726D01*
X96891617Y-111200931D01*
X96889000Y-111201000D01*
G37*
X96889000Y-111201000D02*
X95299000Y-111201000D01*
X95296383Y-111200931D01*
X95293774Y-111200726D01*
X95291178Y-111200384D01*
X95288604Y-111199907D01*
X95286059Y-111199296D01*
X95283549Y-111198553D01*
X95281082Y-111197679D01*
X95278663Y-111196677D01*
X95276300Y-111195550D01*
X95274000Y-111194301D01*
X95271768Y-111192934D01*
X95269611Y-111191451D01*
X95267534Y-111189857D01*
X95265543Y-111188157D01*
X95263645Y-111186355D01*
X95261843Y-111184457D01*
X95260143Y-111182466D01*
X95258549Y-111180389D01*
X95257066Y-111178232D01*
X95255699Y-111176000D01*
X95254450Y-111173700D01*
X95253323Y-111171337D01*
X95252321Y-111168918D01*
X95251447Y-111166451D01*
X95250704Y-111163941D01*
X95250093Y-111161396D01*
X95249616Y-111158822D01*
X95249274Y-111156226D01*
X95249069Y-111153617D01*
X95249000Y-111151000D01*
X95249000Y-110511000D01*
X95249069Y-110508383D01*
X95249274Y-110505774D01*
X95249616Y-110503178D01*
X95250093Y-110500604D01*
X95250704Y-110498059D01*
X95251447Y-110495549D01*
X95252321Y-110493082D01*
X95253323Y-110490663D01*
X95254450Y-110488300D01*
X95255699Y-110486000D01*
X95257066Y-110483768D01*
X95258549Y-110481611D01*
X95260143Y-110479534D01*
X95261843Y-110477543D01*
X95263645Y-110475645D01*
X95265543Y-110473843D01*
X95267534Y-110472143D01*
X95269611Y-110470549D01*
X95271768Y-110469066D01*
X95274000Y-110467699D01*
X95276300Y-110466450D01*
X95278663Y-110465323D01*
X95281082Y-110464321D01*
X95283549Y-110463447D01*
X95286059Y-110462704D01*
X95288604Y-110462093D01*
X95291178Y-110461616D01*
X95293774Y-110461274D01*
X95296383Y-110461069D01*
X95299000Y-110461000D01*
X96889000Y-110461000D01*
X96891617Y-110461069D01*
X96894226Y-110461274D01*
X96896822Y-110461616D01*
X96899396Y-110462093D01*
X96901941Y-110462704D01*
X96904451Y-110463447D01*
X96906918Y-110464321D01*
X96909337Y-110465323D01*
X96911700Y-110466450D01*
X96914000Y-110467699D01*
X96916232Y-110469066D01*
X96918389Y-110470549D01*
X96920466Y-110472143D01*
X96922457Y-110473843D01*
X96924355Y-110475645D01*
X96926157Y-110477543D01*
X96927857Y-110479534D01*
X96929451Y-110481611D01*
X96930934Y-110483768D01*
X96932301Y-110486000D01*
X96933550Y-110488300D01*
X96934677Y-110490663D01*
X96935679Y-110493082D01*
X96936553Y-110495549D01*
X96937296Y-110498059D01*
X96937907Y-110500604D01*
X96938384Y-110503178D01*
X96938726Y-110505774D01*
X96938931Y-110508383D01*
X96939000Y-110511000D01*
X96939000Y-111151000D01*
X96938931Y-111153617D01*
X96938726Y-111156226D01*
X96938384Y-111158822D01*
X96937907Y-111161396D01*
X96937296Y-111163941D01*
X96936553Y-111166451D01*
X96935679Y-111168918D01*
X96934677Y-111171337D01*
X96933550Y-111173700D01*
X96932301Y-111176000D01*
X96930934Y-111178232D01*
X96929451Y-111180389D01*
X96927857Y-111182466D01*
X96926157Y-111184457D01*
X96924355Y-111186355D01*
X96922457Y-111188157D01*
X96920466Y-111189857D01*
X96918389Y-111191451D01*
X96916232Y-111192934D01*
X96914000Y-111194301D01*
X96911700Y-111195550D01*
X96909337Y-111196677D01*
X96906918Y-111197679D01*
X96904451Y-111198553D01*
X96901941Y-111199296D01*
X96899396Y-111199907D01*
X96896822Y-111200384D01*
X96894226Y-111200726D01*
X96891617Y-111200931D01*
X96889000Y-111201000D01*
G36*
X96889000Y-112471000D02*
G01*
X95299000Y-112471000D01*
X95296383Y-112470931D01*
X95293774Y-112470726D01*
X95291178Y-112470384D01*
X95288604Y-112469907D01*
X95286059Y-112469296D01*
X95283549Y-112468553D01*
X95281082Y-112467679D01*
X95278663Y-112466677D01*
X95276300Y-112465550D01*
X95274000Y-112464301D01*
X95271768Y-112462934D01*
X95269611Y-112461451D01*
X95267534Y-112459857D01*
X95265543Y-112458157D01*
X95263645Y-112456355D01*
X95261843Y-112454457D01*
X95260143Y-112452466D01*
X95258549Y-112450389D01*
X95257066Y-112448232D01*
X95255699Y-112446000D01*
X95254450Y-112443700D01*
X95253323Y-112441337D01*
X95252321Y-112438918D01*
X95251447Y-112436451D01*
X95250704Y-112433941D01*
X95250093Y-112431396D01*
X95249616Y-112428822D01*
X95249274Y-112426226D01*
X95249069Y-112423617D01*
X95249000Y-112421000D01*
X95249000Y-111781000D01*
X95249069Y-111778383D01*
X95249274Y-111775774D01*
X95249616Y-111773178D01*
X95250093Y-111770604D01*
X95250704Y-111768059D01*
X95251447Y-111765549D01*
X95252321Y-111763082D01*
X95253323Y-111760663D01*
X95254450Y-111758300D01*
X95255699Y-111756000D01*
X95257066Y-111753768D01*
X95258549Y-111751611D01*
X95260143Y-111749534D01*
X95261843Y-111747543D01*
X95263645Y-111745645D01*
X95265543Y-111743843D01*
X95267534Y-111742143D01*
X95269611Y-111740549D01*
X95271768Y-111739066D01*
X95274000Y-111737699D01*
X95276300Y-111736450D01*
X95278663Y-111735323D01*
X95281082Y-111734321D01*
X95283549Y-111733447D01*
X95286059Y-111732704D01*
X95288604Y-111732093D01*
X95291178Y-111731616D01*
X95293774Y-111731274D01*
X95296383Y-111731069D01*
X95299000Y-111731000D01*
X96889000Y-111731000D01*
X96891617Y-111731069D01*
X96894226Y-111731274D01*
X96896822Y-111731616D01*
X96899396Y-111732093D01*
X96901941Y-111732704D01*
X96904451Y-111733447D01*
X96906918Y-111734321D01*
X96909337Y-111735323D01*
X96911700Y-111736450D01*
X96914000Y-111737699D01*
X96916232Y-111739066D01*
X96918389Y-111740549D01*
X96920466Y-111742143D01*
X96922457Y-111743843D01*
X96924355Y-111745645D01*
X96926157Y-111747543D01*
X96927857Y-111749534D01*
X96929451Y-111751611D01*
X96930934Y-111753768D01*
X96932301Y-111756000D01*
X96933550Y-111758300D01*
X96934677Y-111760663D01*
X96935679Y-111763082D01*
X96936553Y-111765549D01*
X96937296Y-111768059D01*
X96937907Y-111770604D01*
X96938384Y-111773178D01*
X96938726Y-111775774D01*
X96938931Y-111778383D01*
X96939000Y-111781000D01*
X96939000Y-112421000D01*
X96938931Y-112423617D01*
X96938726Y-112426226D01*
X96938384Y-112428822D01*
X96937907Y-112431396D01*
X96937296Y-112433941D01*
X96936553Y-112436451D01*
X96935679Y-112438918D01*
X96934677Y-112441337D01*
X96933550Y-112443700D01*
X96932301Y-112446000D01*
X96930934Y-112448232D01*
X96929451Y-112450389D01*
X96927857Y-112452466D01*
X96926157Y-112454457D01*
X96924355Y-112456355D01*
X96922457Y-112458157D01*
X96920466Y-112459857D01*
X96918389Y-112461451D01*
X96916232Y-112462934D01*
X96914000Y-112464301D01*
X96911700Y-112465550D01*
X96909337Y-112466677D01*
X96906918Y-112467679D01*
X96904451Y-112468553D01*
X96901941Y-112469296D01*
X96899396Y-112469907D01*
X96896822Y-112470384D01*
X96894226Y-112470726D01*
X96891617Y-112470931D01*
X96889000Y-112471000D01*
G37*
X96889000Y-112471000D02*
X95299000Y-112471000D01*
X95296383Y-112470931D01*
X95293774Y-112470726D01*
X95291178Y-112470384D01*
X95288604Y-112469907D01*
X95286059Y-112469296D01*
X95283549Y-112468553D01*
X95281082Y-112467679D01*
X95278663Y-112466677D01*
X95276300Y-112465550D01*
X95274000Y-112464301D01*
X95271768Y-112462934D01*
X95269611Y-112461451D01*
X95267534Y-112459857D01*
X95265543Y-112458157D01*
X95263645Y-112456355D01*
X95261843Y-112454457D01*
X95260143Y-112452466D01*
X95258549Y-112450389D01*
X95257066Y-112448232D01*
X95255699Y-112446000D01*
X95254450Y-112443700D01*
X95253323Y-112441337D01*
X95252321Y-112438918D01*
X95251447Y-112436451D01*
X95250704Y-112433941D01*
X95250093Y-112431396D01*
X95249616Y-112428822D01*
X95249274Y-112426226D01*
X95249069Y-112423617D01*
X95249000Y-112421000D01*
X95249000Y-111781000D01*
X95249069Y-111778383D01*
X95249274Y-111775774D01*
X95249616Y-111773178D01*
X95250093Y-111770604D01*
X95250704Y-111768059D01*
X95251447Y-111765549D01*
X95252321Y-111763082D01*
X95253323Y-111760663D01*
X95254450Y-111758300D01*
X95255699Y-111756000D01*
X95257066Y-111753768D01*
X95258549Y-111751611D01*
X95260143Y-111749534D01*
X95261843Y-111747543D01*
X95263645Y-111745645D01*
X95265543Y-111743843D01*
X95267534Y-111742143D01*
X95269611Y-111740549D01*
X95271768Y-111739066D01*
X95274000Y-111737699D01*
X95276300Y-111736450D01*
X95278663Y-111735323D01*
X95281082Y-111734321D01*
X95283549Y-111733447D01*
X95286059Y-111732704D01*
X95288604Y-111732093D01*
X95291178Y-111731616D01*
X95293774Y-111731274D01*
X95296383Y-111731069D01*
X95299000Y-111731000D01*
X96889000Y-111731000D01*
X96891617Y-111731069D01*
X96894226Y-111731274D01*
X96896822Y-111731616D01*
X96899396Y-111732093D01*
X96901941Y-111732704D01*
X96904451Y-111733447D01*
X96906918Y-111734321D01*
X96909337Y-111735323D01*
X96911700Y-111736450D01*
X96914000Y-111737699D01*
X96916232Y-111739066D01*
X96918389Y-111740549D01*
X96920466Y-111742143D01*
X96922457Y-111743843D01*
X96924355Y-111745645D01*
X96926157Y-111747543D01*
X96927857Y-111749534D01*
X96929451Y-111751611D01*
X96930934Y-111753768D01*
X96932301Y-111756000D01*
X96933550Y-111758300D01*
X96934677Y-111760663D01*
X96935679Y-111763082D01*
X96936553Y-111765549D01*
X96937296Y-111768059D01*
X96937907Y-111770604D01*
X96938384Y-111773178D01*
X96938726Y-111775774D01*
X96938931Y-111778383D01*
X96939000Y-111781000D01*
X96939000Y-112421000D01*
X96938931Y-112423617D01*
X96938726Y-112426226D01*
X96938384Y-112428822D01*
X96937907Y-112431396D01*
X96937296Y-112433941D01*
X96936553Y-112436451D01*
X96935679Y-112438918D01*
X96934677Y-112441337D01*
X96933550Y-112443700D01*
X96932301Y-112446000D01*
X96930934Y-112448232D01*
X96929451Y-112450389D01*
X96927857Y-112452466D01*
X96926157Y-112454457D01*
X96924355Y-112456355D01*
X96922457Y-112458157D01*
X96920466Y-112459857D01*
X96918389Y-112461451D01*
X96916232Y-112462934D01*
X96914000Y-112464301D01*
X96911700Y-112465550D01*
X96909337Y-112466677D01*
X96906918Y-112467679D01*
X96904451Y-112468553D01*
X96901941Y-112469296D01*
X96899396Y-112469907D01*
X96896822Y-112470384D01*
X96894226Y-112470726D01*
X96891617Y-112470931D01*
X96889000Y-112471000D01*
G36*
X96889000Y-113741000D02*
G01*
X95299000Y-113741000D01*
X95296383Y-113740931D01*
X95293774Y-113740726D01*
X95291178Y-113740384D01*
X95288604Y-113739907D01*
X95286059Y-113739296D01*
X95283549Y-113738553D01*
X95281082Y-113737679D01*
X95278663Y-113736677D01*
X95276300Y-113735550D01*
X95274000Y-113734301D01*
X95271768Y-113732934D01*
X95269611Y-113731451D01*
X95267534Y-113729857D01*
X95265543Y-113728157D01*
X95263645Y-113726355D01*
X95261843Y-113724457D01*
X95260143Y-113722466D01*
X95258549Y-113720389D01*
X95257066Y-113718232D01*
X95255699Y-113716000D01*
X95254450Y-113713700D01*
X95253323Y-113711337D01*
X95252321Y-113708918D01*
X95251447Y-113706451D01*
X95250704Y-113703941D01*
X95250093Y-113701396D01*
X95249616Y-113698822D01*
X95249274Y-113696226D01*
X95249069Y-113693617D01*
X95249000Y-113691000D01*
X95249000Y-113051000D01*
X95249069Y-113048383D01*
X95249274Y-113045774D01*
X95249616Y-113043178D01*
X95250093Y-113040604D01*
X95250704Y-113038059D01*
X95251447Y-113035549D01*
X95252321Y-113033082D01*
X95253323Y-113030663D01*
X95254450Y-113028300D01*
X95255699Y-113026000D01*
X95257066Y-113023768D01*
X95258549Y-113021611D01*
X95260143Y-113019534D01*
X95261843Y-113017543D01*
X95263645Y-113015645D01*
X95265543Y-113013843D01*
X95267534Y-113012143D01*
X95269611Y-113010549D01*
X95271768Y-113009066D01*
X95274000Y-113007699D01*
X95276300Y-113006450D01*
X95278663Y-113005323D01*
X95281082Y-113004321D01*
X95283549Y-113003447D01*
X95286059Y-113002704D01*
X95288604Y-113002093D01*
X95291178Y-113001616D01*
X95293774Y-113001274D01*
X95296383Y-113001069D01*
X95299000Y-113001000D01*
X96889000Y-113001000D01*
X96891617Y-113001069D01*
X96894226Y-113001274D01*
X96896822Y-113001616D01*
X96899396Y-113002093D01*
X96901941Y-113002704D01*
X96904451Y-113003447D01*
X96906918Y-113004321D01*
X96909337Y-113005323D01*
X96911700Y-113006450D01*
X96914000Y-113007699D01*
X96916232Y-113009066D01*
X96918389Y-113010549D01*
X96920466Y-113012143D01*
X96922457Y-113013843D01*
X96924355Y-113015645D01*
X96926157Y-113017543D01*
X96927857Y-113019534D01*
X96929451Y-113021611D01*
X96930934Y-113023768D01*
X96932301Y-113026000D01*
X96933550Y-113028300D01*
X96934677Y-113030663D01*
X96935679Y-113033082D01*
X96936553Y-113035549D01*
X96937296Y-113038059D01*
X96937907Y-113040604D01*
X96938384Y-113043178D01*
X96938726Y-113045774D01*
X96938931Y-113048383D01*
X96939000Y-113051000D01*
X96939000Y-113691000D01*
X96938931Y-113693617D01*
X96938726Y-113696226D01*
X96938384Y-113698822D01*
X96937907Y-113701396D01*
X96937296Y-113703941D01*
X96936553Y-113706451D01*
X96935679Y-113708918D01*
X96934677Y-113711337D01*
X96933550Y-113713700D01*
X96932301Y-113716000D01*
X96930934Y-113718232D01*
X96929451Y-113720389D01*
X96927857Y-113722466D01*
X96926157Y-113724457D01*
X96924355Y-113726355D01*
X96922457Y-113728157D01*
X96920466Y-113729857D01*
X96918389Y-113731451D01*
X96916232Y-113732934D01*
X96914000Y-113734301D01*
X96911700Y-113735550D01*
X96909337Y-113736677D01*
X96906918Y-113737679D01*
X96904451Y-113738553D01*
X96901941Y-113739296D01*
X96899396Y-113739907D01*
X96896822Y-113740384D01*
X96894226Y-113740726D01*
X96891617Y-113740931D01*
X96889000Y-113741000D01*
G37*
X96889000Y-113741000D02*
X95299000Y-113741000D01*
X95296383Y-113740931D01*
X95293774Y-113740726D01*
X95291178Y-113740384D01*
X95288604Y-113739907D01*
X95286059Y-113739296D01*
X95283549Y-113738553D01*
X95281082Y-113737679D01*
X95278663Y-113736677D01*
X95276300Y-113735550D01*
X95274000Y-113734301D01*
X95271768Y-113732934D01*
X95269611Y-113731451D01*
X95267534Y-113729857D01*
X95265543Y-113728157D01*
X95263645Y-113726355D01*
X95261843Y-113724457D01*
X95260143Y-113722466D01*
X95258549Y-113720389D01*
X95257066Y-113718232D01*
X95255699Y-113716000D01*
X95254450Y-113713700D01*
X95253323Y-113711337D01*
X95252321Y-113708918D01*
X95251447Y-113706451D01*
X95250704Y-113703941D01*
X95250093Y-113701396D01*
X95249616Y-113698822D01*
X95249274Y-113696226D01*
X95249069Y-113693617D01*
X95249000Y-113691000D01*
X95249000Y-113051000D01*
X95249069Y-113048383D01*
X95249274Y-113045774D01*
X95249616Y-113043178D01*
X95250093Y-113040604D01*
X95250704Y-113038059D01*
X95251447Y-113035549D01*
X95252321Y-113033082D01*
X95253323Y-113030663D01*
X95254450Y-113028300D01*
X95255699Y-113026000D01*
X95257066Y-113023768D01*
X95258549Y-113021611D01*
X95260143Y-113019534D01*
X95261843Y-113017543D01*
X95263645Y-113015645D01*
X95265543Y-113013843D01*
X95267534Y-113012143D01*
X95269611Y-113010549D01*
X95271768Y-113009066D01*
X95274000Y-113007699D01*
X95276300Y-113006450D01*
X95278663Y-113005323D01*
X95281082Y-113004321D01*
X95283549Y-113003447D01*
X95286059Y-113002704D01*
X95288604Y-113002093D01*
X95291178Y-113001616D01*
X95293774Y-113001274D01*
X95296383Y-113001069D01*
X95299000Y-113001000D01*
X96889000Y-113001000D01*
X96891617Y-113001069D01*
X96894226Y-113001274D01*
X96896822Y-113001616D01*
X96899396Y-113002093D01*
X96901941Y-113002704D01*
X96904451Y-113003447D01*
X96906918Y-113004321D01*
X96909337Y-113005323D01*
X96911700Y-113006450D01*
X96914000Y-113007699D01*
X96916232Y-113009066D01*
X96918389Y-113010549D01*
X96920466Y-113012143D01*
X96922457Y-113013843D01*
X96924355Y-113015645D01*
X96926157Y-113017543D01*
X96927857Y-113019534D01*
X96929451Y-113021611D01*
X96930934Y-113023768D01*
X96932301Y-113026000D01*
X96933550Y-113028300D01*
X96934677Y-113030663D01*
X96935679Y-113033082D01*
X96936553Y-113035549D01*
X96937296Y-113038059D01*
X96937907Y-113040604D01*
X96938384Y-113043178D01*
X96938726Y-113045774D01*
X96938931Y-113048383D01*
X96939000Y-113051000D01*
X96939000Y-113691000D01*
X96938931Y-113693617D01*
X96938726Y-113696226D01*
X96938384Y-113698822D01*
X96937907Y-113701396D01*
X96937296Y-113703941D01*
X96936553Y-113706451D01*
X96935679Y-113708918D01*
X96934677Y-113711337D01*
X96933550Y-113713700D01*
X96932301Y-113716000D01*
X96930934Y-113718232D01*
X96929451Y-113720389D01*
X96927857Y-113722466D01*
X96926157Y-113724457D01*
X96924355Y-113726355D01*
X96922457Y-113728157D01*
X96920466Y-113729857D01*
X96918389Y-113731451D01*
X96916232Y-113732934D01*
X96914000Y-113734301D01*
X96911700Y-113735550D01*
X96909337Y-113736677D01*
X96906918Y-113737679D01*
X96904451Y-113738553D01*
X96901941Y-113739296D01*
X96899396Y-113739907D01*
X96896822Y-113740384D01*
X96894226Y-113740726D01*
X96891617Y-113740931D01*
X96889000Y-113741000D01*
G36*
X102289000Y-109931000D02*
G01*
X100699000Y-109931000D01*
X100696383Y-109930931D01*
X100693774Y-109930726D01*
X100691178Y-109930384D01*
X100688604Y-109929907D01*
X100686059Y-109929296D01*
X100683549Y-109928553D01*
X100681082Y-109927679D01*
X100678663Y-109926677D01*
X100676300Y-109925550D01*
X100674000Y-109924301D01*
X100671768Y-109922934D01*
X100669611Y-109921451D01*
X100667534Y-109919857D01*
X100665543Y-109918157D01*
X100663645Y-109916355D01*
X100661843Y-109914457D01*
X100660143Y-109912466D01*
X100658549Y-109910389D01*
X100657066Y-109908232D01*
X100655699Y-109906000D01*
X100654450Y-109903700D01*
X100653323Y-109901337D01*
X100652321Y-109898918D01*
X100651447Y-109896451D01*
X100650704Y-109893941D01*
X100650093Y-109891396D01*
X100649616Y-109888822D01*
X100649274Y-109886226D01*
X100649069Y-109883617D01*
X100649000Y-109881000D01*
X100649000Y-109241000D01*
X100649069Y-109238383D01*
X100649274Y-109235774D01*
X100649616Y-109233178D01*
X100650093Y-109230604D01*
X100650704Y-109228059D01*
X100651447Y-109225549D01*
X100652321Y-109223082D01*
X100653323Y-109220663D01*
X100654450Y-109218300D01*
X100655699Y-109216000D01*
X100657066Y-109213768D01*
X100658549Y-109211611D01*
X100660143Y-109209534D01*
X100661843Y-109207543D01*
X100663645Y-109205645D01*
X100665543Y-109203843D01*
X100667534Y-109202143D01*
X100669611Y-109200549D01*
X100671768Y-109199066D01*
X100674000Y-109197699D01*
X100676300Y-109196450D01*
X100678663Y-109195323D01*
X100681082Y-109194321D01*
X100683549Y-109193447D01*
X100686059Y-109192704D01*
X100688604Y-109192093D01*
X100691178Y-109191616D01*
X100693774Y-109191274D01*
X100696383Y-109191069D01*
X100699000Y-109191000D01*
X102289000Y-109191000D01*
X102291617Y-109191069D01*
X102294226Y-109191274D01*
X102296822Y-109191616D01*
X102299396Y-109192093D01*
X102301941Y-109192704D01*
X102304451Y-109193447D01*
X102306918Y-109194321D01*
X102309337Y-109195323D01*
X102311700Y-109196450D01*
X102314000Y-109197699D01*
X102316232Y-109199066D01*
X102318389Y-109200549D01*
X102320466Y-109202143D01*
X102322457Y-109203843D01*
X102324355Y-109205645D01*
X102326157Y-109207543D01*
X102327857Y-109209534D01*
X102329451Y-109211611D01*
X102330934Y-109213768D01*
X102332301Y-109216000D01*
X102333550Y-109218300D01*
X102334677Y-109220663D01*
X102335679Y-109223082D01*
X102336553Y-109225549D01*
X102337296Y-109228059D01*
X102337907Y-109230604D01*
X102338384Y-109233178D01*
X102338726Y-109235774D01*
X102338931Y-109238383D01*
X102339000Y-109241000D01*
X102339000Y-109881000D01*
X102338931Y-109883617D01*
X102338726Y-109886226D01*
X102338384Y-109888822D01*
X102337907Y-109891396D01*
X102337296Y-109893941D01*
X102336553Y-109896451D01*
X102335679Y-109898918D01*
X102334677Y-109901337D01*
X102333550Y-109903700D01*
X102332301Y-109906000D01*
X102330934Y-109908232D01*
X102329451Y-109910389D01*
X102327857Y-109912466D01*
X102326157Y-109914457D01*
X102324355Y-109916355D01*
X102322457Y-109918157D01*
X102320466Y-109919857D01*
X102318389Y-109921451D01*
X102316232Y-109922934D01*
X102314000Y-109924301D01*
X102311700Y-109925550D01*
X102309337Y-109926677D01*
X102306918Y-109927679D01*
X102304451Y-109928553D01*
X102301941Y-109929296D01*
X102299396Y-109929907D01*
X102296822Y-109930384D01*
X102294226Y-109930726D01*
X102291617Y-109930931D01*
X102289000Y-109931000D01*
G37*
X102289000Y-109931000D02*
X100699000Y-109931000D01*
X100696383Y-109930931D01*
X100693774Y-109930726D01*
X100691178Y-109930384D01*
X100688604Y-109929907D01*
X100686059Y-109929296D01*
X100683549Y-109928553D01*
X100681082Y-109927679D01*
X100678663Y-109926677D01*
X100676300Y-109925550D01*
X100674000Y-109924301D01*
X100671768Y-109922934D01*
X100669611Y-109921451D01*
X100667534Y-109919857D01*
X100665543Y-109918157D01*
X100663645Y-109916355D01*
X100661843Y-109914457D01*
X100660143Y-109912466D01*
X100658549Y-109910389D01*
X100657066Y-109908232D01*
X100655699Y-109906000D01*
X100654450Y-109903700D01*
X100653323Y-109901337D01*
X100652321Y-109898918D01*
X100651447Y-109896451D01*
X100650704Y-109893941D01*
X100650093Y-109891396D01*
X100649616Y-109888822D01*
X100649274Y-109886226D01*
X100649069Y-109883617D01*
X100649000Y-109881000D01*
X100649000Y-109241000D01*
X100649069Y-109238383D01*
X100649274Y-109235774D01*
X100649616Y-109233178D01*
X100650093Y-109230604D01*
X100650704Y-109228059D01*
X100651447Y-109225549D01*
X100652321Y-109223082D01*
X100653323Y-109220663D01*
X100654450Y-109218300D01*
X100655699Y-109216000D01*
X100657066Y-109213768D01*
X100658549Y-109211611D01*
X100660143Y-109209534D01*
X100661843Y-109207543D01*
X100663645Y-109205645D01*
X100665543Y-109203843D01*
X100667534Y-109202143D01*
X100669611Y-109200549D01*
X100671768Y-109199066D01*
X100674000Y-109197699D01*
X100676300Y-109196450D01*
X100678663Y-109195323D01*
X100681082Y-109194321D01*
X100683549Y-109193447D01*
X100686059Y-109192704D01*
X100688604Y-109192093D01*
X100691178Y-109191616D01*
X100693774Y-109191274D01*
X100696383Y-109191069D01*
X100699000Y-109191000D01*
X102289000Y-109191000D01*
X102291617Y-109191069D01*
X102294226Y-109191274D01*
X102296822Y-109191616D01*
X102299396Y-109192093D01*
X102301941Y-109192704D01*
X102304451Y-109193447D01*
X102306918Y-109194321D01*
X102309337Y-109195323D01*
X102311700Y-109196450D01*
X102314000Y-109197699D01*
X102316232Y-109199066D01*
X102318389Y-109200549D01*
X102320466Y-109202143D01*
X102322457Y-109203843D01*
X102324355Y-109205645D01*
X102326157Y-109207543D01*
X102327857Y-109209534D01*
X102329451Y-109211611D01*
X102330934Y-109213768D01*
X102332301Y-109216000D01*
X102333550Y-109218300D01*
X102334677Y-109220663D01*
X102335679Y-109223082D01*
X102336553Y-109225549D01*
X102337296Y-109228059D01*
X102337907Y-109230604D01*
X102338384Y-109233178D01*
X102338726Y-109235774D01*
X102338931Y-109238383D01*
X102339000Y-109241000D01*
X102339000Y-109881000D01*
X102338931Y-109883617D01*
X102338726Y-109886226D01*
X102338384Y-109888822D01*
X102337907Y-109891396D01*
X102337296Y-109893941D01*
X102336553Y-109896451D01*
X102335679Y-109898918D01*
X102334677Y-109901337D01*
X102333550Y-109903700D01*
X102332301Y-109906000D01*
X102330934Y-109908232D01*
X102329451Y-109910389D01*
X102327857Y-109912466D01*
X102326157Y-109914457D01*
X102324355Y-109916355D01*
X102322457Y-109918157D01*
X102320466Y-109919857D01*
X102318389Y-109921451D01*
X102316232Y-109922934D01*
X102314000Y-109924301D01*
X102311700Y-109925550D01*
X102309337Y-109926677D01*
X102306918Y-109927679D01*
X102304451Y-109928553D01*
X102301941Y-109929296D01*
X102299396Y-109929907D01*
X102296822Y-109930384D01*
X102294226Y-109930726D01*
X102291617Y-109930931D01*
X102289000Y-109931000D01*
G36*
X102289000Y-111201000D02*
G01*
X100699000Y-111201000D01*
X100696383Y-111200931D01*
X100693774Y-111200726D01*
X100691178Y-111200384D01*
X100688604Y-111199907D01*
X100686059Y-111199296D01*
X100683549Y-111198553D01*
X100681082Y-111197679D01*
X100678663Y-111196677D01*
X100676300Y-111195550D01*
X100674000Y-111194301D01*
X100671768Y-111192934D01*
X100669611Y-111191451D01*
X100667534Y-111189857D01*
X100665543Y-111188157D01*
X100663645Y-111186355D01*
X100661843Y-111184457D01*
X100660143Y-111182466D01*
X100658549Y-111180389D01*
X100657066Y-111178232D01*
X100655699Y-111176000D01*
X100654450Y-111173700D01*
X100653323Y-111171337D01*
X100652321Y-111168918D01*
X100651447Y-111166451D01*
X100650704Y-111163941D01*
X100650093Y-111161396D01*
X100649616Y-111158822D01*
X100649274Y-111156226D01*
X100649069Y-111153617D01*
X100649000Y-111151000D01*
X100649000Y-110511000D01*
X100649069Y-110508383D01*
X100649274Y-110505774D01*
X100649616Y-110503178D01*
X100650093Y-110500604D01*
X100650704Y-110498059D01*
X100651447Y-110495549D01*
X100652321Y-110493082D01*
X100653323Y-110490663D01*
X100654450Y-110488300D01*
X100655699Y-110486000D01*
X100657066Y-110483768D01*
X100658549Y-110481611D01*
X100660143Y-110479534D01*
X100661843Y-110477543D01*
X100663645Y-110475645D01*
X100665543Y-110473843D01*
X100667534Y-110472143D01*
X100669611Y-110470549D01*
X100671768Y-110469066D01*
X100674000Y-110467699D01*
X100676300Y-110466450D01*
X100678663Y-110465323D01*
X100681082Y-110464321D01*
X100683549Y-110463447D01*
X100686059Y-110462704D01*
X100688604Y-110462093D01*
X100691178Y-110461616D01*
X100693774Y-110461274D01*
X100696383Y-110461069D01*
X100699000Y-110461000D01*
X102289000Y-110461000D01*
X102291617Y-110461069D01*
X102294226Y-110461274D01*
X102296822Y-110461616D01*
X102299396Y-110462093D01*
X102301941Y-110462704D01*
X102304451Y-110463447D01*
X102306918Y-110464321D01*
X102309337Y-110465323D01*
X102311700Y-110466450D01*
X102314000Y-110467699D01*
X102316232Y-110469066D01*
X102318389Y-110470549D01*
X102320466Y-110472143D01*
X102322457Y-110473843D01*
X102324355Y-110475645D01*
X102326157Y-110477543D01*
X102327857Y-110479534D01*
X102329451Y-110481611D01*
X102330934Y-110483768D01*
X102332301Y-110486000D01*
X102333550Y-110488300D01*
X102334677Y-110490663D01*
X102335679Y-110493082D01*
X102336553Y-110495549D01*
X102337296Y-110498059D01*
X102337907Y-110500604D01*
X102338384Y-110503178D01*
X102338726Y-110505774D01*
X102338931Y-110508383D01*
X102339000Y-110511000D01*
X102339000Y-111151000D01*
X102338931Y-111153617D01*
X102338726Y-111156226D01*
X102338384Y-111158822D01*
X102337907Y-111161396D01*
X102337296Y-111163941D01*
X102336553Y-111166451D01*
X102335679Y-111168918D01*
X102334677Y-111171337D01*
X102333550Y-111173700D01*
X102332301Y-111176000D01*
X102330934Y-111178232D01*
X102329451Y-111180389D01*
X102327857Y-111182466D01*
X102326157Y-111184457D01*
X102324355Y-111186355D01*
X102322457Y-111188157D01*
X102320466Y-111189857D01*
X102318389Y-111191451D01*
X102316232Y-111192934D01*
X102314000Y-111194301D01*
X102311700Y-111195550D01*
X102309337Y-111196677D01*
X102306918Y-111197679D01*
X102304451Y-111198553D01*
X102301941Y-111199296D01*
X102299396Y-111199907D01*
X102296822Y-111200384D01*
X102294226Y-111200726D01*
X102291617Y-111200931D01*
X102289000Y-111201000D01*
G37*
X102289000Y-111201000D02*
X100699000Y-111201000D01*
X100696383Y-111200931D01*
X100693774Y-111200726D01*
X100691178Y-111200384D01*
X100688604Y-111199907D01*
X100686059Y-111199296D01*
X100683549Y-111198553D01*
X100681082Y-111197679D01*
X100678663Y-111196677D01*
X100676300Y-111195550D01*
X100674000Y-111194301D01*
X100671768Y-111192934D01*
X100669611Y-111191451D01*
X100667534Y-111189857D01*
X100665543Y-111188157D01*
X100663645Y-111186355D01*
X100661843Y-111184457D01*
X100660143Y-111182466D01*
X100658549Y-111180389D01*
X100657066Y-111178232D01*
X100655699Y-111176000D01*
X100654450Y-111173700D01*
X100653323Y-111171337D01*
X100652321Y-111168918D01*
X100651447Y-111166451D01*
X100650704Y-111163941D01*
X100650093Y-111161396D01*
X100649616Y-111158822D01*
X100649274Y-111156226D01*
X100649069Y-111153617D01*
X100649000Y-111151000D01*
X100649000Y-110511000D01*
X100649069Y-110508383D01*
X100649274Y-110505774D01*
X100649616Y-110503178D01*
X100650093Y-110500604D01*
X100650704Y-110498059D01*
X100651447Y-110495549D01*
X100652321Y-110493082D01*
X100653323Y-110490663D01*
X100654450Y-110488300D01*
X100655699Y-110486000D01*
X100657066Y-110483768D01*
X100658549Y-110481611D01*
X100660143Y-110479534D01*
X100661843Y-110477543D01*
X100663645Y-110475645D01*
X100665543Y-110473843D01*
X100667534Y-110472143D01*
X100669611Y-110470549D01*
X100671768Y-110469066D01*
X100674000Y-110467699D01*
X100676300Y-110466450D01*
X100678663Y-110465323D01*
X100681082Y-110464321D01*
X100683549Y-110463447D01*
X100686059Y-110462704D01*
X100688604Y-110462093D01*
X100691178Y-110461616D01*
X100693774Y-110461274D01*
X100696383Y-110461069D01*
X100699000Y-110461000D01*
X102289000Y-110461000D01*
X102291617Y-110461069D01*
X102294226Y-110461274D01*
X102296822Y-110461616D01*
X102299396Y-110462093D01*
X102301941Y-110462704D01*
X102304451Y-110463447D01*
X102306918Y-110464321D01*
X102309337Y-110465323D01*
X102311700Y-110466450D01*
X102314000Y-110467699D01*
X102316232Y-110469066D01*
X102318389Y-110470549D01*
X102320466Y-110472143D01*
X102322457Y-110473843D01*
X102324355Y-110475645D01*
X102326157Y-110477543D01*
X102327857Y-110479534D01*
X102329451Y-110481611D01*
X102330934Y-110483768D01*
X102332301Y-110486000D01*
X102333550Y-110488300D01*
X102334677Y-110490663D01*
X102335679Y-110493082D01*
X102336553Y-110495549D01*
X102337296Y-110498059D01*
X102337907Y-110500604D01*
X102338384Y-110503178D01*
X102338726Y-110505774D01*
X102338931Y-110508383D01*
X102339000Y-110511000D01*
X102339000Y-111151000D01*
X102338931Y-111153617D01*
X102338726Y-111156226D01*
X102338384Y-111158822D01*
X102337907Y-111161396D01*
X102337296Y-111163941D01*
X102336553Y-111166451D01*
X102335679Y-111168918D01*
X102334677Y-111171337D01*
X102333550Y-111173700D01*
X102332301Y-111176000D01*
X102330934Y-111178232D01*
X102329451Y-111180389D01*
X102327857Y-111182466D01*
X102326157Y-111184457D01*
X102324355Y-111186355D01*
X102322457Y-111188157D01*
X102320466Y-111189857D01*
X102318389Y-111191451D01*
X102316232Y-111192934D01*
X102314000Y-111194301D01*
X102311700Y-111195550D01*
X102309337Y-111196677D01*
X102306918Y-111197679D01*
X102304451Y-111198553D01*
X102301941Y-111199296D01*
X102299396Y-111199907D01*
X102296822Y-111200384D01*
X102294226Y-111200726D01*
X102291617Y-111200931D01*
X102289000Y-111201000D01*
G36*
X102289000Y-112471000D02*
G01*
X100699000Y-112471000D01*
X100696383Y-112470931D01*
X100693774Y-112470726D01*
X100691178Y-112470384D01*
X100688604Y-112469907D01*
X100686059Y-112469296D01*
X100683549Y-112468553D01*
X100681082Y-112467679D01*
X100678663Y-112466677D01*
X100676300Y-112465550D01*
X100674000Y-112464301D01*
X100671768Y-112462934D01*
X100669611Y-112461451D01*
X100667534Y-112459857D01*
X100665543Y-112458157D01*
X100663645Y-112456355D01*
X100661843Y-112454457D01*
X100660143Y-112452466D01*
X100658549Y-112450389D01*
X100657066Y-112448232D01*
X100655699Y-112446000D01*
X100654450Y-112443700D01*
X100653323Y-112441337D01*
X100652321Y-112438918D01*
X100651447Y-112436451D01*
X100650704Y-112433941D01*
X100650093Y-112431396D01*
X100649616Y-112428822D01*
X100649274Y-112426226D01*
X100649069Y-112423617D01*
X100649000Y-112421000D01*
X100649000Y-111781000D01*
X100649069Y-111778383D01*
X100649274Y-111775774D01*
X100649616Y-111773178D01*
X100650093Y-111770604D01*
X100650704Y-111768059D01*
X100651447Y-111765549D01*
X100652321Y-111763082D01*
X100653323Y-111760663D01*
X100654450Y-111758300D01*
X100655699Y-111756000D01*
X100657066Y-111753768D01*
X100658549Y-111751611D01*
X100660143Y-111749534D01*
X100661843Y-111747543D01*
X100663645Y-111745645D01*
X100665543Y-111743843D01*
X100667534Y-111742143D01*
X100669611Y-111740549D01*
X100671768Y-111739066D01*
X100674000Y-111737699D01*
X100676300Y-111736450D01*
X100678663Y-111735323D01*
X100681082Y-111734321D01*
X100683549Y-111733447D01*
X100686059Y-111732704D01*
X100688604Y-111732093D01*
X100691178Y-111731616D01*
X100693774Y-111731274D01*
X100696383Y-111731069D01*
X100699000Y-111731000D01*
X102289000Y-111731000D01*
X102291617Y-111731069D01*
X102294226Y-111731274D01*
X102296822Y-111731616D01*
X102299396Y-111732093D01*
X102301941Y-111732704D01*
X102304451Y-111733447D01*
X102306918Y-111734321D01*
X102309337Y-111735323D01*
X102311700Y-111736450D01*
X102314000Y-111737699D01*
X102316232Y-111739066D01*
X102318389Y-111740549D01*
X102320466Y-111742143D01*
X102322457Y-111743843D01*
X102324355Y-111745645D01*
X102326157Y-111747543D01*
X102327857Y-111749534D01*
X102329451Y-111751611D01*
X102330934Y-111753768D01*
X102332301Y-111756000D01*
X102333550Y-111758300D01*
X102334677Y-111760663D01*
X102335679Y-111763082D01*
X102336553Y-111765549D01*
X102337296Y-111768059D01*
X102337907Y-111770604D01*
X102338384Y-111773178D01*
X102338726Y-111775774D01*
X102338931Y-111778383D01*
X102339000Y-111781000D01*
X102339000Y-112421000D01*
X102338931Y-112423617D01*
X102338726Y-112426226D01*
X102338384Y-112428822D01*
X102337907Y-112431396D01*
X102337296Y-112433941D01*
X102336553Y-112436451D01*
X102335679Y-112438918D01*
X102334677Y-112441337D01*
X102333550Y-112443700D01*
X102332301Y-112446000D01*
X102330934Y-112448232D01*
X102329451Y-112450389D01*
X102327857Y-112452466D01*
X102326157Y-112454457D01*
X102324355Y-112456355D01*
X102322457Y-112458157D01*
X102320466Y-112459857D01*
X102318389Y-112461451D01*
X102316232Y-112462934D01*
X102314000Y-112464301D01*
X102311700Y-112465550D01*
X102309337Y-112466677D01*
X102306918Y-112467679D01*
X102304451Y-112468553D01*
X102301941Y-112469296D01*
X102299396Y-112469907D01*
X102296822Y-112470384D01*
X102294226Y-112470726D01*
X102291617Y-112470931D01*
X102289000Y-112471000D01*
G37*
X102289000Y-112471000D02*
X100699000Y-112471000D01*
X100696383Y-112470931D01*
X100693774Y-112470726D01*
X100691178Y-112470384D01*
X100688604Y-112469907D01*
X100686059Y-112469296D01*
X100683549Y-112468553D01*
X100681082Y-112467679D01*
X100678663Y-112466677D01*
X100676300Y-112465550D01*
X100674000Y-112464301D01*
X100671768Y-112462934D01*
X100669611Y-112461451D01*
X100667534Y-112459857D01*
X100665543Y-112458157D01*
X100663645Y-112456355D01*
X100661843Y-112454457D01*
X100660143Y-112452466D01*
X100658549Y-112450389D01*
X100657066Y-112448232D01*
X100655699Y-112446000D01*
X100654450Y-112443700D01*
X100653323Y-112441337D01*
X100652321Y-112438918D01*
X100651447Y-112436451D01*
X100650704Y-112433941D01*
X100650093Y-112431396D01*
X100649616Y-112428822D01*
X100649274Y-112426226D01*
X100649069Y-112423617D01*
X100649000Y-112421000D01*
X100649000Y-111781000D01*
X100649069Y-111778383D01*
X100649274Y-111775774D01*
X100649616Y-111773178D01*
X100650093Y-111770604D01*
X100650704Y-111768059D01*
X100651447Y-111765549D01*
X100652321Y-111763082D01*
X100653323Y-111760663D01*
X100654450Y-111758300D01*
X100655699Y-111756000D01*
X100657066Y-111753768D01*
X100658549Y-111751611D01*
X100660143Y-111749534D01*
X100661843Y-111747543D01*
X100663645Y-111745645D01*
X100665543Y-111743843D01*
X100667534Y-111742143D01*
X100669611Y-111740549D01*
X100671768Y-111739066D01*
X100674000Y-111737699D01*
X100676300Y-111736450D01*
X100678663Y-111735323D01*
X100681082Y-111734321D01*
X100683549Y-111733447D01*
X100686059Y-111732704D01*
X100688604Y-111732093D01*
X100691178Y-111731616D01*
X100693774Y-111731274D01*
X100696383Y-111731069D01*
X100699000Y-111731000D01*
X102289000Y-111731000D01*
X102291617Y-111731069D01*
X102294226Y-111731274D01*
X102296822Y-111731616D01*
X102299396Y-111732093D01*
X102301941Y-111732704D01*
X102304451Y-111733447D01*
X102306918Y-111734321D01*
X102309337Y-111735323D01*
X102311700Y-111736450D01*
X102314000Y-111737699D01*
X102316232Y-111739066D01*
X102318389Y-111740549D01*
X102320466Y-111742143D01*
X102322457Y-111743843D01*
X102324355Y-111745645D01*
X102326157Y-111747543D01*
X102327857Y-111749534D01*
X102329451Y-111751611D01*
X102330934Y-111753768D01*
X102332301Y-111756000D01*
X102333550Y-111758300D01*
X102334677Y-111760663D01*
X102335679Y-111763082D01*
X102336553Y-111765549D01*
X102337296Y-111768059D01*
X102337907Y-111770604D01*
X102338384Y-111773178D01*
X102338726Y-111775774D01*
X102338931Y-111778383D01*
X102339000Y-111781000D01*
X102339000Y-112421000D01*
X102338931Y-112423617D01*
X102338726Y-112426226D01*
X102338384Y-112428822D01*
X102337907Y-112431396D01*
X102337296Y-112433941D01*
X102336553Y-112436451D01*
X102335679Y-112438918D01*
X102334677Y-112441337D01*
X102333550Y-112443700D01*
X102332301Y-112446000D01*
X102330934Y-112448232D01*
X102329451Y-112450389D01*
X102327857Y-112452466D01*
X102326157Y-112454457D01*
X102324355Y-112456355D01*
X102322457Y-112458157D01*
X102320466Y-112459857D01*
X102318389Y-112461451D01*
X102316232Y-112462934D01*
X102314000Y-112464301D01*
X102311700Y-112465550D01*
X102309337Y-112466677D01*
X102306918Y-112467679D01*
X102304451Y-112468553D01*
X102301941Y-112469296D01*
X102299396Y-112469907D01*
X102296822Y-112470384D01*
X102294226Y-112470726D01*
X102291617Y-112470931D01*
X102289000Y-112471000D01*
G36*
X102289000Y-113741000D02*
G01*
X100699000Y-113741000D01*
X100696383Y-113740931D01*
X100693774Y-113740726D01*
X100691178Y-113740384D01*
X100688604Y-113739907D01*
X100686059Y-113739296D01*
X100683549Y-113738553D01*
X100681082Y-113737679D01*
X100678663Y-113736677D01*
X100676300Y-113735550D01*
X100674000Y-113734301D01*
X100671768Y-113732934D01*
X100669611Y-113731451D01*
X100667534Y-113729857D01*
X100665543Y-113728157D01*
X100663645Y-113726355D01*
X100661843Y-113724457D01*
X100660143Y-113722466D01*
X100658549Y-113720389D01*
X100657066Y-113718232D01*
X100655699Y-113716000D01*
X100654450Y-113713700D01*
X100653323Y-113711337D01*
X100652321Y-113708918D01*
X100651447Y-113706451D01*
X100650704Y-113703941D01*
X100650093Y-113701396D01*
X100649616Y-113698822D01*
X100649274Y-113696226D01*
X100649069Y-113693617D01*
X100649000Y-113691000D01*
X100649000Y-113051000D01*
X100649069Y-113048383D01*
X100649274Y-113045774D01*
X100649616Y-113043178D01*
X100650093Y-113040604D01*
X100650704Y-113038059D01*
X100651447Y-113035549D01*
X100652321Y-113033082D01*
X100653323Y-113030663D01*
X100654450Y-113028300D01*
X100655699Y-113026000D01*
X100657066Y-113023768D01*
X100658549Y-113021611D01*
X100660143Y-113019534D01*
X100661843Y-113017543D01*
X100663645Y-113015645D01*
X100665543Y-113013843D01*
X100667534Y-113012143D01*
X100669611Y-113010549D01*
X100671768Y-113009066D01*
X100674000Y-113007699D01*
X100676300Y-113006450D01*
X100678663Y-113005323D01*
X100681082Y-113004321D01*
X100683549Y-113003447D01*
X100686059Y-113002704D01*
X100688604Y-113002093D01*
X100691178Y-113001616D01*
X100693774Y-113001274D01*
X100696383Y-113001069D01*
X100699000Y-113001000D01*
X102289000Y-113001000D01*
X102291617Y-113001069D01*
X102294226Y-113001274D01*
X102296822Y-113001616D01*
X102299396Y-113002093D01*
X102301941Y-113002704D01*
X102304451Y-113003447D01*
X102306918Y-113004321D01*
X102309337Y-113005323D01*
X102311700Y-113006450D01*
X102314000Y-113007699D01*
X102316232Y-113009066D01*
X102318389Y-113010549D01*
X102320466Y-113012143D01*
X102322457Y-113013843D01*
X102324355Y-113015645D01*
X102326157Y-113017543D01*
X102327857Y-113019534D01*
X102329451Y-113021611D01*
X102330934Y-113023768D01*
X102332301Y-113026000D01*
X102333550Y-113028300D01*
X102334677Y-113030663D01*
X102335679Y-113033082D01*
X102336553Y-113035549D01*
X102337296Y-113038059D01*
X102337907Y-113040604D01*
X102338384Y-113043178D01*
X102338726Y-113045774D01*
X102338931Y-113048383D01*
X102339000Y-113051000D01*
X102339000Y-113691000D01*
X102338931Y-113693617D01*
X102338726Y-113696226D01*
X102338384Y-113698822D01*
X102337907Y-113701396D01*
X102337296Y-113703941D01*
X102336553Y-113706451D01*
X102335679Y-113708918D01*
X102334677Y-113711337D01*
X102333550Y-113713700D01*
X102332301Y-113716000D01*
X102330934Y-113718232D01*
X102329451Y-113720389D01*
X102327857Y-113722466D01*
X102326157Y-113724457D01*
X102324355Y-113726355D01*
X102322457Y-113728157D01*
X102320466Y-113729857D01*
X102318389Y-113731451D01*
X102316232Y-113732934D01*
X102314000Y-113734301D01*
X102311700Y-113735550D01*
X102309337Y-113736677D01*
X102306918Y-113737679D01*
X102304451Y-113738553D01*
X102301941Y-113739296D01*
X102299396Y-113739907D01*
X102296822Y-113740384D01*
X102294226Y-113740726D01*
X102291617Y-113740931D01*
X102289000Y-113741000D01*
G37*
X102289000Y-113741000D02*
X100699000Y-113741000D01*
X100696383Y-113740931D01*
X100693774Y-113740726D01*
X100691178Y-113740384D01*
X100688604Y-113739907D01*
X100686059Y-113739296D01*
X100683549Y-113738553D01*
X100681082Y-113737679D01*
X100678663Y-113736677D01*
X100676300Y-113735550D01*
X100674000Y-113734301D01*
X100671768Y-113732934D01*
X100669611Y-113731451D01*
X100667534Y-113729857D01*
X100665543Y-113728157D01*
X100663645Y-113726355D01*
X100661843Y-113724457D01*
X100660143Y-113722466D01*
X100658549Y-113720389D01*
X100657066Y-113718232D01*
X100655699Y-113716000D01*
X100654450Y-113713700D01*
X100653323Y-113711337D01*
X100652321Y-113708918D01*
X100651447Y-113706451D01*
X100650704Y-113703941D01*
X100650093Y-113701396D01*
X100649616Y-113698822D01*
X100649274Y-113696226D01*
X100649069Y-113693617D01*
X100649000Y-113691000D01*
X100649000Y-113051000D01*
X100649069Y-113048383D01*
X100649274Y-113045774D01*
X100649616Y-113043178D01*
X100650093Y-113040604D01*
X100650704Y-113038059D01*
X100651447Y-113035549D01*
X100652321Y-113033082D01*
X100653323Y-113030663D01*
X100654450Y-113028300D01*
X100655699Y-113026000D01*
X100657066Y-113023768D01*
X100658549Y-113021611D01*
X100660143Y-113019534D01*
X100661843Y-113017543D01*
X100663645Y-113015645D01*
X100665543Y-113013843D01*
X100667534Y-113012143D01*
X100669611Y-113010549D01*
X100671768Y-113009066D01*
X100674000Y-113007699D01*
X100676300Y-113006450D01*
X100678663Y-113005323D01*
X100681082Y-113004321D01*
X100683549Y-113003447D01*
X100686059Y-113002704D01*
X100688604Y-113002093D01*
X100691178Y-113001616D01*
X100693774Y-113001274D01*
X100696383Y-113001069D01*
X100699000Y-113001000D01*
X102289000Y-113001000D01*
X102291617Y-113001069D01*
X102294226Y-113001274D01*
X102296822Y-113001616D01*
X102299396Y-113002093D01*
X102301941Y-113002704D01*
X102304451Y-113003447D01*
X102306918Y-113004321D01*
X102309337Y-113005323D01*
X102311700Y-113006450D01*
X102314000Y-113007699D01*
X102316232Y-113009066D01*
X102318389Y-113010549D01*
X102320466Y-113012143D01*
X102322457Y-113013843D01*
X102324355Y-113015645D01*
X102326157Y-113017543D01*
X102327857Y-113019534D01*
X102329451Y-113021611D01*
X102330934Y-113023768D01*
X102332301Y-113026000D01*
X102333550Y-113028300D01*
X102334677Y-113030663D01*
X102335679Y-113033082D01*
X102336553Y-113035549D01*
X102337296Y-113038059D01*
X102337907Y-113040604D01*
X102338384Y-113043178D01*
X102338726Y-113045774D01*
X102338931Y-113048383D01*
X102339000Y-113051000D01*
X102339000Y-113691000D01*
X102338931Y-113693617D01*
X102338726Y-113696226D01*
X102338384Y-113698822D01*
X102337907Y-113701396D01*
X102337296Y-113703941D01*
X102336553Y-113706451D01*
X102335679Y-113708918D01*
X102334677Y-113711337D01*
X102333550Y-113713700D01*
X102332301Y-113716000D01*
X102330934Y-113718232D01*
X102329451Y-113720389D01*
X102327857Y-113722466D01*
X102326157Y-113724457D01*
X102324355Y-113726355D01*
X102322457Y-113728157D01*
X102320466Y-113729857D01*
X102318389Y-113731451D01*
X102316232Y-113732934D01*
X102314000Y-113734301D01*
X102311700Y-113735550D01*
X102309337Y-113736677D01*
X102306918Y-113737679D01*
X102304451Y-113738553D01*
X102301941Y-113739296D01*
X102299396Y-113739907D01*
X102296822Y-113740384D01*
X102294226Y-113740726D01*
X102291617Y-113740931D01*
X102289000Y-113741000D01*
%TD*%
D11*
%TO.C,H4*%
X142250000Y-158250000D03*
%TD*%
%TO.C,H3*%
X142250000Y-37600000D03*
%TD*%
%TO.C,H2*%
X59700000Y-158250000D03*
%TD*%
%TO.C,H1*%
X59700000Y-37600000D03*
%TD*%
D12*
%TO.C,R3*%
X84316000Y-90765000D03*
D13*
X84316000Y-100925000D03*
%TD*%
D12*
%TO.C,R2*%
X89396000Y-100925000D03*
D13*
X89396000Y-90765000D03*
%TD*%
D14*
%TO.C,U2*%
X94285500Y-70826000D03*
X99365500Y-70826000D03*
X104445500Y-70826000D03*
X96825500Y-61936000D03*
X100635500Y-61936000D03*
X104445500Y-61936000D03*
%TD*%
D12*
%TO.C,R7*%
X117463000Y-102385500D03*
D13*
X117463000Y-122705500D03*
%TD*%
D12*
%TO.C,R6*%
X90475500Y-116990500D03*
D13*
X70155500Y-116990500D03*
%TD*%
D12*
%TO.C,R5*%
X90475500Y-121753000D03*
D13*
X70155500Y-121753000D03*
%TD*%
D12*
%TO.C,R4*%
X123114500Y-102449000D03*
D13*
X123114500Y-122769000D03*
%TD*%
D12*
%TO.C,R1*%
X76823000Y-110958000D03*
D13*
X76823000Y-90638000D03*
%TD*%
D15*
%TO.C,J1*%
X97350000Y-39800000D03*
X100850000Y-39800000D03*
X104350000Y-39800000D03*
D16*
X107850000Y-39800000D03*
%TD*%
D13*
%TO.C,C5*%
X108509500Y-105656000D03*
D17*
X108509500Y-107656000D03*
%TD*%
D13*
%TO.C,C4*%
X97725966Y-101869500D03*
D17*
X99725966Y-101869500D03*
%TD*%
D13*
%TO.C,C3*%
X97500500Y-91971500D03*
D17*
X100000500Y-91971500D03*
%TD*%
D13*
%TO.C,C2*%
X87237000Y-110029000D03*
D17*
X87237000Y-107529000D03*
%TD*%
D13*
%TO.C,C1*%
X80100000Y-131200000D03*
D17*
X80100000Y-128700000D03*
%TD*%
D18*
%TO.C,U1*%
X99444000Y-113416000D03*
X98144000Y-113416000D03*
X99444000Y-112116000D03*
X98144000Y-112116000D03*
X99444000Y-110816000D03*
X98144000Y-110816000D03*
X99444000Y-109516000D03*
X98144000Y-109516000D03*
D19*
X98794000Y-111466000D03*
%TD*%
M02*
