%TF.GenerationSoftware,KiCad,Pcbnew,(5.1.6)-1*%
%TF.CreationDate,2020-11-12T12:18:02-07:00*%
%TF.ProjectId,OPA454_SmallSig_Amp,4f504134-3534-45f5-936d-616c6c536967,rev?*%
%TF.SameCoordinates,Original*%
%TF.FileFunction,Soldermask,Bot*%
%TF.FilePolarity,Negative*%
%FSLAX46Y46*%
G04 Gerber Fmt 4.6, Leading zero omitted, Abs format (unit mm)*
G04 Created by KiCad (PCBNEW (5.1.6)-1) date 2020-11-12 12:18:02*
%MOMM*%
%LPD*%
G01*
G04 APERTURE LIST*
%ADD10C,5.100000*%
%ADD11O,1.700000X1.700000*%
%ADD12C,1.700000*%
%ADD13C,1.750000*%
%ADD14C,2.500000*%
%ADD15R,2.500000X2.500000*%
%ADD16R,1.700000X1.700000*%
%ADD17C,0.400000*%
G04 APERTURE END LIST*
D10*
%TO.C,H4*%
X142250000Y-158250000D03*
%TD*%
%TO.C,H3*%
X142250000Y-37600000D03*
%TD*%
%TO.C,H2*%
X59700000Y-158250000D03*
%TD*%
%TO.C,H1*%
X59700000Y-37600000D03*
%TD*%
D11*
%TO.C,R3*%
X84316000Y-90765000D03*
D12*
X84316000Y-100925000D03*
%TD*%
D11*
%TO.C,R2*%
X89396000Y-100925000D03*
D12*
X89396000Y-90765000D03*
%TD*%
D13*
%TO.C,U2*%
X94285500Y-70826000D03*
X99365500Y-70826000D03*
X104445500Y-70826000D03*
X96825500Y-61936000D03*
X100635500Y-61936000D03*
X104445500Y-61936000D03*
%TD*%
D11*
%TO.C,R7*%
X117463000Y-102385500D03*
D12*
X117463000Y-122705500D03*
%TD*%
D11*
%TO.C,R6*%
X90475500Y-116990500D03*
D12*
X70155500Y-116990500D03*
%TD*%
D11*
%TO.C,R5*%
X90475500Y-121753000D03*
D12*
X70155500Y-121753000D03*
%TD*%
D11*
%TO.C,R4*%
X123114500Y-102449000D03*
D12*
X123114500Y-122769000D03*
%TD*%
D11*
%TO.C,R1*%
X76823000Y-110958000D03*
D12*
X76823000Y-90638000D03*
%TD*%
D14*
%TO.C,J1*%
X97350000Y-39800000D03*
X100850000Y-39800000D03*
X104350000Y-39800000D03*
D15*
X107850000Y-39800000D03*
%TD*%
D12*
%TO.C,C5*%
X108509500Y-105656000D03*
D16*
X108509500Y-107656000D03*
%TD*%
D12*
%TO.C,C4*%
X97725966Y-101869500D03*
D16*
X99725966Y-101869500D03*
%TD*%
D12*
%TO.C,C3*%
X97500500Y-91971500D03*
D16*
X100000500Y-91971500D03*
%TD*%
D12*
%TO.C,C2*%
X87237000Y-110029000D03*
D16*
X87237000Y-107529000D03*
%TD*%
D12*
%TO.C,C1*%
X80100000Y-131200000D03*
D16*
X80100000Y-128700000D03*
%TD*%
D17*
%TO.C,U1*%
X99444000Y-113416000D03*
X98144000Y-113416000D03*
X99444000Y-112116000D03*
X98144000Y-112116000D03*
X99444000Y-110816000D03*
X98144000Y-110816000D03*
X99444000Y-109516000D03*
X98144000Y-109516000D03*
%TD*%
M02*
