%TF.GenerationSoftware,KiCad,Pcbnew,(5.1.6)-1*%
%TF.CreationDate,2020-11-12T12:18:02-07:00*%
%TF.ProjectId,OPA454_SmallSig_Amp,4f504134-3534-45f5-936d-616c6c536967,rev?*%
%TF.SameCoordinates,Original*%
%TF.FileFunction,Copper,L1,Top*%
%TF.FilePolarity,Positive*%
%FSLAX46Y46*%
G04 Gerber Fmt 4.6, Leading zero omitted, Abs format (unit mm)*
G04 Created by KiCad (PCBNEW (5.1.6)-1) date 2020-11-12 12:18:02*
%MOMM*%
%LPD*%
G01*
G04 APERTURE LIST*
%TA.AperFunction,NonConductor*%
%ADD10C,0.300000*%
%TD*%
%TA.AperFunction,NonConductor*%
%ADD11C,0.150000*%
%TD*%
%TA.AperFunction,ComponentPad*%
%ADD12C,5.000000*%
%TD*%
%TA.AperFunction,ComponentPad*%
%ADD13O,1.600000X1.600000*%
%TD*%
%TA.AperFunction,ComponentPad*%
%ADD14C,1.600000*%
%TD*%
%TA.AperFunction,ComponentPad*%
%ADD15C,1.650000*%
%TD*%
%TA.AperFunction,ComponentPad*%
%ADD16C,2.400000*%
%TD*%
%TA.AperFunction,ComponentPad*%
%ADD17R,2.400000X2.400000*%
%TD*%
%TA.AperFunction,ComponentPad*%
%ADD18R,1.600000X1.600000*%
%TD*%
%TA.AperFunction,ComponentPad*%
%ADD19C,0.300000*%
%TD*%
%TA.AperFunction,SMDPad,CuDef*%
%ADD20R,2.950000X4.900000*%
%TD*%
%TA.AperFunction,SMDPad,CuDef*%
%ADD21R,1.550000X0.600000*%
%TD*%
%TA.AperFunction,ViaPad*%
%ADD22C,0.800000*%
%TD*%
%TA.AperFunction,Conductor*%
%ADD23C,0.500000*%
%TD*%
%TA.AperFunction,Conductor*%
%ADD24C,0.750000*%
%TD*%
%TA.AperFunction,Conductor*%
%ADD25C,0.250000*%
%TD*%
G04 APERTURE END LIST*
D10*
X96071428Y-153928571D02*
X95571428Y-153214285D01*
X95214285Y-153928571D02*
X95214285Y-152428571D01*
X95785714Y-152428571D01*
X95928571Y-152500000D01*
X96000000Y-152571428D01*
X96071428Y-152714285D01*
X96071428Y-152928571D01*
X96000000Y-153071428D01*
X95928571Y-153142857D01*
X95785714Y-153214285D01*
X95214285Y-153214285D01*
X96714285Y-153142857D02*
X97214285Y-153142857D01*
X97428571Y-153928571D02*
X96714285Y-153928571D01*
X96714285Y-152428571D01*
X97428571Y-152428571D01*
X97857142Y-152428571D02*
X98357142Y-153928571D01*
X98857142Y-152428571D01*
X99357142Y-153785714D02*
X99428571Y-153857142D01*
X99357142Y-153928571D01*
X99285714Y-153857142D01*
X99357142Y-153785714D01*
X99357142Y-153928571D01*
X101142857Y-153500000D02*
X101857142Y-153500000D01*
X101000000Y-153928571D02*
X101500000Y-152428571D01*
X102000000Y-153928571D01*
D11*
X61697619Y-61088095D02*
X61697619Y-60611904D01*
X62697619Y-60611904D01*
X61697619Y-61564285D02*
X61745238Y-61469047D01*
X61792857Y-61421428D01*
X61888095Y-61373809D01*
X62173809Y-61373809D01*
X62269047Y-61421428D01*
X62316666Y-61469047D01*
X62364285Y-61564285D01*
X62364285Y-61707142D01*
X62316666Y-61802380D01*
X62269047Y-61850000D01*
X62173809Y-61897619D01*
X61888095Y-61897619D01*
X61792857Y-61850000D01*
X61745238Y-61802380D01*
X61697619Y-61707142D01*
X61697619Y-61564285D01*
X62364285Y-62754761D02*
X61554761Y-62754761D01*
X61459523Y-62707142D01*
X61411904Y-62659523D01*
X61364285Y-62564285D01*
X61364285Y-62421428D01*
X61411904Y-62326190D01*
X61745238Y-62754761D02*
X61697619Y-62659523D01*
X61697619Y-62469047D01*
X61745238Y-62373809D01*
X61792857Y-62326190D01*
X61888095Y-62278571D01*
X62173809Y-62278571D01*
X62269047Y-62326190D01*
X62316666Y-62373809D01*
X62364285Y-62469047D01*
X62364285Y-62659523D01*
X62316666Y-62754761D01*
X61697619Y-63659523D02*
X62221428Y-63659523D01*
X62316666Y-63611904D01*
X62364285Y-63516666D01*
X62364285Y-63326190D01*
X62316666Y-63230952D01*
X61745238Y-63659523D02*
X61697619Y-63564285D01*
X61697619Y-63326190D01*
X61745238Y-63230952D01*
X61840476Y-63183333D01*
X61935714Y-63183333D01*
X62030952Y-63230952D01*
X62078571Y-63326190D01*
X62078571Y-63564285D01*
X62126190Y-63659523D01*
X62364285Y-64135714D02*
X61697619Y-64135714D01*
X62269047Y-64135714D02*
X62316666Y-64183333D01*
X62364285Y-64278571D01*
X62364285Y-64421428D01*
X62316666Y-64516666D01*
X62221428Y-64564285D01*
X61697619Y-64564285D01*
X61745238Y-65754761D02*
X61697619Y-65897619D01*
X61697619Y-66135714D01*
X61745238Y-66230952D01*
X61792857Y-66278571D01*
X61888095Y-66326190D01*
X61983333Y-66326190D01*
X62078571Y-66278571D01*
X62126190Y-66230952D01*
X62173809Y-66135714D01*
X62221428Y-65945238D01*
X62269047Y-65850000D01*
X62316666Y-65802380D01*
X62411904Y-65754761D01*
X62507142Y-65754761D01*
X62602380Y-65802380D01*
X62650000Y-65850000D01*
X62697619Y-65945238D01*
X62697619Y-66183333D01*
X62650000Y-66326190D01*
X61745238Y-67183333D02*
X61697619Y-67088095D01*
X61697619Y-66897619D01*
X61745238Y-66802380D01*
X61792857Y-66754761D01*
X61888095Y-66707142D01*
X62173809Y-66707142D01*
X62269047Y-66754761D01*
X62316666Y-66802380D01*
X62364285Y-66897619D01*
X62364285Y-67088095D01*
X62316666Y-67183333D01*
X61697619Y-67611904D02*
X62697619Y-67611904D01*
X61697619Y-68040476D02*
X62221428Y-68040476D01*
X62316666Y-67992857D01*
X62364285Y-67897619D01*
X62364285Y-67754761D01*
X62316666Y-67659523D01*
X62269047Y-67611904D01*
X61697619Y-68659523D02*
X61745238Y-68564285D01*
X61792857Y-68516666D01*
X61888095Y-68469047D01*
X62173809Y-68469047D01*
X62269047Y-68516666D01*
X62316666Y-68564285D01*
X62364285Y-68659523D01*
X62364285Y-68802380D01*
X62316666Y-68897619D01*
X62269047Y-68945238D01*
X62173809Y-68992857D01*
X61888095Y-68992857D01*
X61792857Y-68945238D01*
X61745238Y-68897619D01*
X61697619Y-68802380D01*
X61697619Y-68659523D01*
X61697619Y-69564285D02*
X61745238Y-69469047D01*
X61840476Y-69421428D01*
X62697619Y-69421428D01*
X62364285Y-69850000D02*
X62364285Y-70373809D01*
X61697619Y-69850000D01*
X61697619Y-70373809D01*
X62602380Y-71469047D02*
X62650000Y-71516666D01*
X62697619Y-71611904D01*
X62697619Y-71850000D01*
X62650000Y-71945238D01*
X62602380Y-71992857D01*
X62507142Y-72040476D01*
X62411904Y-72040476D01*
X62269047Y-71992857D01*
X61697619Y-71421428D01*
X61697619Y-72040476D01*
X62697619Y-72659523D02*
X62697619Y-72754761D01*
X62650000Y-72850000D01*
X62602380Y-72897619D01*
X62507142Y-72945238D01*
X62316666Y-72992857D01*
X62078571Y-72992857D01*
X61888095Y-72945238D01*
X61792857Y-72897619D01*
X61745238Y-72850000D01*
X61697619Y-72754761D01*
X61697619Y-72659523D01*
X61745238Y-72564285D01*
X61792857Y-72516666D01*
X61888095Y-72469047D01*
X62078571Y-72421428D01*
X62316666Y-72421428D01*
X62507142Y-72469047D01*
X62602380Y-72516666D01*
X62650000Y-72564285D01*
X62697619Y-72659523D01*
X62602380Y-73373809D02*
X62650000Y-73421428D01*
X62697619Y-73516666D01*
X62697619Y-73754761D01*
X62650000Y-73850000D01*
X62602380Y-73897619D01*
X62507142Y-73945238D01*
X62411904Y-73945238D01*
X62269047Y-73897619D01*
X61697619Y-73326190D01*
X61697619Y-73945238D01*
X62697619Y-74564285D02*
X62697619Y-74659523D01*
X62650000Y-74754761D01*
X62602380Y-74802380D01*
X62507142Y-74850000D01*
X62316666Y-74897619D01*
X62078571Y-74897619D01*
X61888095Y-74850000D01*
X61792857Y-74802380D01*
X61745238Y-74754761D01*
X61697619Y-74659523D01*
X61697619Y-74564285D01*
X61745238Y-74469047D01*
X61792857Y-74421428D01*
X61888095Y-74373809D01*
X62078571Y-74326190D01*
X62316666Y-74326190D01*
X62507142Y-74373809D01*
X62602380Y-74421428D01*
X62650000Y-74469047D01*
X62697619Y-74564285D01*
X62078571Y-76088095D02*
X62078571Y-76850000D01*
X61697619Y-78088095D02*
X62697619Y-78088095D01*
X61697619Y-78659523D01*
X62697619Y-78659523D01*
X61745238Y-79516666D02*
X61697619Y-79421428D01*
X61697619Y-79230952D01*
X61745238Y-79135714D01*
X61840476Y-79088095D01*
X62221428Y-79088095D01*
X62316666Y-79135714D01*
X62364285Y-79230952D01*
X62364285Y-79421428D01*
X62316666Y-79516666D01*
X62221428Y-79564285D01*
X62126190Y-79564285D01*
X62030952Y-79088095D01*
X61745238Y-80373809D02*
X61697619Y-80278571D01*
X61697619Y-80088095D01*
X61745238Y-79992857D01*
X61840476Y-79945238D01*
X62221428Y-79945238D01*
X62316666Y-79992857D01*
X62364285Y-80088095D01*
X62364285Y-80278571D01*
X62316666Y-80373809D01*
X62221428Y-80421428D01*
X62126190Y-80421428D01*
X62030952Y-79945238D01*
X61697619Y-80850000D02*
X62364285Y-80850000D01*
X62269047Y-80850000D02*
X62316666Y-80897619D01*
X62364285Y-80992857D01*
X62364285Y-81135714D01*
X62316666Y-81230952D01*
X62221428Y-81278571D01*
X61697619Y-81278571D01*
X62221428Y-81278571D02*
X62316666Y-81326190D01*
X62364285Y-81421428D01*
X62364285Y-81564285D01*
X62316666Y-81659523D01*
X62221428Y-81707142D01*
X61697619Y-81707142D01*
X61745238Y-82564285D02*
X61697619Y-82469047D01*
X61697619Y-82278571D01*
X61745238Y-82183333D01*
X61840476Y-82135714D01*
X62221428Y-82135714D01*
X62316666Y-82183333D01*
X62364285Y-82278571D01*
X62364285Y-82469047D01*
X62316666Y-82564285D01*
X62221428Y-82611904D01*
X62126190Y-82611904D01*
X62030952Y-82135714D01*
X61745238Y-83754761D02*
X61697619Y-83897619D01*
X61697619Y-84135714D01*
X61745238Y-84230952D01*
X61792857Y-84278571D01*
X61888095Y-84326190D01*
X61983333Y-84326190D01*
X62078571Y-84278571D01*
X62126190Y-84230952D01*
X62173809Y-84135714D01*
X62221428Y-83945238D01*
X62269047Y-83850000D01*
X62316666Y-83802380D01*
X62411904Y-83754761D01*
X62507142Y-83754761D01*
X62602380Y-83802380D01*
X62650000Y-83850000D01*
X62697619Y-83945238D01*
X62697619Y-84183333D01*
X62650000Y-84326190D01*
X62364285Y-84659523D02*
X61697619Y-84897619D01*
X62364285Y-85135714D02*
X61697619Y-84897619D01*
X61459523Y-84802380D01*
X61411904Y-84754761D01*
X61364285Y-84659523D01*
X61745238Y-85469047D02*
X61697619Y-85564285D01*
X61697619Y-85754761D01*
X61745238Y-85850000D01*
X61840476Y-85897619D01*
X61888095Y-85897619D01*
X61983333Y-85850000D01*
X62030952Y-85754761D01*
X62030952Y-85611904D01*
X62078571Y-85516666D01*
X62173809Y-85469047D01*
X62221428Y-85469047D01*
X62316666Y-85516666D01*
X62364285Y-85611904D01*
X62364285Y-85754761D01*
X62316666Y-85850000D01*
X62364285Y-86183333D02*
X62364285Y-86564285D01*
X62697619Y-86326190D02*
X61840476Y-86326190D01*
X61745238Y-86373809D01*
X61697619Y-86469047D01*
X61697619Y-86564285D01*
X61745238Y-87278571D02*
X61697619Y-87183333D01*
X61697619Y-86992857D01*
X61745238Y-86897619D01*
X61840476Y-86850000D01*
X62221428Y-86850000D01*
X62316666Y-86897619D01*
X62364285Y-86992857D01*
X62364285Y-87183333D01*
X62316666Y-87278571D01*
X62221428Y-87326190D01*
X62126190Y-87326190D01*
X62030952Y-86850000D01*
X61697619Y-87754761D02*
X62364285Y-87754761D01*
X62269047Y-87754761D02*
X62316666Y-87802380D01*
X62364285Y-87897619D01*
X62364285Y-88040476D01*
X62316666Y-88135714D01*
X62221428Y-88183333D01*
X61697619Y-88183333D01*
X62221428Y-88183333D02*
X62316666Y-88230952D01*
X62364285Y-88326190D01*
X62364285Y-88469047D01*
X62316666Y-88564285D01*
X62221428Y-88611904D01*
X61697619Y-88611904D01*
X61745238Y-89040476D02*
X61697619Y-89135714D01*
X61697619Y-89326190D01*
X61745238Y-89421428D01*
X61840476Y-89469047D01*
X61888095Y-89469047D01*
X61983333Y-89421428D01*
X62030952Y-89326190D01*
X62030952Y-89183333D01*
X62078571Y-89088095D01*
X62173809Y-89040476D01*
X62221428Y-89040476D01*
X62316666Y-89088095D01*
X62364285Y-89183333D01*
X62364285Y-89326190D01*
X62316666Y-89421428D01*
X61745238Y-90611904D02*
X61697619Y-90754761D01*
X61697619Y-90992857D01*
X61745238Y-91088095D01*
X61792857Y-91135714D01*
X61888095Y-91183333D01*
X61983333Y-91183333D01*
X62078571Y-91135714D01*
X62126190Y-91088095D01*
X62173809Y-90992857D01*
X62221428Y-90802380D01*
X62269047Y-90707142D01*
X62316666Y-90659523D01*
X62411904Y-90611904D01*
X62507142Y-90611904D01*
X62602380Y-90659523D01*
X62650000Y-90707142D01*
X62697619Y-90802380D01*
X62697619Y-91040476D01*
X62650000Y-91183333D01*
X61697619Y-91754761D02*
X61745238Y-91659523D01*
X61792857Y-91611904D01*
X61888095Y-91564285D01*
X62173809Y-91564285D01*
X62269047Y-91611904D01*
X62316666Y-91659523D01*
X62364285Y-91754761D01*
X62364285Y-91897619D01*
X62316666Y-91992857D01*
X62269047Y-92040476D01*
X62173809Y-92088095D01*
X61888095Y-92088095D01*
X61792857Y-92040476D01*
X61745238Y-91992857D01*
X61697619Y-91897619D01*
X61697619Y-91754761D01*
X61697619Y-92659523D02*
X61745238Y-92564285D01*
X61840476Y-92516666D01*
X62697619Y-92516666D01*
X62364285Y-93469047D02*
X61697619Y-93469047D01*
X62364285Y-93040476D02*
X61840476Y-93040476D01*
X61745238Y-93088095D01*
X61697619Y-93183333D01*
X61697619Y-93326190D01*
X61745238Y-93421428D01*
X61792857Y-93469047D01*
X62364285Y-93802380D02*
X62364285Y-94183333D01*
X62697619Y-93945238D02*
X61840476Y-93945238D01*
X61745238Y-93992857D01*
X61697619Y-94088095D01*
X61697619Y-94183333D01*
X61697619Y-94516666D02*
X62364285Y-94516666D01*
X62697619Y-94516666D02*
X62650000Y-94469047D01*
X62602380Y-94516666D01*
X62650000Y-94564285D01*
X62697619Y-94516666D01*
X62602380Y-94516666D01*
X61697619Y-95135714D02*
X61745238Y-95040476D01*
X61792857Y-94992857D01*
X61888095Y-94945238D01*
X62173809Y-94945238D01*
X62269047Y-94992857D01*
X62316666Y-95040476D01*
X62364285Y-95135714D01*
X62364285Y-95278571D01*
X62316666Y-95373809D01*
X62269047Y-95421428D01*
X62173809Y-95469047D01*
X61888095Y-95469047D01*
X61792857Y-95421428D01*
X61745238Y-95373809D01*
X61697619Y-95278571D01*
X61697619Y-95135714D01*
X62364285Y-95897619D02*
X61697619Y-95897619D01*
X62269047Y-95897619D02*
X62316666Y-95945238D01*
X62364285Y-96040476D01*
X62364285Y-96183333D01*
X62316666Y-96278571D01*
X62221428Y-96326190D01*
X61697619Y-96326190D01*
X61745238Y-96754761D02*
X61697619Y-96849999D01*
X61697619Y-97040476D01*
X61745238Y-97135714D01*
X61840476Y-97183333D01*
X61888095Y-97183333D01*
X61983333Y-97135714D01*
X62030952Y-97040476D01*
X62030952Y-96897619D01*
X62078571Y-96802380D01*
X62173809Y-96754761D01*
X62221428Y-96754761D01*
X62316666Y-96802380D01*
X62364285Y-96897619D01*
X62364285Y-97040476D01*
X62316666Y-97135714D01*
X61745238Y-97659523D02*
X61697619Y-97659523D01*
X61602380Y-97611904D01*
X61554761Y-97564285D01*
X61697619Y-98849999D02*
X62697619Y-98849999D01*
X62364285Y-99326190D02*
X61697619Y-99326190D01*
X62269047Y-99326190D02*
X62316666Y-99373809D01*
X62364285Y-99469047D01*
X62364285Y-99611904D01*
X62316666Y-99707142D01*
X62221428Y-99754761D01*
X61697619Y-99754761D01*
X61745238Y-100659523D02*
X61697619Y-100564285D01*
X61697619Y-100373809D01*
X61745238Y-100278571D01*
X61792857Y-100230952D01*
X61888095Y-100183333D01*
X62173809Y-100183333D01*
X62269047Y-100230952D01*
X62316666Y-100278571D01*
X62364285Y-100373809D01*
X62364285Y-100564285D01*
X62316666Y-100659523D01*
X61792857Y-101088095D02*
X61745238Y-101135714D01*
X61697619Y-101088095D01*
X61745238Y-101040476D01*
X61792857Y-101088095D01*
X61697619Y-101088095D01*
D10*
X76785714Y-146854761D02*
X77166666Y-146854761D01*
X77357142Y-146950000D01*
X77547619Y-147140476D01*
X77642857Y-147521428D01*
X77642857Y-148188095D01*
X77547619Y-148569047D01*
X77357142Y-148759523D01*
X77166666Y-148854761D01*
X76785714Y-148854761D01*
X76595238Y-148759523D01*
X76404761Y-148569047D01*
X76309523Y-148188095D01*
X76309523Y-147521428D01*
X76404761Y-147140476D01*
X76595238Y-146950000D01*
X76785714Y-146854761D01*
X78499999Y-148854761D02*
X78499999Y-146854761D01*
X79261904Y-146854761D01*
X79452380Y-146950000D01*
X79547619Y-147045238D01*
X79642857Y-147235714D01*
X79642857Y-147521428D01*
X79547619Y-147711904D01*
X79452380Y-147807142D01*
X79261904Y-147902380D01*
X78499999Y-147902380D01*
X80404761Y-148283333D02*
X81357142Y-148283333D01*
X80214285Y-148854761D02*
X80880952Y-146854761D01*
X81547619Y-148854761D01*
X83071428Y-147521428D02*
X83071428Y-148854761D01*
X82595238Y-146759523D02*
X82119047Y-148188095D01*
X83357142Y-148188095D01*
X85071428Y-146854761D02*
X84119047Y-146854761D01*
X84023809Y-147807142D01*
X84119047Y-147711904D01*
X84309523Y-147616666D01*
X84785714Y-147616666D01*
X84976190Y-147711904D01*
X85071428Y-147807142D01*
X85166666Y-147997619D01*
X85166666Y-148473809D01*
X85071428Y-148664285D01*
X84976190Y-148759523D01*
X84785714Y-148854761D01*
X84309523Y-148854761D01*
X84119047Y-148759523D01*
X84023809Y-148664285D01*
X86880952Y-147521428D02*
X86880952Y-148854761D01*
X86404761Y-146759523D02*
X85928571Y-148188095D01*
X87166666Y-148188095D01*
X89357142Y-148759523D02*
X89642857Y-148854761D01*
X90119047Y-148854761D01*
X90309523Y-148759523D01*
X90404761Y-148664285D01*
X90499999Y-148473809D01*
X90499999Y-148283333D01*
X90404761Y-148092857D01*
X90309523Y-147997619D01*
X90119047Y-147902380D01*
X89738095Y-147807142D01*
X89547619Y-147711904D01*
X89452380Y-147616666D01*
X89357142Y-147426190D01*
X89357142Y-147235714D01*
X89452380Y-147045238D01*
X89547619Y-146950000D01*
X89738095Y-146854761D01*
X90214285Y-146854761D01*
X90499999Y-146950000D01*
X91357142Y-148854761D02*
X91357142Y-147521428D01*
X91357142Y-147711904D02*
X91452380Y-147616666D01*
X91642857Y-147521428D01*
X91928571Y-147521428D01*
X92119047Y-147616666D01*
X92214285Y-147807142D01*
X92214285Y-148854761D01*
X92214285Y-147807142D02*
X92309523Y-147616666D01*
X92499999Y-147521428D01*
X92785714Y-147521428D01*
X92976190Y-147616666D01*
X93071428Y-147807142D01*
X93071428Y-148854761D01*
X94880952Y-148854761D02*
X94880952Y-147807142D01*
X94785714Y-147616666D01*
X94595238Y-147521428D01*
X94214285Y-147521428D01*
X94023809Y-147616666D01*
X94880952Y-148759523D02*
X94690476Y-148854761D01*
X94214285Y-148854761D01*
X94023809Y-148759523D01*
X93928571Y-148569047D01*
X93928571Y-148378571D01*
X94023809Y-148188095D01*
X94214285Y-148092857D01*
X94690476Y-148092857D01*
X94880952Y-147997619D01*
X96119047Y-148854761D02*
X95928571Y-148759523D01*
X95833333Y-148569047D01*
X95833333Y-146854761D01*
X97166666Y-148854761D02*
X96976190Y-148759523D01*
X96880952Y-148569047D01*
X96880952Y-146854761D01*
X99357142Y-148759523D02*
X99642857Y-148854761D01*
X100119047Y-148854761D01*
X100309523Y-148759523D01*
X100404761Y-148664285D01*
X100499999Y-148473809D01*
X100499999Y-148283333D01*
X100404761Y-148092857D01*
X100309523Y-147997619D01*
X100119047Y-147902380D01*
X99738095Y-147807142D01*
X99547619Y-147711904D01*
X99452380Y-147616666D01*
X99357142Y-147426190D01*
X99357142Y-147235714D01*
X99452380Y-147045238D01*
X99547619Y-146950000D01*
X99738095Y-146854761D01*
X100214285Y-146854761D01*
X100499999Y-146950000D01*
X101357142Y-148854761D02*
X101357142Y-147521428D01*
X101357142Y-146854761D02*
X101261904Y-146950000D01*
X101357142Y-147045238D01*
X101452380Y-146950000D01*
X101357142Y-146854761D01*
X101357142Y-147045238D01*
X103166666Y-147521428D02*
X103166666Y-149140476D01*
X103071428Y-149330952D01*
X102976190Y-149426190D01*
X102785714Y-149521428D01*
X102499999Y-149521428D01*
X102309523Y-149426190D01*
X103166666Y-148759523D02*
X102976190Y-148854761D01*
X102595238Y-148854761D01*
X102404761Y-148759523D01*
X102309523Y-148664285D01*
X102214285Y-148473809D01*
X102214285Y-147902380D01*
X102309523Y-147711904D01*
X102404761Y-147616666D01*
X102595238Y-147521428D01*
X102976190Y-147521428D01*
X103166666Y-147616666D01*
X104119047Y-147521428D02*
X104119047Y-148854761D01*
X104119047Y-147711904D02*
X104214285Y-147616666D01*
X104404761Y-147521428D01*
X104690476Y-147521428D01*
X104880952Y-147616666D01*
X104976190Y-147807142D01*
X104976190Y-148854761D01*
X106785714Y-148854761D02*
X106785714Y-147807142D01*
X106690476Y-147616666D01*
X106499999Y-147521428D01*
X106119047Y-147521428D01*
X105928571Y-147616666D01*
X106785714Y-148759523D02*
X106595238Y-148854761D01*
X106119047Y-148854761D01*
X105928571Y-148759523D01*
X105833333Y-148569047D01*
X105833333Y-148378571D01*
X105928571Y-148188095D01*
X106119047Y-148092857D01*
X106595238Y-148092857D01*
X106785714Y-147997619D01*
X108023809Y-148854761D02*
X107833333Y-148759523D01*
X107738095Y-148569047D01*
X107738095Y-146854761D01*
X110214285Y-148283333D02*
X111166666Y-148283333D01*
X110023809Y-148854761D02*
X110690476Y-146854761D01*
X111357142Y-148854761D01*
X112023809Y-148854761D02*
X112023809Y-147521428D01*
X112023809Y-147711904D02*
X112119047Y-147616666D01*
X112309523Y-147521428D01*
X112595238Y-147521428D01*
X112785714Y-147616666D01*
X112880952Y-147807142D01*
X112880952Y-148854761D01*
X112880952Y-147807142D02*
X112976190Y-147616666D01*
X113166666Y-147521428D01*
X113452380Y-147521428D01*
X113642857Y-147616666D01*
X113738095Y-147807142D01*
X113738095Y-148854761D01*
X114690476Y-147521428D02*
X114690476Y-149521428D01*
X114690476Y-147616666D02*
X114880952Y-147521428D01*
X115261904Y-147521428D01*
X115452380Y-147616666D01*
X115547619Y-147711904D01*
X115642857Y-147902380D01*
X115642857Y-148473809D01*
X115547619Y-148664285D01*
X115452380Y-148759523D01*
X115261904Y-148854761D01*
X114880952Y-148854761D01*
X114690476Y-148759523D01*
X116785714Y-148854761D02*
X116595238Y-148759523D01*
X116499999Y-148569047D01*
X116499999Y-146854761D01*
X117547619Y-148854761D02*
X117547619Y-147521428D01*
X117547619Y-146854761D02*
X117452380Y-146950000D01*
X117547619Y-147045238D01*
X117642857Y-146950000D01*
X117547619Y-146854761D01*
X117547619Y-147045238D01*
X118214285Y-147521428D02*
X118976190Y-147521428D01*
X118499999Y-148854761D02*
X118499999Y-147140476D01*
X118595238Y-146950000D01*
X118785714Y-146854761D01*
X118976190Y-146854761D01*
X119642857Y-148854761D02*
X119642857Y-147521428D01*
X119642857Y-146854761D02*
X119547619Y-146950000D01*
X119642857Y-147045238D01*
X119738095Y-146950000D01*
X119642857Y-146854761D01*
X119642857Y-147045238D01*
X121357142Y-148759523D02*
X121166666Y-148854761D01*
X120785714Y-148854761D01*
X120595238Y-148759523D01*
X120499999Y-148569047D01*
X120499999Y-147807142D01*
X120595238Y-147616666D01*
X120785714Y-147521428D01*
X121166666Y-147521428D01*
X121357142Y-147616666D01*
X121452380Y-147807142D01*
X121452380Y-147997619D01*
X120499999Y-148188095D01*
X122309523Y-148854761D02*
X122309523Y-147521428D01*
X122309523Y-147902380D02*
X122404761Y-147711904D01*
X122499999Y-147616666D01*
X122690476Y-147521428D01*
X122880952Y-147521428D01*
D12*
%TO.P,H4,1*%
%TO.N,N/C*%
X142250000Y-158250000D03*
%TD*%
%TO.P,H3,1*%
%TO.N,N/C*%
X142250000Y-37600000D03*
%TD*%
%TO.P,H2,1*%
%TO.N,N/C*%
X59700000Y-158250000D03*
%TD*%
%TO.P,H1,1*%
%TO.N,N/C*%
X59700000Y-37600000D03*
%TD*%
D13*
%TO.P,R3,2*%
%TO.N,Net-(R2-Pad1)*%
X84316000Y-90765000D03*
D14*
%TO.P,R3,1*%
%TO.N,Net-(C5-Pad1)*%
X84316000Y-100925000D03*
%TD*%
D13*
%TO.P,R2,2*%
%TO.N,SIG_BIAS*%
X89396000Y-100925000D03*
D14*
%TO.P,R2,1*%
%TO.N,Net-(R2-Pad1)*%
X89396000Y-90765000D03*
%TD*%
D15*
%TO.P,U2,4*%
%TO.N,V-*%
X94285500Y-70826000D03*
%TO.P,U2,5*%
%TO.N,Net-(U2-Pad5)*%
X99365500Y-70826000D03*
%TO.P,U2,3*%
%TO.N,V+*%
X104445500Y-70826000D03*
%TO.P,U2,6*%
%TO.N,Net-(U2-Pad6)*%
X96825500Y-61936000D03*
%TO.P,U2,2*%
%TO.N,5V_IN*%
X100635500Y-61936000D03*
%TO.P,U2,1*%
%TO.N,5V_GND*%
X104445500Y-61936000D03*
%TD*%
D13*
%TO.P,R7,2*%
%TO.N,V+*%
X117463000Y-102385500D03*
D14*
%TO.P,R7,1*%
%TO.N,Net-(R7-Pad1)*%
X117463000Y-122705500D03*
%TD*%
D13*
%TO.P,R6,2*%
%TO.N,Net-(C2-Pad2)*%
X90475500Y-116990500D03*
D14*
%TO.P,R6,1*%
%TO.N,SIG_BIAS*%
X70155500Y-116990500D03*
%TD*%
D13*
%TO.P,R5,2*%
%TO.N,V-*%
X90475500Y-121753000D03*
D14*
%TO.P,R5,1*%
%TO.N,SIG_BIAS*%
X70155500Y-121753000D03*
%TD*%
D13*
%TO.P,R4,2*%
%TO.N,V+*%
X123114500Y-102449000D03*
D14*
%TO.P,R4,1*%
%TO.N,Net-(R4-Pad1)*%
X123114500Y-122769000D03*
%TD*%
D13*
%TO.P,R1,2*%
%TO.N,SIG_BIAS*%
X76823000Y-110958000D03*
D14*
%TO.P,R1,1*%
%TO.N,V+*%
X76823000Y-90638000D03*
%TD*%
D16*
%TO.P,J1,4*%
%TO.N,+SIG_IN*%
X97350000Y-39800000D03*
%TO.P,J1,3*%
%TO.N,5V_IN*%
X100850000Y-39800000D03*
%TO.P,J1,2*%
%TO.N,5V_GND*%
X104350000Y-39800000D03*
D17*
%TO.P,J1,1*%
%TO.N,SIG_OUT*%
X107850000Y-39800000D03*
%TD*%
D14*
%TO.P,C5,2*%
%TO.N,SIG_OUT*%
X108509500Y-105656000D03*
D18*
%TO.P,C5,1*%
%TO.N,Net-(C5-Pad1)*%
X108509500Y-107656000D03*
%TD*%
D14*
%TO.P,C4,2*%
%TO.N,V-*%
X97725966Y-101869500D03*
D18*
%TO.P,C4,1*%
%TO.N,V+*%
X99725966Y-101869500D03*
%TD*%
D14*
%TO.P,C3,2*%
%TO.N,V-*%
X97500500Y-91971500D03*
D18*
%TO.P,C3,1*%
%TO.N,V+*%
X100000500Y-91971500D03*
%TD*%
D14*
%TO.P,C2,2*%
%TO.N,Net-(C2-Pad2)*%
X87237000Y-110029000D03*
D18*
%TO.P,C2,1*%
%TO.N,+SIG_IN*%
X87237000Y-107529000D03*
%TD*%
D14*
%TO.P,C1,2*%
%TO.N,V-*%
X80100000Y-131200000D03*
D18*
%TO.P,C1,1*%
%TO.N,SIG_BIAS*%
X80100000Y-128700000D03*
%TD*%
D19*
%TO.P,U1,17*%
%TO.N,V-*%
X99444000Y-113416000D03*
%TO.P,U1,16*%
X98144000Y-113416000D03*
%TO.P,U1,15*%
X99444000Y-112116000D03*
%TO.P,U1,14*%
X98144000Y-112116000D03*
%TO.P,U1,13*%
X99444000Y-110816000D03*
%TO.P,U1,12*%
X98144000Y-110816000D03*
%TO.P,U1,11*%
X99444000Y-109516000D03*
%TO.P,U1,10*%
X98144000Y-109516000D03*
D20*
%TO.P,U1,9*%
X98794000Y-111466000D03*
D21*
%TO.P,U1,8*%
%TO.N,Net-(R7-Pad1)*%
X101494000Y-109561000D03*
%TO.P,U1,7*%
%TO.N,V+*%
X101494000Y-110831000D03*
%TO.P,U1,6*%
%TO.N,Net-(C5-Pad1)*%
X101494000Y-112101000D03*
%TO.P,U1,5*%
%TO.N,Net-(R4-Pad1)*%
X101494000Y-113371000D03*
%TO.P,U1,4*%
%TO.N,V-*%
X96094000Y-113371000D03*
%TO.P,U1,3*%
%TO.N,Net-(C2-Pad2)*%
X96094000Y-112101000D03*
%TO.P,U1,2*%
%TO.N,Net-(R2-Pad1)*%
X96094000Y-110831000D03*
%TO.P,U1,1*%
%TO.N,V-*%
X96094000Y-109561000D03*
%TD*%
D22*
%TO.N,V-*%
X93904500Y-113879000D03*
X96094000Y-108004000D03*
%TO.N,+SIG_IN*%
X80550000Y-85225000D03*
X80550000Y-101750000D03*
%TO.N,SIG_OUT*%
X113425000Y-103800000D03*
X114700000Y-98250000D03*
%TO.N,Net-(R7-Pad1)*%
X101494000Y-106988000D03*
%TD*%
D23*
%TO.N,V+*%
X117526500Y-102449000D02*
X117463000Y-102385500D01*
X123114500Y-102449000D02*
X117526500Y-102449000D01*
X116947000Y-101869500D02*
X117463000Y-102385500D01*
X104445500Y-70826000D02*
X104445500Y-82700500D01*
X104445500Y-82700500D02*
X100000500Y-87145500D01*
X100000500Y-87145500D02*
X100000500Y-91971500D01*
X101494000Y-110831000D02*
X104382000Y-110831000D01*
X104644000Y-110569000D02*
X104644000Y-101869500D01*
X104382000Y-110831000D02*
X104644000Y-110569000D01*
X99725966Y-101869500D02*
X104644000Y-101869500D01*
X104644000Y-101869500D02*
X116947000Y-101869500D01*
X100733966Y-100861500D02*
X100733966Y-94292466D01*
X100733966Y-92704966D02*
X100000500Y-91971500D01*
X100733966Y-94292466D02*
X100733966Y-92704966D01*
X100733966Y-100861500D02*
X99725966Y-101869500D01*
X76823000Y-90638000D02*
X78525000Y-88936000D01*
X97011000Y-88936000D02*
X100000500Y-91925500D01*
X100000500Y-91925500D02*
X100000500Y-91971500D01*
X78525000Y-88936000D02*
X97011000Y-88936000D01*
%TO.N,V-*%
X96094000Y-113371000D02*
X94412500Y-113371000D01*
X93904500Y-113879000D02*
X93904500Y-113879000D01*
X94412500Y-113371000D02*
X93904500Y-113879000D01*
X96094000Y-108004000D02*
X96094000Y-108004000D01*
X96094000Y-109561000D02*
X96094000Y-108004000D01*
%TO.N,Net-(R4-Pad1)*%
X123114500Y-122769000D02*
X123114500Y-116165000D01*
X123114500Y-116165000D02*
X120320500Y-113371000D01*
X120320500Y-113371000D02*
X101494000Y-113371000D01*
D24*
%TO.N,SIG_BIAS*%
X70155500Y-116990500D02*
X70155500Y-121753000D01*
X76188000Y-110958000D02*
X76823000Y-110958000D01*
X70155500Y-116990500D02*
X76188000Y-110958000D01*
X89396000Y-100925000D02*
X89396000Y-98171000D01*
X89396000Y-98171000D02*
X88300000Y-97075000D01*
X88300000Y-97075000D02*
X77525000Y-97075000D01*
X76823000Y-97777000D02*
X76823000Y-110958000D01*
X77525000Y-97075000D02*
X76823000Y-97777000D01*
X70155500Y-121753000D02*
X79503000Y-121753000D01*
X80100000Y-122350000D02*
X80100000Y-128700000D01*
X79503000Y-121753000D02*
X80100000Y-122350000D01*
D23*
%TO.N,Net-(C2-Pad2)*%
X89332500Y-112124500D02*
X87237000Y-110029000D01*
X96094000Y-112101000D02*
X96070500Y-112124500D01*
X96070500Y-112124500D02*
X90562500Y-112124500D01*
X90475500Y-112211500D02*
X90562500Y-112124500D01*
X90475500Y-116990500D02*
X90475500Y-112211500D01*
X90562500Y-112124500D02*
X89332500Y-112124500D01*
D25*
%TO.N,+SIG_IN*%
X97247500Y-41489000D02*
X89161000Y-41489000D01*
X89161000Y-41489000D02*
X80450000Y-50200000D01*
X80450000Y-50200000D02*
X80450000Y-85125000D01*
X80450000Y-85125000D02*
X80550000Y-85225000D01*
X81458000Y-101750000D02*
X87237000Y-107529000D01*
X80550000Y-101750000D02*
X81458000Y-101750000D01*
X97247500Y-39902500D02*
X97350000Y-39800000D01*
X97247500Y-41489000D02*
X97247500Y-39902500D01*
%TO.N,SIG_OUT*%
X113425000Y-103800000D02*
X113425000Y-105075000D01*
X112844000Y-105656000D02*
X108509500Y-105656000D01*
X113425000Y-105075000D02*
X112844000Y-105656000D01*
X113839000Y-41489000D02*
X107747500Y-41489000D01*
X114700000Y-98250000D02*
X114675000Y-42200000D01*
X114675000Y-42200000D02*
X113839000Y-41489000D01*
X107747500Y-39902500D02*
X107850000Y-39800000D01*
X107747500Y-41489000D02*
X107747500Y-39902500D01*
D23*
%TO.N,Net-(C5-Pad1)*%
X101494000Y-112101000D02*
X106985500Y-112101000D01*
X106985500Y-112101000D02*
X107811000Y-112101000D01*
X107811000Y-112101000D02*
X108509500Y-111402500D01*
X108509500Y-111402500D02*
X108509500Y-107656000D01*
D25*
%TO.N,5V_IN*%
X100747500Y-39902500D02*
X100850000Y-39800000D01*
X100635500Y-61936000D02*
X100747500Y-61824000D01*
D23*
X100747500Y-61824000D02*
X100747500Y-39902500D01*
D25*
%TO.N,5V_GND*%
X104247500Y-39902500D02*
X104350000Y-39800000D01*
X104445500Y-61936000D02*
X104247500Y-61738000D01*
D23*
X104247500Y-61738000D02*
X104247500Y-39902500D01*
%TO.N,Net-(R2-Pad1)*%
X89396000Y-90765000D02*
X84316000Y-90765000D01*
X89396000Y-90765000D02*
X92340000Y-90765000D01*
X92340000Y-90765000D02*
X93000000Y-91425000D01*
X96094000Y-110831000D02*
X93806000Y-110831000D01*
X93000000Y-110025000D02*
X93000000Y-108575000D01*
X93806000Y-110831000D02*
X93000000Y-110025000D01*
X93000000Y-91425000D02*
X93000000Y-108575000D01*
X93000000Y-108575000D02*
X93000000Y-108762000D01*
%TO.N,Net-(R7-Pad1)*%
X101494000Y-109561000D02*
X101494000Y-106988000D01*
D25*
X101494000Y-106988000D02*
X101494000Y-106988000D01*
X101494000Y-106988000D02*
X101494000Y-106988000D01*
%TD*%
M02*
