M48
; DRILL file {KiCad (5.1.6)-1} date 11/12/20 12:18:18
; FORMAT={-:-/ absolute / inch / decimal}
; #@! TF.CreationDate,2020-11-12T12:18:18-07:00
; #@! TF.GenerationSoftware,Kicad,Pcbnew,(5.1.6)-1
FMAT,2
INCH
T1C0.0079
T2C0.0157
T3C0.0315
T4C0.0429
T5C0.0472
T6C0.0906
%
G90
G05
T1
X3.8639Y-4.3117
X3.8639Y-4.3628
X3.8639Y-4.414
X3.8639Y-4.4652
X3.9151Y-4.3117
X3.9151Y-4.3628
X3.9151Y-4.414
X3.9151Y-4.4652
T2
X3.1713Y-3.3553
X3.1713Y-4.0059
X3.697Y-4.4834
X3.7832Y-4.2521
X3.9958Y-4.2121
X4.4656Y-4.0866
X4.5157Y-3.8681
T3
X3.8475Y-4.0106
X3.9262Y-4.0106
X4.847Y-4.0334
X4.847Y-4.8334
X4.6245Y-4.0309
X4.6245Y-4.8309
X2.762Y-4.6059
X3.562Y-4.6059
X3.4345Y-4.2334
X3.4345Y-4.3319
X4.272Y-4.1597
X4.272Y-4.2384
X3.5195Y-3.5734
X3.5195Y-3.9734
X3.3195Y-3.5734
X3.3195Y-3.9734
X3.1535Y-5.0669
X3.1535Y-5.1654
X2.762Y-4.7934
X3.562Y-4.7934
X3.8386Y-3.6209
X3.937Y-3.6209
X3.0245Y-3.5684
X3.0245Y-4.3684
T4
X3.712Y-2.7884
X3.812Y-2.4384
X3.912Y-2.7884
X3.962Y-2.4384
X4.112Y-2.4384
X4.112Y-2.7884
T5
X3.8327Y-1.5669
X3.9705Y-1.5669
X4.1083Y-1.5669
X4.2461Y-1.5669
T6
X2.3504Y-1.4803
X5.6004Y-1.4803
X5.6004Y-6.2303
X2.3504Y-6.2303
T0
M30
