%TF.GenerationSoftware,KiCad,Pcbnew,(5.1.6)-1*%
%TF.CreationDate,2020-11-12T12:18:02-07:00*%
%TF.ProjectId,OPA454_SmallSig_Amp,4f504134-3534-45f5-936d-616c6c536967,rev?*%
%TF.SameCoordinates,Original*%
%TF.FileFunction,Copper,L2,Bot*%
%TF.FilePolarity,Positive*%
%FSLAX46Y46*%
G04 Gerber Fmt 4.6, Leading zero omitted, Abs format (unit mm)*
G04 Created by KiCad (PCBNEW (5.1.6)-1) date 2020-11-12 12:18:02*
%MOMM*%
%LPD*%
G01*
G04 APERTURE LIST*
%TA.AperFunction,ComponentPad*%
%ADD10C,5.000000*%
%TD*%
%TA.AperFunction,ComponentPad*%
%ADD11O,1.600000X1.600000*%
%TD*%
%TA.AperFunction,ComponentPad*%
%ADD12C,1.600000*%
%TD*%
%TA.AperFunction,ComponentPad*%
%ADD13C,1.650000*%
%TD*%
%TA.AperFunction,ComponentPad*%
%ADD14C,2.400000*%
%TD*%
%TA.AperFunction,ComponentPad*%
%ADD15R,2.400000X2.400000*%
%TD*%
%TA.AperFunction,ComponentPad*%
%ADD16R,1.600000X1.600000*%
%TD*%
%TA.AperFunction,ComponentPad*%
%ADD17C,0.300000*%
%TD*%
%TA.AperFunction,ViaPad*%
%ADD18C,0.800000*%
%TD*%
%TA.AperFunction,Conductor*%
%ADD19C,0.250000*%
%TD*%
%TA.AperFunction,Conductor*%
%ADD20C,0.500000*%
%TD*%
%TA.AperFunction,Conductor*%
%ADD21C,0.254000*%
%TD*%
G04 APERTURE END LIST*
D10*
%TO.P,H4,1*%
%TO.N,N/C*%
X142250000Y-158250000D03*
%TD*%
%TO.P,H3,1*%
%TO.N,N/C*%
X142250000Y-37600000D03*
%TD*%
%TO.P,H2,1*%
%TO.N,N/C*%
X59700000Y-158250000D03*
%TD*%
%TO.P,H1,1*%
%TO.N,N/C*%
X59700000Y-37600000D03*
%TD*%
D11*
%TO.P,R3,2*%
%TO.N,Net-(R2-Pad1)*%
X84316000Y-90765000D03*
D12*
%TO.P,R3,1*%
%TO.N,Net-(C5-Pad1)*%
X84316000Y-100925000D03*
%TD*%
D11*
%TO.P,R2,2*%
%TO.N,SIG_BIAS*%
X89396000Y-100925000D03*
D12*
%TO.P,R2,1*%
%TO.N,Net-(R2-Pad1)*%
X89396000Y-90765000D03*
%TD*%
D13*
%TO.P,U2,4*%
%TO.N,V-*%
X94285500Y-70826000D03*
%TO.P,U2,5*%
%TO.N,Net-(U2-Pad5)*%
X99365500Y-70826000D03*
%TO.P,U2,3*%
%TO.N,V+*%
X104445500Y-70826000D03*
%TO.P,U2,6*%
%TO.N,Net-(U2-Pad6)*%
X96825500Y-61936000D03*
%TO.P,U2,2*%
%TO.N,5V_IN*%
X100635500Y-61936000D03*
%TO.P,U2,1*%
%TO.N,5V_GND*%
X104445500Y-61936000D03*
%TD*%
D11*
%TO.P,R7,2*%
%TO.N,V+*%
X117463000Y-102385500D03*
D12*
%TO.P,R7,1*%
%TO.N,Net-(R7-Pad1)*%
X117463000Y-122705500D03*
%TD*%
D11*
%TO.P,R6,2*%
%TO.N,Net-(C2-Pad2)*%
X90475500Y-116990500D03*
D12*
%TO.P,R6,1*%
%TO.N,SIG_BIAS*%
X70155500Y-116990500D03*
%TD*%
D11*
%TO.P,R5,2*%
%TO.N,V-*%
X90475500Y-121753000D03*
D12*
%TO.P,R5,1*%
%TO.N,SIG_BIAS*%
X70155500Y-121753000D03*
%TD*%
D11*
%TO.P,R4,2*%
%TO.N,V+*%
X123114500Y-102449000D03*
D12*
%TO.P,R4,1*%
%TO.N,Net-(R4-Pad1)*%
X123114500Y-122769000D03*
%TD*%
D11*
%TO.P,R1,2*%
%TO.N,SIG_BIAS*%
X76823000Y-110958000D03*
D12*
%TO.P,R1,1*%
%TO.N,V+*%
X76823000Y-90638000D03*
%TD*%
D14*
%TO.P,J1,4*%
%TO.N,+SIG_IN*%
X97350000Y-39800000D03*
%TO.P,J1,3*%
%TO.N,5V_IN*%
X100850000Y-39800000D03*
%TO.P,J1,2*%
%TO.N,5V_GND*%
X104350000Y-39800000D03*
D15*
%TO.P,J1,1*%
%TO.N,SIG_OUT*%
X107850000Y-39800000D03*
%TD*%
D12*
%TO.P,C5,2*%
%TO.N,SIG_OUT*%
X108509500Y-105656000D03*
D16*
%TO.P,C5,1*%
%TO.N,Net-(C5-Pad1)*%
X108509500Y-107656000D03*
%TD*%
D12*
%TO.P,C4,2*%
%TO.N,V-*%
X97725966Y-101869500D03*
D16*
%TO.P,C4,1*%
%TO.N,V+*%
X99725966Y-101869500D03*
%TD*%
D12*
%TO.P,C3,2*%
%TO.N,V-*%
X97500500Y-91971500D03*
D16*
%TO.P,C3,1*%
%TO.N,V+*%
X100000500Y-91971500D03*
%TD*%
D12*
%TO.P,C2,2*%
%TO.N,Net-(C2-Pad2)*%
X87237000Y-110029000D03*
D16*
%TO.P,C2,1*%
%TO.N,+SIG_IN*%
X87237000Y-107529000D03*
%TD*%
D12*
%TO.P,C1,2*%
%TO.N,V-*%
X80100000Y-131200000D03*
D16*
%TO.P,C1,1*%
%TO.N,SIG_BIAS*%
X80100000Y-128700000D03*
%TD*%
D17*
%TO.P,U1,17*%
%TO.N,V-*%
X99444000Y-113416000D03*
%TO.P,U1,16*%
X98144000Y-113416000D03*
%TO.P,U1,15*%
X99444000Y-112116000D03*
%TO.P,U1,14*%
X98144000Y-112116000D03*
%TO.P,U1,13*%
X99444000Y-110816000D03*
%TO.P,U1,12*%
X98144000Y-110816000D03*
%TO.P,U1,11*%
X99444000Y-109516000D03*
%TO.P,U1,10*%
X98144000Y-109516000D03*
%TD*%
D18*
%TO.N,V-*%
X93904500Y-113879000D03*
X96094000Y-108004000D03*
%TO.N,+SIG_IN*%
X80550000Y-85225000D03*
X80550000Y-101750000D03*
%TO.N,SIG_OUT*%
X113425000Y-103800000D03*
X114700000Y-98250000D03*
%TO.N,Net-(R7-Pad1)*%
X101494000Y-106988000D03*
%TD*%
D19*
%TO.N,+SIG_IN*%
X80550000Y-85225000D02*
X80550000Y-101750000D01*
%TO.N,SIG_OUT*%
X114700000Y-98250000D02*
X113350000Y-99600000D01*
X113350000Y-103725000D02*
X113425000Y-103800000D01*
X113350000Y-99600000D02*
X113350000Y-103725000D01*
D20*
%TO.N,Net-(C5-Pad1)*%
X84316000Y-100925000D02*
X87618000Y-104227000D01*
X102731000Y-104227000D02*
X106160000Y-107656000D01*
X106160000Y-107656000D02*
X108509500Y-107656000D01*
X87618000Y-104227000D02*
X102731000Y-104227000D01*
%TO.N,Net-(R7-Pad1)*%
X105652000Y-110196000D02*
X102444000Y-106988000D01*
X102444000Y-106988000D02*
X101494000Y-106988000D01*
X112573500Y-110196000D02*
X105652000Y-110196000D01*
X117463000Y-115085500D02*
X112573500Y-110196000D01*
X117463000Y-122705500D02*
X117463000Y-115085500D01*
%TD*%
D21*
%TO.N,V-*%
G36*
X140192907Y-35093425D02*
G01*
X139743425Y-35542907D01*
X139390270Y-36071442D01*
X139147012Y-36658719D01*
X139023000Y-37282168D01*
X139023000Y-37917832D01*
X139147012Y-38541281D01*
X139390270Y-39128558D01*
X139743425Y-39657093D01*
X140192907Y-40106575D01*
X140721442Y-40459730D01*
X141308719Y-40702988D01*
X141932168Y-40827000D01*
X142567832Y-40827000D01*
X143191281Y-40702988D01*
X143778558Y-40459730D01*
X144307093Y-40106575D01*
X144648000Y-39765668D01*
X144648001Y-156084333D01*
X144307093Y-155743425D01*
X143778558Y-155390270D01*
X143191281Y-155147012D01*
X142567832Y-155023000D01*
X141932168Y-155023000D01*
X141308719Y-155147012D01*
X140721442Y-155390270D01*
X140192907Y-155743425D01*
X139743425Y-156192907D01*
X139390270Y-156721442D01*
X139147012Y-157308719D01*
X139023000Y-157932168D01*
X139023000Y-158567832D01*
X139147012Y-159191281D01*
X139390270Y-159778558D01*
X139743425Y-160307093D01*
X140192907Y-160756575D01*
X140613045Y-161037302D01*
X61601200Y-160860739D01*
X61757093Y-160756575D01*
X62206575Y-160307093D01*
X62559730Y-159778558D01*
X62802988Y-159191281D01*
X62927000Y-158567832D01*
X62927000Y-157932168D01*
X62802988Y-157308719D01*
X62559730Y-156721442D01*
X62206575Y-156192907D01*
X61757093Y-155743425D01*
X61228558Y-155390270D01*
X60641281Y-155147012D01*
X60017832Y-155023000D01*
X59382168Y-155023000D01*
X58758719Y-155147012D01*
X58171442Y-155390270D01*
X57642907Y-155743425D01*
X57193425Y-156192907D01*
X56840270Y-156721442D01*
X56662474Y-157150679D01*
X56731325Y-127900000D01*
X78569483Y-127900000D01*
X78569483Y-129500000D01*
X78583520Y-129642517D01*
X78625090Y-129779557D01*
X78692597Y-129905853D01*
X78783446Y-130016554D01*
X78894147Y-130107403D01*
X79020443Y-130174910D01*
X79157483Y-130216480D01*
X79300000Y-130230517D01*
X80900000Y-130230517D01*
X81042517Y-130216480D01*
X81179557Y-130174910D01*
X81305853Y-130107403D01*
X81416554Y-130016554D01*
X81507403Y-129905853D01*
X81574910Y-129779557D01*
X81616480Y-129642517D01*
X81630517Y-129500000D01*
X81630517Y-127900000D01*
X81616480Y-127757483D01*
X81574910Y-127620443D01*
X81507403Y-127494147D01*
X81416554Y-127383446D01*
X81305853Y-127292597D01*
X81179557Y-127225090D01*
X81042517Y-127183520D01*
X80900000Y-127169483D01*
X79300000Y-127169483D01*
X79157483Y-127183520D01*
X79020443Y-127225090D01*
X78894147Y-127292597D01*
X78783446Y-127383446D01*
X78692597Y-127494147D01*
X78625090Y-127620443D01*
X78583520Y-127757483D01*
X78569483Y-127900000D01*
X56731325Y-127900000D01*
X56746149Y-121602604D01*
X68628500Y-121602604D01*
X68628500Y-121903396D01*
X68687181Y-122198410D01*
X68802290Y-122476306D01*
X68969401Y-122726406D01*
X69182094Y-122939099D01*
X69432194Y-123106210D01*
X69710090Y-123221319D01*
X70005104Y-123280000D01*
X70305896Y-123280000D01*
X70600910Y-123221319D01*
X70878806Y-123106210D01*
X71128906Y-122939099D01*
X71341599Y-122726406D01*
X71508710Y-122476306D01*
X71623819Y-122198410D01*
X71682500Y-121903396D01*
X71682500Y-121602604D01*
X71623819Y-121307590D01*
X71508710Y-121029694D01*
X71341599Y-120779594D01*
X71128906Y-120566901D01*
X70878806Y-120399790D01*
X70600910Y-120284681D01*
X70305896Y-120226000D01*
X70005104Y-120226000D01*
X69710090Y-120284681D01*
X69432194Y-120399790D01*
X69182094Y-120566901D01*
X68969401Y-120779594D01*
X68802290Y-121029694D01*
X68687181Y-121307590D01*
X68628500Y-121602604D01*
X56746149Y-121602604D01*
X56757359Y-116840104D01*
X68628500Y-116840104D01*
X68628500Y-117140896D01*
X68687181Y-117435910D01*
X68802290Y-117713806D01*
X68969401Y-117963906D01*
X69182094Y-118176599D01*
X69432194Y-118343710D01*
X69710090Y-118458819D01*
X70005104Y-118517500D01*
X70305896Y-118517500D01*
X70600910Y-118458819D01*
X70878806Y-118343710D01*
X71128906Y-118176599D01*
X71341599Y-117963906D01*
X71508710Y-117713806D01*
X71623819Y-117435910D01*
X71682500Y-117140896D01*
X71682500Y-116840104D01*
X88948500Y-116840104D01*
X88948500Y-117140896D01*
X89007181Y-117435910D01*
X89122290Y-117713806D01*
X89289401Y-117963906D01*
X89502094Y-118176599D01*
X89752194Y-118343710D01*
X90030090Y-118458819D01*
X90325104Y-118517500D01*
X90625896Y-118517500D01*
X90920910Y-118458819D01*
X91198806Y-118343710D01*
X91448906Y-118176599D01*
X91661599Y-117963906D01*
X91828710Y-117713806D01*
X91943819Y-117435910D01*
X92002500Y-117140896D01*
X92002500Y-116840104D01*
X91943819Y-116545090D01*
X91828710Y-116267194D01*
X91661599Y-116017094D01*
X91448906Y-115804401D01*
X91198806Y-115637290D01*
X90920910Y-115522181D01*
X90625896Y-115463500D01*
X90325104Y-115463500D01*
X90030090Y-115522181D01*
X89752194Y-115637290D01*
X89502094Y-115804401D01*
X89289401Y-116017094D01*
X89122290Y-116267194D01*
X89007181Y-116545090D01*
X88948500Y-116840104D01*
X71682500Y-116840104D01*
X71623819Y-116545090D01*
X71508710Y-116267194D01*
X71341599Y-116017094D01*
X71128906Y-115804401D01*
X70878806Y-115637290D01*
X70600910Y-115522181D01*
X70305896Y-115463500D01*
X70005104Y-115463500D01*
X69710090Y-115522181D01*
X69432194Y-115637290D01*
X69182094Y-115804401D01*
X68969401Y-116017094D01*
X68802290Y-116267194D01*
X68687181Y-116545090D01*
X68628500Y-116840104D01*
X56757359Y-116840104D01*
X56771558Y-110807604D01*
X75296000Y-110807604D01*
X75296000Y-111108396D01*
X75354681Y-111403410D01*
X75469790Y-111681306D01*
X75636901Y-111931406D01*
X75849594Y-112144099D01*
X76099694Y-112311210D01*
X76377590Y-112426319D01*
X76672604Y-112485000D01*
X76973396Y-112485000D01*
X77268410Y-112426319D01*
X77546306Y-112311210D01*
X77796406Y-112144099D01*
X78009099Y-111931406D01*
X78176210Y-111681306D01*
X78291319Y-111403410D01*
X78350000Y-111108396D01*
X78350000Y-110807604D01*
X78291319Y-110512590D01*
X78176210Y-110234694D01*
X78009099Y-109984594D01*
X77796406Y-109771901D01*
X77546306Y-109604790D01*
X77268410Y-109489681D01*
X76973396Y-109431000D01*
X76672604Y-109431000D01*
X76377590Y-109489681D01*
X76099694Y-109604790D01*
X75849594Y-109771901D01*
X75636901Y-109984594D01*
X75469790Y-110234694D01*
X75354681Y-110512590D01*
X75296000Y-110807604D01*
X56771558Y-110807604D01*
X56781158Y-106729000D01*
X85706483Y-106729000D01*
X85706483Y-108329000D01*
X85720520Y-108471517D01*
X85762090Y-108608557D01*
X85829597Y-108734853D01*
X85920446Y-108845554D01*
X86031147Y-108936403D01*
X86121694Y-108984801D01*
X86050901Y-109055594D01*
X85883790Y-109305694D01*
X85768681Y-109583590D01*
X85710000Y-109878604D01*
X85710000Y-110179396D01*
X85768681Y-110474410D01*
X85883790Y-110752306D01*
X86050901Y-111002406D01*
X86263594Y-111215099D01*
X86513694Y-111382210D01*
X86791590Y-111497319D01*
X87086604Y-111556000D01*
X87387396Y-111556000D01*
X87682410Y-111497319D01*
X87960306Y-111382210D01*
X88210406Y-111215099D01*
X88423099Y-111002406D01*
X88590210Y-110752306D01*
X88705319Y-110474410D01*
X88764000Y-110179396D01*
X88764000Y-109878604D01*
X88705319Y-109583590D01*
X88590210Y-109305694D01*
X88423099Y-109055594D01*
X88352306Y-108984801D01*
X88442853Y-108936403D01*
X88553554Y-108845554D01*
X88644403Y-108734853D01*
X88711910Y-108608557D01*
X88753480Y-108471517D01*
X88767517Y-108329000D01*
X88767517Y-106877000D01*
X100367000Y-106877000D01*
X100367000Y-107099000D01*
X100410310Y-107316734D01*
X100495266Y-107521835D01*
X100618602Y-107706421D01*
X100775579Y-107863398D01*
X100960165Y-107986734D01*
X101165266Y-108071690D01*
X101383000Y-108115000D01*
X101605000Y-108115000D01*
X101822734Y-108071690D01*
X102027835Y-107986734D01*
X102047745Y-107973431D01*
X104927220Y-110852907D01*
X104957814Y-110890186D01*
X105106582Y-111012276D01*
X105276309Y-111102997D01*
X105460475Y-111158863D01*
X105604007Y-111173000D01*
X105604009Y-111173000D01*
X105651999Y-111177727D01*
X105699990Y-111173000D01*
X112168814Y-111173000D01*
X116486001Y-115490188D01*
X116486000Y-121522995D01*
X116276901Y-121732094D01*
X116109790Y-121982194D01*
X115994681Y-122260090D01*
X115936000Y-122555104D01*
X115936000Y-122855896D01*
X115994681Y-123150910D01*
X116109790Y-123428806D01*
X116276901Y-123678906D01*
X116489594Y-123891599D01*
X116739694Y-124058710D01*
X117017590Y-124173819D01*
X117312604Y-124232500D01*
X117613396Y-124232500D01*
X117908410Y-124173819D01*
X118186306Y-124058710D01*
X118436406Y-123891599D01*
X118649099Y-123678906D01*
X118816210Y-123428806D01*
X118931319Y-123150910D01*
X118990000Y-122855896D01*
X118990000Y-122618604D01*
X121587500Y-122618604D01*
X121587500Y-122919396D01*
X121646181Y-123214410D01*
X121761290Y-123492306D01*
X121928401Y-123742406D01*
X122141094Y-123955099D01*
X122391194Y-124122210D01*
X122669090Y-124237319D01*
X122964104Y-124296000D01*
X123264896Y-124296000D01*
X123559910Y-124237319D01*
X123837806Y-124122210D01*
X124087906Y-123955099D01*
X124300599Y-123742406D01*
X124467710Y-123492306D01*
X124582819Y-123214410D01*
X124641500Y-122919396D01*
X124641500Y-122618604D01*
X124582819Y-122323590D01*
X124467710Y-122045694D01*
X124300599Y-121795594D01*
X124087906Y-121582901D01*
X123837806Y-121415790D01*
X123559910Y-121300681D01*
X123264896Y-121242000D01*
X122964104Y-121242000D01*
X122669090Y-121300681D01*
X122391194Y-121415790D01*
X122141094Y-121582901D01*
X121928401Y-121795594D01*
X121761290Y-122045694D01*
X121646181Y-122323590D01*
X121587500Y-122618604D01*
X118990000Y-122618604D01*
X118990000Y-122555104D01*
X118931319Y-122260090D01*
X118816210Y-121982194D01*
X118649099Y-121732094D01*
X118440000Y-121522995D01*
X118440000Y-115133490D01*
X118444727Y-115085499D01*
X118440000Y-115037507D01*
X118425863Y-114893975D01*
X118369997Y-114709809D01*
X118279276Y-114540082D01*
X118157186Y-114391314D01*
X118119907Y-114360721D01*
X113298284Y-109539098D01*
X113267686Y-109501814D01*
X113118918Y-109379724D01*
X112949191Y-109289003D01*
X112765025Y-109233137D01*
X112621493Y-109219000D01*
X112573500Y-109214273D01*
X112525507Y-109219000D01*
X106056687Y-109219000D01*
X103168784Y-106331098D01*
X103138186Y-106293814D01*
X102989418Y-106171724D01*
X102819691Y-106081003D01*
X102635525Y-106025137D01*
X102491993Y-106011000D01*
X102444000Y-106006273D01*
X102396007Y-106011000D01*
X102060362Y-106011000D01*
X102027835Y-105989266D01*
X101822734Y-105904310D01*
X101605000Y-105861000D01*
X101383000Y-105861000D01*
X101165266Y-105904310D01*
X100960165Y-105989266D01*
X100775579Y-106112602D01*
X100618602Y-106269579D01*
X100495266Y-106454165D01*
X100410310Y-106659266D01*
X100367000Y-106877000D01*
X88767517Y-106877000D01*
X88767517Y-106729000D01*
X88753480Y-106586483D01*
X88711910Y-106449443D01*
X88644403Y-106323147D01*
X88553554Y-106212446D01*
X88442853Y-106121597D01*
X88316557Y-106054090D01*
X88179517Y-106012520D01*
X88037000Y-105998483D01*
X86437000Y-105998483D01*
X86294483Y-106012520D01*
X86157443Y-106054090D01*
X86031147Y-106121597D01*
X85920446Y-106212446D01*
X85829597Y-106323147D01*
X85762090Y-106449443D01*
X85720520Y-106586483D01*
X85706483Y-106729000D01*
X56781158Y-106729000D01*
X56819388Y-90487604D01*
X75296000Y-90487604D01*
X75296000Y-90788396D01*
X75354681Y-91083410D01*
X75469790Y-91361306D01*
X75636901Y-91611406D01*
X75849594Y-91824099D01*
X76099694Y-91991210D01*
X76377590Y-92106319D01*
X76672604Y-92165000D01*
X76973396Y-92165000D01*
X77268410Y-92106319D01*
X77546306Y-91991210D01*
X77796406Y-91824099D01*
X78009099Y-91611406D01*
X78176210Y-91361306D01*
X78291319Y-91083410D01*
X78350000Y-90788396D01*
X78350000Y-90487604D01*
X78291319Y-90192590D01*
X78176210Y-89914694D01*
X78009099Y-89664594D01*
X77796406Y-89451901D01*
X77546306Y-89284790D01*
X77268410Y-89169681D01*
X76973396Y-89111000D01*
X76672604Y-89111000D01*
X76377590Y-89169681D01*
X76099694Y-89284790D01*
X75849594Y-89451901D01*
X75636901Y-89664594D01*
X75469790Y-89914694D01*
X75354681Y-90192590D01*
X75296000Y-90487604D01*
X56819388Y-90487604D01*
X56832036Y-85114000D01*
X79423000Y-85114000D01*
X79423000Y-85336000D01*
X79466310Y-85553734D01*
X79551266Y-85758835D01*
X79674602Y-85943421D01*
X79698000Y-85966819D01*
X79698001Y-101008180D01*
X79674602Y-101031579D01*
X79551266Y-101216165D01*
X79466310Y-101421266D01*
X79423000Y-101639000D01*
X79423000Y-101861000D01*
X79466310Y-102078734D01*
X79551266Y-102283835D01*
X79674602Y-102468421D01*
X79831579Y-102625398D01*
X80016165Y-102748734D01*
X80221266Y-102833690D01*
X80439000Y-102877000D01*
X80661000Y-102877000D01*
X80878734Y-102833690D01*
X81083835Y-102748734D01*
X81268421Y-102625398D01*
X81425398Y-102468421D01*
X81548734Y-102283835D01*
X81633690Y-102078734D01*
X81677000Y-101861000D01*
X81677000Y-101639000D01*
X81633690Y-101421266D01*
X81548734Y-101216165D01*
X81425398Y-101031579D01*
X81402000Y-101008181D01*
X81402000Y-100774604D01*
X82789000Y-100774604D01*
X82789000Y-101075396D01*
X82847681Y-101370410D01*
X82962790Y-101648306D01*
X83129901Y-101898406D01*
X83342594Y-102111099D01*
X83592694Y-102278210D01*
X83870590Y-102393319D01*
X84165604Y-102452000D01*
X84461314Y-102452000D01*
X86893220Y-104883907D01*
X86923814Y-104921186D01*
X87072582Y-105043276D01*
X87242309Y-105133997D01*
X87426475Y-105189863D01*
X87570007Y-105204000D01*
X87570009Y-105204000D01*
X87617999Y-105208727D01*
X87665990Y-105204000D01*
X102326314Y-105204000D01*
X105435220Y-108312907D01*
X105465814Y-108350186D01*
X105614582Y-108472276D01*
X105784309Y-108562997D01*
X105968475Y-108618863D01*
X106112007Y-108633000D01*
X106112009Y-108633000D01*
X106159999Y-108637727D01*
X106207990Y-108633000D01*
X107003480Y-108633000D01*
X107034590Y-108735557D01*
X107102097Y-108861853D01*
X107192946Y-108972554D01*
X107303647Y-109063403D01*
X107429943Y-109130910D01*
X107566983Y-109172480D01*
X107709500Y-109186517D01*
X109309500Y-109186517D01*
X109452017Y-109172480D01*
X109589057Y-109130910D01*
X109715353Y-109063403D01*
X109826054Y-108972554D01*
X109916903Y-108861853D01*
X109984410Y-108735557D01*
X110025980Y-108598517D01*
X110040017Y-108456000D01*
X110040017Y-106856000D01*
X110025980Y-106713483D01*
X109984410Y-106576443D01*
X109916903Y-106450147D01*
X109860940Y-106381955D01*
X109862710Y-106379306D01*
X109977819Y-106101410D01*
X110036500Y-105806396D01*
X110036500Y-105505604D01*
X109977819Y-105210590D01*
X109862710Y-104932694D01*
X109695599Y-104682594D01*
X109482906Y-104469901D01*
X109232806Y-104302790D01*
X108954910Y-104187681D01*
X108659896Y-104129000D01*
X108359104Y-104129000D01*
X108064090Y-104187681D01*
X107786194Y-104302790D01*
X107536094Y-104469901D01*
X107323401Y-104682594D01*
X107156290Y-104932694D01*
X107041181Y-105210590D01*
X106982500Y-105505604D01*
X106982500Y-105806396D01*
X107041181Y-106101410D01*
X107156290Y-106379306D01*
X107158060Y-106381955D01*
X107102097Y-106450147D01*
X107034590Y-106576443D01*
X107003480Y-106679000D01*
X106564687Y-106679000D01*
X103574687Y-103689000D01*
X112298000Y-103689000D01*
X112298000Y-103911000D01*
X112341310Y-104128734D01*
X112426266Y-104333835D01*
X112549602Y-104518421D01*
X112706579Y-104675398D01*
X112891165Y-104798734D01*
X113096266Y-104883690D01*
X113314000Y-104927000D01*
X113536000Y-104927000D01*
X113753734Y-104883690D01*
X113958835Y-104798734D01*
X114143421Y-104675398D01*
X114300398Y-104518421D01*
X114423734Y-104333835D01*
X114508690Y-104128734D01*
X114552000Y-103911000D01*
X114552000Y-103689000D01*
X114508690Y-103471266D01*
X114423734Y-103266165D01*
X114300398Y-103081579D01*
X114202000Y-102983181D01*
X114202000Y-102235104D01*
X115936000Y-102235104D01*
X115936000Y-102535896D01*
X115994681Y-102830910D01*
X116109790Y-103108806D01*
X116276901Y-103358906D01*
X116489594Y-103571599D01*
X116739694Y-103738710D01*
X117017590Y-103853819D01*
X117312604Y-103912500D01*
X117613396Y-103912500D01*
X117908410Y-103853819D01*
X118186306Y-103738710D01*
X118436406Y-103571599D01*
X118649099Y-103358906D01*
X118816210Y-103108806D01*
X118931319Y-102830910D01*
X118990000Y-102535896D01*
X118990000Y-102298604D01*
X121587500Y-102298604D01*
X121587500Y-102599396D01*
X121646181Y-102894410D01*
X121761290Y-103172306D01*
X121928401Y-103422406D01*
X122141094Y-103635099D01*
X122391194Y-103802210D01*
X122669090Y-103917319D01*
X122964104Y-103976000D01*
X123264896Y-103976000D01*
X123559910Y-103917319D01*
X123837806Y-103802210D01*
X124087906Y-103635099D01*
X124300599Y-103422406D01*
X124467710Y-103172306D01*
X124582819Y-102894410D01*
X124641500Y-102599396D01*
X124641500Y-102298604D01*
X124582819Y-102003590D01*
X124467710Y-101725694D01*
X124300599Y-101475594D01*
X124087906Y-101262901D01*
X123837806Y-101095790D01*
X123559910Y-100980681D01*
X123264896Y-100922000D01*
X122964104Y-100922000D01*
X122669090Y-100980681D01*
X122391194Y-101095790D01*
X122141094Y-101262901D01*
X121928401Y-101475594D01*
X121761290Y-101725694D01*
X121646181Y-102003590D01*
X121587500Y-102298604D01*
X118990000Y-102298604D01*
X118990000Y-102235104D01*
X118931319Y-101940090D01*
X118816210Y-101662194D01*
X118649099Y-101412094D01*
X118436406Y-101199401D01*
X118186306Y-101032290D01*
X117908410Y-100917181D01*
X117613396Y-100858500D01*
X117312604Y-100858500D01*
X117017590Y-100917181D01*
X116739694Y-101032290D01*
X116489594Y-101199401D01*
X116276901Y-101412094D01*
X116109790Y-101662194D01*
X115994681Y-101940090D01*
X115936000Y-102235104D01*
X114202000Y-102235104D01*
X114202000Y-99952909D01*
X114777910Y-99377000D01*
X114811000Y-99377000D01*
X115028734Y-99333690D01*
X115233835Y-99248734D01*
X115418421Y-99125398D01*
X115575398Y-98968421D01*
X115698734Y-98783835D01*
X115783690Y-98578734D01*
X115827000Y-98361000D01*
X115827000Y-98139000D01*
X115783690Y-97921266D01*
X115698734Y-97716165D01*
X115575398Y-97531579D01*
X115418421Y-97374602D01*
X115233835Y-97251266D01*
X115028734Y-97166310D01*
X114811000Y-97123000D01*
X114589000Y-97123000D01*
X114371266Y-97166310D01*
X114166165Y-97251266D01*
X113981579Y-97374602D01*
X113824602Y-97531579D01*
X113701266Y-97716165D01*
X113616310Y-97921266D01*
X113573000Y-98139000D01*
X113573000Y-98172090D01*
X112777146Y-98967945D01*
X112744630Y-98994630D01*
X112674027Y-99080661D01*
X112638161Y-99124364D01*
X112571684Y-99248734D01*
X112559046Y-99272377D01*
X112510328Y-99432980D01*
X112498000Y-99558148D01*
X112493878Y-99600000D01*
X112498000Y-99641849D01*
X112498001Y-103158806D01*
X112426266Y-103266165D01*
X112341310Y-103471266D01*
X112298000Y-103689000D01*
X103574687Y-103689000D01*
X103455784Y-103570098D01*
X103425186Y-103532814D01*
X103276418Y-103410724D01*
X103106691Y-103320003D01*
X102922525Y-103264137D01*
X102778993Y-103250000D01*
X102731000Y-103245273D01*
X102683007Y-103250000D01*
X100964601Y-103250000D01*
X101042520Y-103186054D01*
X101133369Y-103075353D01*
X101200876Y-102949057D01*
X101242446Y-102812017D01*
X101256483Y-102669500D01*
X101256483Y-101069500D01*
X101242446Y-100926983D01*
X101200876Y-100789943D01*
X101133369Y-100663647D01*
X101042520Y-100552946D01*
X100931819Y-100462097D01*
X100805523Y-100394590D01*
X100668483Y-100353020D01*
X100525966Y-100338983D01*
X98925966Y-100338983D01*
X98783449Y-100353020D01*
X98646409Y-100394590D01*
X98520113Y-100462097D01*
X98409412Y-100552946D01*
X98318563Y-100663647D01*
X98251056Y-100789943D01*
X98209486Y-100926983D01*
X98195449Y-101069500D01*
X98195449Y-102669500D01*
X98209486Y-102812017D01*
X98251056Y-102949057D01*
X98318563Y-103075353D01*
X98409412Y-103186054D01*
X98487331Y-103250000D01*
X88022687Y-103250000D01*
X85843000Y-101070314D01*
X85843000Y-100774604D01*
X87869000Y-100774604D01*
X87869000Y-101075396D01*
X87927681Y-101370410D01*
X88042790Y-101648306D01*
X88209901Y-101898406D01*
X88422594Y-102111099D01*
X88672694Y-102278210D01*
X88950590Y-102393319D01*
X89245604Y-102452000D01*
X89546396Y-102452000D01*
X89841410Y-102393319D01*
X90119306Y-102278210D01*
X90369406Y-102111099D01*
X90582099Y-101898406D01*
X90749210Y-101648306D01*
X90864319Y-101370410D01*
X90923000Y-101075396D01*
X90923000Y-100774604D01*
X90864319Y-100479590D01*
X90749210Y-100201694D01*
X90582099Y-99951594D01*
X90369406Y-99738901D01*
X90119306Y-99571790D01*
X89841410Y-99456681D01*
X89546396Y-99398000D01*
X89245604Y-99398000D01*
X88950590Y-99456681D01*
X88672694Y-99571790D01*
X88422594Y-99738901D01*
X88209901Y-99951594D01*
X88042790Y-100201694D01*
X87927681Y-100479590D01*
X87869000Y-100774604D01*
X85843000Y-100774604D01*
X85784319Y-100479590D01*
X85669210Y-100201694D01*
X85502099Y-99951594D01*
X85289406Y-99738901D01*
X85039306Y-99571790D01*
X84761410Y-99456681D01*
X84466396Y-99398000D01*
X84165604Y-99398000D01*
X83870590Y-99456681D01*
X83592694Y-99571790D01*
X83342594Y-99738901D01*
X83129901Y-99951594D01*
X82962790Y-100201694D01*
X82847681Y-100479590D01*
X82789000Y-100774604D01*
X81402000Y-100774604D01*
X81402000Y-90614604D01*
X82789000Y-90614604D01*
X82789000Y-90915396D01*
X82847681Y-91210410D01*
X82962790Y-91488306D01*
X83129901Y-91738406D01*
X83342594Y-91951099D01*
X83592694Y-92118210D01*
X83870590Y-92233319D01*
X84165604Y-92292000D01*
X84466396Y-92292000D01*
X84761410Y-92233319D01*
X85039306Y-92118210D01*
X85289406Y-91951099D01*
X85502099Y-91738406D01*
X85669210Y-91488306D01*
X85784319Y-91210410D01*
X85843000Y-90915396D01*
X85843000Y-90614604D01*
X87869000Y-90614604D01*
X87869000Y-90915396D01*
X87927681Y-91210410D01*
X88042790Y-91488306D01*
X88209901Y-91738406D01*
X88422594Y-91951099D01*
X88672694Y-92118210D01*
X88950590Y-92233319D01*
X89245604Y-92292000D01*
X89546396Y-92292000D01*
X89841410Y-92233319D01*
X90119306Y-92118210D01*
X90369406Y-91951099D01*
X90582099Y-91738406D01*
X90749210Y-91488306D01*
X90864319Y-91210410D01*
X90872058Y-91171500D01*
X98469983Y-91171500D01*
X98469983Y-92771500D01*
X98484020Y-92914017D01*
X98525590Y-93051057D01*
X98593097Y-93177353D01*
X98683946Y-93288054D01*
X98794647Y-93378903D01*
X98920943Y-93446410D01*
X99057983Y-93487980D01*
X99200500Y-93502017D01*
X100800500Y-93502017D01*
X100943017Y-93487980D01*
X101080057Y-93446410D01*
X101206353Y-93378903D01*
X101317054Y-93288054D01*
X101407903Y-93177353D01*
X101475410Y-93051057D01*
X101516980Y-92914017D01*
X101531017Y-92771500D01*
X101531017Y-91171500D01*
X101516980Y-91028983D01*
X101475410Y-90891943D01*
X101407903Y-90765647D01*
X101317054Y-90654946D01*
X101206353Y-90564097D01*
X101080057Y-90496590D01*
X100943017Y-90455020D01*
X100800500Y-90440983D01*
X99200500Y-90440983D01*
X99057983Y-90455020D01*
X98920943Y-90496590D01*
X98794647Y-90564097D01*
X98683946Y-90654946D01*
X98593097Y-90765647D01*
X98525590Y-90891943D01*
X98484020Y-91028983D01*
X98469983Y-91171500D01*
X90872058Y-91171500D01*
X90923000Y-90915396D01*
X90923000Y-90614604D01*
X90864319Y-90319590D01*
X90749210Y-90041694D01*
X90582099Y-89791594D01*
X90369406Y-89578901D01*
X90119306Y-89411790D01*
X89841410Y-89296681D01*
X89546396Y-89238000D01*
X89245604Y-89238000D01*
X88950590Y-89296681D01*
X88672694Y-89411790D01*
X88422594Y-89578901D01*
X88209901Y-89791594D01*
X88042790Y-90041694D01*
X87927681Y-90319590D01*
X87869000Y-90614604D01*
X85843000Y-90614604D01*
X85784319Y-90319590D01*
X85669210Y-90041694D01*
X85502099Y-89791594D01*
X85289406Y-89578901D01*
X85039306Y-89411790D01*
X84761410Y-89296681D01*
X84466396Y-89238000D01*
X84165604Y-89238000D01*
X83870590Y-89296681D01*
X83592694Y-89411790D01*
X83342594Y-89578901D01*
X83129901Y-89791594D01*
X82962790Y-90041694D01*
X82847681Y-90319590D01*
X82789000Y-90614604D01*
X81402000Y-90614604D01*
X81402000Y-85966819D01*
X81425398Y-85943421D01*
X81548734Y-85758835D01*
X81633690Y-85553734D01*
X81677000Y-85336000D01*
X81677000Y-85114000D01*
X81633690Y-84896266D01*
X81548734Y-84691165D01*
X81425398Y-84506579D01*
X81268421Y-84349602D01*
X81083835Y-84226266D01*
X80878734Y-84141310D01*
X80661000Y-84098000D01*
X80439000Y-84098000D01*
X80221266Y-84141310D01*
X80016165Y-84226266D01*
X79831579Y-84349602D01*
X79674602Y-84506579D01*
X79551266Y-84691165D01*
X79466310Y-84896266D01*
X79423000Y-85114000D01*
X56832036Y-85114000D01*
X56866028Y-70673141D01*
X97813500Y-70673141D01*
X97813500Y-70978859D01*
X97873143Y-71278702D01*
X97990136Y-71561147D01*
X98159983Y-71815342D01*
X98376158Y-72031517D01*
X98630353Y-72201364D01*
X98912798Y-72318357D01*
X99212641Y-72378000D01*
X99518359Y-72378000D01*
X99818202Y-72318357D01*
X100100647Y-72201364D01*
X100354842Y-72031517D01*
X100571017Y-71815342D01*
X100740864Y-71561147D01*
X100857857Y-71278702D01*
X100917500Y-70978859D01*
X100917500Y-70673141D01*
X102893500Y-70673141D01*
X102893500Y-70978859D01*
X102953143Y-71278702D01*
X103070136Y-71561147D01*
X103239983Y-71815342D01*
X103456158Y-72031517D01*
X103710353Y-72201364D01*
X103992798Y-72318357D01*
X104292641Y-72378000D01*
X104598359Y-72378000D01*
X104898202Y-72318357D01*
X105180647Y-72201364D01*
X105434842Y-72031517D01*
X105651017Y-71815342D01*
X105820864Y-71561147D01*
X105937857Y-71278702D01*
X105997500Y-70978859D01*
X105997500Y-70673141D01*
X105937857Y-70373298D01*
X105820864Y-70090853D01*
X105651017Y-69836658D01*
X105434842Y-69620483D01*
X105180647Y-69450636D01*
X104898202Y-69333643D01*
X104598359Y-69274000D01*
X104292641Y-69274000D01*
X103992798Y-69333643D01*
X103710353Y-69450636D01*
X103456158Y-69620483D01*
X103239983Y-69836658D01*
X103070136Y-70090853D01*
X102953143Y-70373298D01*
X102893500Y-70673141D01*
X100917500Y-70673141D01*
X100857857Y-70373298D01*
X100740864Y-70090853D01*
X100571017Y-69836658D01*
X100354842Y-69620483D01*
X100100647Y-69450636D01*
X99818202Y-69333643D01*
X99518359Y-69274000D01*
X99212641Y-69274000D01*
X98912798Y-69333643D01*
X98630353Y-69450636D01*
X98376158Y-69620483D01*
X98159983Y-69836658D01*
X97990136Y-70090853D01*
X97873143Y-70373298D01*
X97813500Y-70673141D01*
X56866028Y-70673141D01*
X56886954Y-61783141D01*
X95273500Y-61783141D01*
X95273500Y-62088859D01*
X95333143Y-62388702D01*
X95450136Y-62671147D01*
X95619983Y-62925342D01*
X95836158Y-63141517D01*
X96090353Y-63311364D01*
X96372798Y-63428357D01*
X96672641Y-63488000D01*
X96978359Y-63488000D01*
X97278202Y-63428357D01*
X97560647Y-63311364D01*
X97814842Y-63141517D01*
X98031017Y-62925342D01*
X98200864Y-62671147D01*
X98317857Y-62388702D01*
X98377500Y-62088859D01*
X98377500Y-61783141D01*
X99083500Y-61783141D01*
X99083500Y-62088859D01*
X99143143Y-62388702D01*
X99260136Y-62671147D01*
X99429983Y-62925342D01*
X99646158Y-63141517D01*
X99900353Y-63311364D01*
X100182798Y-63428357D01*
X100482641Y-63488000D01*
X100788359Y-63488000D01*
X101088202Y-63428357D01*
X101370647Y-63311364D01*
X101624842Y-63141517D01*
X101841017Y-62925342D01*
X102010864Y-62671147D01*
X102127857Y-62388702D01*
X102187500Y-62088859D01*
X102187500Y-61783141D01*
X102893500Y-61783141D01*
X102893500Y-62088859D01*
X102953143Y-62388702D01*
X103070136Y-62671147D01*
X103239983Y-62925342D01*
X103456158Y-63141517D01*
X103710353Y-63311364D01*
X103992798Y-63428357D01*
X104292641Y-63488000D01*
X104598359Y-63488000D01*
X104898202Y-63428357D01*
X105180647Y-63311364D01*
X105434842Y-63141517D01*
X105651017Y-62925342D01*
X105820864Y-62671147D01*
X105937857Y-62388702D01*
X105997500Y-62088859D01*
X105997500Y-61783141D01*
X105937857Y-61483298D01*
X105820864Y-61200853D01*
X105651017Y-60946658D01*
X105434842Y-60730483D01*
X105180647Y-60560636D01*
X104898202Y-60443643D01*
X104598359Y-60384000D01*
X104292641Y-60384000D01*
X103992798Y-60443643D01*
X103710353Y-60560636D01*
X103456158Y-60730483D01*
X103239983Y-60946658D01*
X103070136Y-61200853D01*
X102953143Y-61483298D01*
X102893500Y-61783141D01*
X102187500Y-61783141D01*
X102127857Y-61483298D01*
X102010864Y-61200853D01*
X101841017Y-60946658D01*
X101624842Y-60730483D01*
X101370647Y-60560636D01*
X101088202Y-60443643D01*
X100788359Y-60384000D01*
X100482641Y-60384000D01*
X100182798Y-60443643D01*
X99900353Y-60560636D01*
X99646158Y-60730483D01*
X99429983Y-60946658D01*
X99260136Y-61200853D01*
X99143143Y-61483298D01*
X99083500Y-61783141D01*
X98377500Y-61783141D01*
X98317857Y-61483298D01*
X98200864Y-61200853D01*
X98031017Y-60946658D01*
X97814842Y-60730483D01*
X97560647Y-60560636D01*
X97278202Y-60443643D01*
X96978359Y-60384000D01*
X96672641Y-60384000D01*
X96372798Y-60443643D01*
X96090353Y-60560636D01*
X95836158Y-60730483D01*
X95619983Y-60946658D01*
X95450136Y-61200853D01*
X95333143Y-61483298D01*
X95273500Y-61783141D01*
X56886954Y-61783141D01*
X56939931Y-39277712D01*
X57193425Y-39657093D01*
X57642907Y-40106575D01*
X58171442Y-40459730D01*
X58758719Y-40702988D01*
X59382168Y-40827000D01*
X60017832Y-40827000D01*
X60641281Y-40702988D01*
X61228558Y-40459730D01*
X61757093Y-40106575D01*
X62206575Y-39657093D01*
X62237903Y-39610207D01*
X95423000Y-39610207D01*
X95423000Y-39989793D01*
X95497053Y-40362085D01*
X95642315Y-40712777D01*
X95853201Y-41028391D01*
X96121609Y-41296799D01*
X96437223Y-41507685D01*
X96787915Y-41652947D01*
X97160207Y-41727000D01*
X97539793Y-41727000D01*
X97912085Y-41652947D01*
X98262777Y-41507685D01*
X98578391Y-41296799D01*
X98846799Y-41028391D01*
X99057685Y-40712777D01*
X99100000Y-40610620D01*
X99142315Y-40712777D01*
X99353201Y-41028391D01*
X99621609Y-41296799D01*
X99937223Y-41507685D01*
X100287915Y-41652947D01*
X100660207Y-41727000D01*
X101039793Y-41727000D01*
X101412085Y-41652947D01*
X101762777Y-41507685D01*
X102078391Y-41296799D01*
X102346799Y-41028391D01*
X102557685Y-40712777D01*
X102600000Y-40610620D01*
X102642315Y-40712777D01*
X102853201Y-41028391D01*
X103121609Y-41296799D01*
X103437223Y-41507685D01*
X103787915Y-41652947D01*
X104160207Y-41727000D01*
X104539793Y-41727000D01*
X104912085Y-41652947D01*
X105262777Y-41507685D01*
X105578391Y-41296799D01*
X105846799Y-41028391D01*
X105919483Y-40919611D01*
X105919483Y-41000000D01*
X105933520Y-41142517D01*
X105975090Y-41279557D01*
X106042597Y-41405853D01*
X106133446Y-41516554D01*
X106244147Y-41607403D01*
X106370443Y-41674910D01*
X106507483Y-41716480D01*
X106650000Y-41730517D01*
X109050000Y-41730517D01*
X109192517Y-41716480D01*
X109329557Y-41674910D01*
X109455853Y-41607403D01*
X109566554Y-41516554D01*
X109657403Y-41405853D01*
X109724910Y-41279557D01*
X109766480Y-41142517D01*
X109780517Y-41000000D01*
X109780517Y-38600000D01*
X109766480Y-38457483D01*
X109724910Y-38320443D01*
X109657403Y-38194147D01*
X109566554Y-38083446D01*
X109455853Y-37992597D01*
X109329557Y-37925090D01*
X109192517Y-37883520D01*
X109050000Y-37869483D01*
X106650000Y-37869483D01*
X106507483Y-37883520D01*
X106370443Y-37925090D01*
X106244147Y-37992597D01*
X106133446Y-38083446D01*
X106042597Y-38194147D01*
X105975090Y-38320443D01*
X105933520Y-38457483D01*
X105919483Y-38600000D01*
X105919483Y-38680389D01*
X105846799Y-38571609D01*
X105578391Y-38303201D01*
X105262777Y-38092315D01*
X104912085Y-37947053D01*
X104539793Y-37873000D01*
X104160207Y-37873000D01*
X103787915Y-37947053D01*
X103437223Y-38092315D01*
X103121609Y-38303201D01*
X102853201Y-38571609D01*
X102642315Y-38887223D01*
X102600000Y-38989380D01*
X102557685Y-38887223D01*
X102346799Y-38571609D01*
X102078391Y-38303201D01*
X101762777Y-38092315D01*
X101412085Y-37947053D01*
X101039793Y-37873000D01*
X100660207Y-37873000D01*
X100287915Y-37947053D01*
X99937223Y-38092315D01*
X99621609Y-38303201D01*
X99353201Y-38571609D01*
X99142315Y-38887223D01*
X99100000Y-38989380D01*
X99057685Y-38887223D01*
X98846799Y-38571609D01*
X98578391Y-38303201D01*
X98262777Y-38092315D01*
X97912085Y-37947053D01*
X97539793Y-37873000D01*
X97160207Y-37873000D01*
X96787915Y-37947053D01*
X96437223Y-38092315D01*
X96121609Y-38303201D01*
X95853201Y-38571609D01*
X95642315Y-38887223D01*
X95497053Y-39237915D01*
X95423000Y-39610207D01*
X62237903Y-39610207D01*
X62559730Y-39128558D01*
X62802988Y-38541281D01*
X62927000Y-37917832D01*
X62927000Y-37282168D01*
X62802988Y-36658719D01*
X62559730Y-36071442D01*
X62206575Y-35542907D01*
X61757093Y-35093425D01*
X61566487Y-34966066D01*
X89787743Y-34902000D01*
X140479395Y-34902000D01*
X140192907Y-35093425D01*
G37*
X140192907Y-35093425D02*
X139743425Y-35542907D01*
X139390270Y-36071442D01*
X139147012Y-36658719D01*
X139023000Y-37282168D01*
X139023000Y-37917832D01*
X139147012Y-38541281D01*
X139390270Y-39128558D01*
X139743425Y-39657093D01*
X140192907Y-40106575D01*
X140721442Y-40459730D01*
X141308719Y-40702988D01*
X141932168Y-40827000D01*
X142567832Y-40827000D01*
X143191281Y-40702988D01*
X143778558Y-40459730D01*
X144307093Y-40106575D01*
X144648000Y-39765668D01*
X144648001Y-156084333D01*
X144307093Y-155743425D01*
X143778558Y-155390270D01*
X143191281Y-155147012D01*
X142567832Y-155023000D01*
X141932168Y-155023000D01*
X141308719Y-155147012D01*
X140721442Y-155390270D01*
X140192907Y-155743425D01*
X139743425Y-156192907D01*
X139390270Y-156721442D01*
X139147012Y-157308719D01*
X139023000Y-157932168D01*
X139023000Y-158567832D01*
X139147012Y-159191281D01*
X139390270Y-159778558D01*
X139743425Y-160307093D01*
X140192907Y-160756575D01*
X140613045Y-161037302D01*
X61601200Y-160860739D01*
X61757093Y-160756575D01*
X62206575Y-160307093D01*
X62559730Y-159778558D01*
X62802988Y-159191281D01*
X62927000Y-158567832D01*
X62927000Y-157932168D01*
X62802988Y-157308719D01*
X62559730Y-156721442D01*
X62206575Y-156192907D01*
X61757093Y-155743425D01*
X61228558Y-155390270D01*
X60641281Y-155147012D01*
X60017832Y-155023000D01*
X59382168Y-155023000D01*
X58758719Y-155147012D01*
X58171442Y-155390270D01*
X57642907Y-155743425D01*
X57193425Y-156192907D01*
X56840270Y-156721442D01*
X56662474Y-157150679D01*
X56731325Y-127900000D01*
X78569483Y-127900000D01*
X78569483Y-129500000D01*
X78583520Y-129642517D01*
X78625090Y-129779557D01*
X78692597Y-129905853D01*
X78783446Y-130016554D01*
X78894147Y-130107403D01*
X79020443Y-130174910D01*
X79157483Y-130216480D01*
X79300000Y-130230517D01*
X80900000Y-130230517D01*
X81042517Y-130216480D01*
X81179557Y-130174910D01*
X81305853Y-130107403D01*
X81416554Y-130016554D01*
X81507403Y-129905853D01*
X81574910Y-129779557D01*
X81616480Y-129642517D01*
X81630517Y-129500000D01*
X81630517Y-127900000D01*
X81616480Y-127757483D01*
X81574910Y-127620443D01*
X81507403Y-127494147D01*
X81416554Y-127383446D01*
X81305853Y-127292597D01*
X81179557Y-127225090D01*
X81042517Y-127183520D01*
X80900000Y-127169483D01*
X79300000Y-127169483D01*
X79157483Y-127183520D01*
X79020443Y-127225090D01*
X78894147Y-127292597D01*
X78783446Y-127383446D01*
X78692597Y-127494147D01*
X78625090Y-127620443D01*
X78583520Y-127757483D01*
X78569483Y-127900000D01*
X56731325Y-127900000D01*
X56746149Y-121602604D01*
X68628500Y-121602604D01*
X68628500Y-121903396D01*
X68687181Y-122198410D01*
X68802290Y-122476306D01*
X68969401Y-122726406D01*
X69182094Y-122939099D01*
X69432194Y-123106210D01*
X69710090Y-123221319D01*
X70005104Y-123280000D01*
X70305896Y-123280000D01*
X70600910Y-123221319D01*
X70878806Y-123106210D01*
X71128906Y-122939099D01*
X71341599Y-122726406D01*
X71508710Y-122476306D01*
X71623819Y-122198410D01*
X71682500Y-121903396D01*
X71682500Y-121602604D01*
X71623819Y-121307590D01*
X71508710Y-121029694D01*
X71341599Y-120779594D01*
X71128906Y-120566901D01*
X70878806Y-120399790D01*
X70600910Y-120284681D01*
X70305896Y-120226000D01*
X70005104Y-120226000D01*
X69710090Y-120284681D01*
X69432194Y-120399790D01*
X69182094Y-120566901D01*
X68969401Y-120779594D01*
X68802290Y-121029694D01*
X68687181Y-121307590D01*
X68628500Y-121602604D01*
X56746149Y-121602604D01*
X56757359Y-116840104D01*
X68628500Y-116840104D01*
X68628500Y-117140896D01*
X68687181Y-117435910D01*
X68802290Y-117713806D01*
X68969401Y-117963906D01*
X69182094Y-118176599D01*
X69432194Y-118343710D01*
X69710090Y-118458819D01*
X70005104Y-118517500D01*
X70305896Y-118517500D01*
X70600910Y-118458819D01*
X70878806Y-118343710D01*
X71128906Y-118176599D01*
X71341599Y-117963906D01*
X71508710Y-117713806D01*
X71623819Y-117435910D01*
X71682500Y-117140896D01*
X71682500Y-116840104D01*
X88948500Y-116840104D01*
X88948500Y-117140896D01*
X89007181Y-117435910D01*
X89122290Y-117713806D01*
X89289401Y-117963906D01*
X89502094Y-118176599D01*
X89752194Y-118343710D01*
X90030090Y-118458819D01*
X90325104Y-118517500D01*
X90625896Y-118517500D01*
X90920910Y-118458819D01*
X91198806Y-118343710D01*
X91448906Y-118176599D01*
X91661599Y-117963906D01*
X91828710Y-117713806D01*
X91943819Y-117435910D01*
X92002500Y-117140896D01*
X92002500Y-116840104D01*
X91943819Y-116545090D01*
X91828710Y-116267194D01*
X91661599Y-116017094D01*
X91448906Y-115804401D01*
X91198806Y-115637290D01*
X90920910Y-115522181D01*
X90625896Y-115463500D01*
X90325104Y-115463500D01*
X90030090Y-115522181D01*
X89752194Y-115637290D01*
X89502094Y-115804401D01*
X89289401Y-116017094D01*
X89122290Y-116267194D01*
X89007181Y-116545090D01*
X88948500Y-116840104D01*
X71682500Y-116840104D01*
X71623819Y-116545090D01*
X71508710Y-116267194D01*
X71341599Y-116017094D01*
X71128906Y-115804401D01*
X70878806Y-115637290D01*
X70600910Y-115522181D01*
X70305896Y-115463500D01*
X70005104Y-115463500D01*
X69710090Y-115522181D01*
X69432194Y-115637290D01*
X69182094Y-115804401D01*
X68969401Y-116017094D01*
X68802290Y-116267194D01*
X68687181Y-116545090D01*
X68628500Y-116840104D01*
X56757359Y-116840104D01*
X56771558Y-110807604D01*
X75296000Y-110807604D01*
X75296000Y-111108396D01*
X75354681Y-111403410D01*
X75469790Y-111681306D01*
X75636901Y-111931406D01*
X75849594Y-112144099D01*
X76099694Y-112311210D01*
X76377590Y-112426319D01*
X76672604Y-112485000D01*
X76973396Y-112485000D01*
X77268410Y-112426319D01*
X77546306Y-112311210D01*
X77796406Y-112144099D01*
X78009099Y-111931406D01*
X78176210Y-111681306D01*
X78291319Y-111403410D01*
X78350000Y-111108396D01*
X78350000Y-110807604D01*
X78291319Y-110512590D01*
X78176210Y-110234694D01*
X78009099Y-109984594D01*
X77796406Y-109771901D01*
X77546306Y-109604790D01*
X77268410Y-109489681D01*
X76973396Y-109431000D01*
X76672604Y-109431000D01*
X76377590Y-109489681D01*
X76099694Y-109604790D01*
X75849594Y-109771901D01*
X75636901Y-109984594D01*
X75469790Y-110234694D01*
X75354681Y-110512590D01*
X75296000Y-110807604D01*
X56771558Y-110807604D01*
X56781158Y-106729000D01*
X85706483Y-106729000D01*
X85706483Y-108329000D01*
X85720520Y-108471517D01*
X85762090Y-108608557D01*
X85829597Y-108734853D01*
X85920446Y-108845554D01*
X86031147Y-108936403D01*
X86121694Y-108984801D01*
X86050901Y-109055594D01*
X85883790Y-109305694D01*
X85768681Y-109583590D01*
X85710000Y-109878604D01*
X85710000Y-110179396D01*
X85768681Y-110474410D01*
X85883790Y-110752306D01*
X86050901Y-111002406D01*
X86263594Y-111215099D01*
X86513694Y-111382210D01*
X86791590Y-111497319D01*
X87086604Y-111556000D01*
X87387396Y-111556000D01*
X87682410Y-111497319D01*
X87960306Y-111382210D01*
X88210406Y-111215099D01*
X88423099Y-111002406D01*
X88590210Y-110752306D01*
X88705319Y-110474410D01*
X88764000Y-110179396D01*
X88764000Y-109878604D01*
X88705319Y-109583590D01*
X88590210Y-109305694D01*
X88423099Y-109055594D01*
X88352306Y-108984801D01*
X88442853Y-108936403D01*
X88553554Y-108845554D01*
X88644403Y-108734853D01*
X88711910Y-108608557D01*
X88753480Y-108471517D01*
X88767517Y-108329000D01*
X88767517Y-106877000D01*
X100367000Y-106877000D01*
X100367000Y-107099000D01*
X100410310Y-107316734D01*
X100495266Y-107521835D01*
X100618602Y-107706421D01*
X100775579Y-107863398D01*
X100960165Y-107986734D01*
X101165266Y-108071690D01*
X101383000Y-108115000D01*
X101605000Y-108115000D01*
X101822734Y-108071690D01*
X102027835Y-107986734D01*
X102047745Y-107973431D01*
X104927220Y-110852907D01*
X104957814Y-110890186D01*
X105106582Y-111012276D01*
X105276309Y-111102997D01*
X105460475Y-111158863D01*
X105604007Y-111173000D01*
X105604009Y-111173000D01*
X105651999Y-111177727D01*
X105699990Y-111173000D01*
X112168814Y-111173000D01*
X116486001Y-115490188D01*
X116486000Y-121522995D01*
X116276901Y-121732094D01*
X116109790Y-121982194D01*
X115994681Y-122260090D01*
X115936000Y-122555104D01*
X115936000Y-122855896D01*
X115994681Y-123150910D01*
X116109790Y-123428806D01*
X116276901Y-123678906D01*
X116489594Y-123891599D01*
X116739694Y-124058710D01*
X117017590Y-124173819D01*
X117312604Y-124232500D01*
X117613396Y-124232500D01*
X117908410Y-124173819D01*
X118186306Y-124058710D01*
X118436406Y-123891599D01*
X118649099Y-123678906D01*
X118816210Y-123428806D01*
X118931319Y-123150910D01*
X118990000Y-122855896D01*
X118990000Y-122618604D01*
X121587500Y-122618604D01*
X121587500Y-122919396D01*
X121646181Y-123214410D01*
X121761290Y-123492306D01*
X121928401Y-123742406D01*
X122141094Y-123955099D01*
X122391194Y-124122210D01*
X122669090Y-124237319D01*
X122964104Y-124296000D01*
X123264896Y-124296000D01*
X123559910Y-124237319D01*
X123837806Y-124122210D01*
X124087906Y-123955099D01*
X124300599Y-123742406D01*
X124467710Y-123492306D01*
X124582819Y-123214410D01*
X124641500Y-122919396D01*
X124641500Y-122618604D01*
X124582819Y-122323590D01*
X124467710Y-122045694D01*
X124300599Y-121795594D01*
X124087906Y-121582901D01*
X123837806Y-121415790D01*
X123559910Y-121300681D01*
X123264896Y-121242000D01*
X122964104Y-121242000D01*
X122669090Y-121300681D01*
X122391194Y-121415790D01*
X122141094Y-121582901D01*
X121928401Y-121795594D01*
X121761290Y-122045694D01*
X121646181Y-122323590D01*
X121587500Y-122618604D01*
X118990000Y-122618604D01*
X118990000Y-122555104D01*
X118931319Y-122260090D01*
X118816210Y-121982194D01*
X118649099Y-121732094D01*
X118440000Y-121522995D01*
X118440000Y-115133490D01*
X118444727Y-115085499D01*
X118440000Y-115037507D01*
X118425863Y-114893975D01*
X118369997Y-114709809D01*
X118279276Y-114540082D01*
X118157186Y-114391314D01*
X118119907Y-114360721D01*
X113298284Y-109539098D01*
X113267686Y-109501814D01*
X113118918Y-109379724D01*
X112949191Y-109289003D01*
X112765025Y-109233137D01*
X112621493Y-109219000D01*
X112573500Y-109214273D01*
X112525507Y-109219000D01*
X106056687Y-109219000D01*
X103168784Y-106331098D01*
X103138186Y-106293814D01*
X102989418Y-106171724D01*
X102819691Y-106081003D01*
X102635525Y-106025137D01*
X102491993Y-106011000D01*
X102444000Y-106006273D01*
X102396007Y-106011000D01*
X102060362Y-106011000D01*
X102027835Y-105989266D01*
X101822734Y-105904310D01*
X101605000Y-105861000D01*
X101383000Y-105861000D01*
X101165266Y-105904310D01*
X100960165Y-105989266D01*
X100775579Y-106112602D01*
X100618602Y-106269579D01*
X100495266Y-106454165D01*
X100410310Y-106659266D01*
X100367000Y-106877000D01*
X88767517Y-106877000D01*
X88767517Y-106729000D01*
X88753480Y-106586483D01*
X88711910Y-106449443D01*
X88644403Y-106323147D01*
X88553554Y-106212446D01*
X88442853Y-106121597D01*
X88316557Y-106054090D01*
X88179517Y-106012520D01*
X88037000Y-105998483D01*
X86437000Y-105998483D01*
X86294483Y-106012520D01*
X86157443Y-106054090D01*
X86031147Y-106121597D01*
X85920446Y-106212446D01*
X85829597Y-106323147D01*
X85762090Y-106449443D01*
X85720520Y-106586483D01*
X85706483Y-106729000D01*
X56781158Y-106729000D01*
X56819388Y-90487604D01*
X75296000Y-90487604D01*
X75296000Y-90788396D01*
X75354681Y-91083410D01*
X75469790Y-91361306D01*
X75636901Y-91611406D01*
X75849594Y-91824099D01*
X76099694Y-91991210D01*
X76377590Y-92106319D01*
X76672604Y-92165000D01*
X76973396Y-92165000D01*
X77268410Y-92106319D01*
X77546306Y-91991210D01*
X77796406Y-91824099D01*
X78009099Y-91611406D01*
X78176210Y-91361306D01*
X78291319Y-91083410D01*
X78350000Y-90788396D01*
X78350000Y-90487604D01*
X78291319Y-90192590D01*
X78176210Y-89914694D01*
X78009099Y-89664594D01*
X77796406Y-89451901D01*
X77546306Y-89284790D01*
X77268410Y-89169681D01*
X76973396Y-89111000D01*
X76672604Y-89111000D01*
X76377590Y-89169681D01*
X76099694Y-89284790D01*
X75849594Y-89451901D01*
X75636901Y-89664594D01*
X75469790Y-89914694D01*
X75354681Y-90192590D01*
X75296000Y-90487604D01*
X56819388Y-90487604D01*
X56832036Y-85114000D01*
X79423000Y-85114000D01*
X79423000Y-85336000D01*
X79466310Y-85553734D01*
X79551266Y-85758835D01*
X79674602Y-85943421D01*
X79698000Y-85966819D01*
X79698001Y-101008180D01*
X79674602Y-101031579D01*
X79551266Y-101216165D01*
X79466310Y-101421266D01*
X79423000Y-101639000D01*
X79423000Y-101861000D01*
X79466310Y-102078734D01*
X79551266Y-102283835D01*
X79674602Y-102468421D01*
X79831579Y-102625398D01*
X80016165Y-102748734D01*
X80221266Y-102833690D01*
X80439000Y-102877000D01*
X80661000Y-102877000D01*
X80878734Y-102833690D01*
X81083835Y-102748734D01*
X81268421Y-102625398D01*
X81425398Y-102468421D01*
X81548734Y-102283835D01*
X81633690Y-102078734D01*
X81677000Y-101861000D01*
X81677000Y-101639000D01*
X81633690Y-101421266D01*
X81548734Y-101216165D01*
X81425398Y-101031579D01*
X81402000Y-101008181D01*
X81402000Y-100774604D01*
X82789000Y-100774604D01*
X82789000Y-101075396D01*
X82847681Y-101370410D01*
X82962790Y-101648306D01*
X83129901Y-101898406D01*
X83342594Y-102111099D01*
X83592694Y-102278210D01*
X83870590Y-102393319D01*
X84165604Y-102452000D01*
X84461314Y-102452000D01*
X86893220Y-104883907D01*
X86923814Y-104921186D01*
X87072582Y-105043276D01*
X87242309Y-105133997D01*
X87426475Y-105189863D01*
X87570007Y-105204000D01*
X87570009Y-105204000D01*
X87617999Y-105208727D01*
X87665990Y-105204000D01*
X102326314Y-105204000D01*
X105435220Y-108312907D01*
X105465814Y-108350186D01*
X105614582Y-108472276D01*
X105784309Y-108562997D01*
X105968475Y-108618863D01*
X106112007Y-108633000D01*
X106112009Y-108633000D01*
X106159999Y-108637727D01*
X106207990Y-108633000D01*
X107003480Y-108633000D01*
X107034590Y-108735557D01*
X107102097Y-108861853D01*
X107192946Y-108972554D01*
X107303647Y-109063403D01*
X107429943Y-109130910D01*
X107566983Y-109172480D01*
X107709500Y-109186517D01*
X109309500Y-109186517D01*
X109452017Y-109172480D01*
X109589057Y-109130910D01*
X109715353Y-109063403D01*
X109826054Y-108972554D01*
X109916903Y-108861853D01*
X109984410Y-108735557D01*
X110025980Y-108598517D01*
X110040017Y-108456000D01*
X110040017Y-106856000D01*
X110025980Y-106713483D01*
X109984410Y-106576443D01*
X109916903Y-106450147D01*
X109860940Y-106381955D01*
X109862710Y-106379306D01*
X109977819Y-106101410D01*
X110036500Y-105806396D01*
X110036500Y-105505604D01*
X109977819Y-105210590D01*
X109862710Y-104932694D01*
X109695599Y-104682594D01*
X109482906Y-104469901D01*
X109232806Y-104302790D01*
X108954910Y-104187681D01*
X108659896Y-104129000D01*
X108359104Y-104129000D01*
X108064090Y-104187681D01*
X107786194Y-104302790D01*
X107536094Y-104469901D01*
X107323401Y-104682594D01*
X107156290Y-104932694D01*
X107041181Y-105210590D01*
X106982500Y-105505604D01*
X106982500Y-105806396D01*
X107041181Y-106101410D01*
X107156290Y-106379306D01*
X107158060Y-106381955D01*
X107102097Y-106450147D01*
X107034590Y-106576443D01*
X107003480Y-106679000D01*
X106564687Y-106679000D01*
X103574687Y-103689000D01*
X112298000Y-103689000D01*
X112298000Y-103911000D01*
X112341310Y-104128734D01*
X112426266Y-104333835D01*
X112549602Y-104518421D01*
X112706579Y-104675398D01*
X112891165Y-104798734D01*
X113096266Y-104883690D01*
X113314000Y-104927000D01*
X113536000Y-104927000D01*
X113753734Y-104883690D01*
X113958835Y-104798734D01*
X114143421Y-104675398D01*
X114300398Y-104518421D01*
X114423734Y-104333835D01*
X114508690Y-104128734D01*
X114552000Y-103911000D01*
X114552000Y-103689000D01*
X114508690Y-103471266D01*
X114423734Y-103266165D01*
X114300398Y-103081579D01*
X114202000Y-102983181D01*
X114202000Y-102235104D01*
X115936000Y-102235104D01*
X115936000Y-102535896D01*
X115994681Y-102830910D01*
X116109790Y-103108806D01*
X116276901Y-103358906D01*
X116489594Y-103571599D01*
X116739694Y-103738710D01*
X117017590Y-103853819D01*
X117312604Y-103912500D01*
X117613396Y-103912500D01*
X117908410Y-103853819D01*
X118186306Y-103738710D01*
X118436406Y-103571599D01*
X118649099Y-103358906D01*
X118816210Y-103108806D01*
X118931319Y-102830910D01*
X118990000Y-102535896D01*
X118990000Y-102298604D01*
X121587500Y-102298604D01*
X121587500Y-102599396D01*
X121646181Y-102894410D01*
X121761290Y-103172306D01*
X121928401Y-103422406D01*
X122141094Y-103635099D01*
X122391194Y-103802210D01*
X122669090Y-103917319D01*
X122964104Y-103976000D01*
X123264896Y-103976000D01*
X123559910Y-103917319D01*
X123837806Y-103802210D01*
X124087906Y-103635099D01*
X124300599Y-103422406D01*
X124467710Y-103172306D01*
X124582819Y-102894410D01*
X124641500Y-102599396D01*
X124641500Y-102298604D01*
X124582819Y-102003590D01*
X124467710Y-101725694D01*
X124300599Y-101475594D01*
X124087906Y-101262901D01*
X123837806Y-101095790D01*
X123559910Y-100980681D01*
X123264896Y-100922000D01*
X122964104Y-100922000D01*
X122669090Y-100980681D01*
X122391194Y-101095790D01*
X122141094Y-101262901D01*
X121928401Y-101475594D01*
X121761290Y-101725694D01*
X121646181Y-102003590D01*
X121587500Y-102298604D01*
X118990000Y-102298604D01*
X118990000Y-102235104D01*
X118931319Y-101940090D01*
X118816210Y-101662194D01*
X118649099Y-101412094D01*
X118436406Y-101199401D01*
X118186306Y-101032290D01*
X117908410Y-100917181D01*
X117613396Y-100858500D01*
X117312604Y-100858500D01*
X117017590Y-100917181D01*
X116739694Y-101032290D01*
X116489594Y-101199401D01*
X116276901Y-101412094D01*
X116109790Y-101662194D01*
X115994681Y-101940090D01*
X115936000Y-102235104D01*
X114202000Y-102235104D01*
X114202000Y-99952909D01*
X114777910Y-99377000D01*
X114811000Y-99377000D01*
X115028734Y-99333690D01*
X115233835Y-99248734D01*
X115418421Y-99125398D01*
X115575398Y-98968421D01*
X115698734Y-98783835D01*
X115783690Y-98578734D01*
X115827000Y-98361000D01*
X115827000Y-98139000D01*
X115783690Y-97921266D01*
X115698734Y-97716165D01*
X115575398Y-97531579D01*
X115418421Y-97374602D01*
X115233835Y-97251266D01*
X115028734Y-97166310D01*
X114811000Y-97123000D01*
X114589000Y-97123000D01*
X114371266Y-97166310D01*
X114166165Y-97251266D01*
X113981579Y-97374602D01*
X113824602Y-97531579D01*
X113701266Y-97716165D01*
X113616310Y-97921266D01*
X113573000Y-98139000D01*
X113573000Y-98172090D01*
X112777146Y-98967945D01*
X112744630Y-98994630D01*
X112674027Y-99080661D01*
X112638161Y-99124364D01*
X112571684Y-99248734D01*
X112559046Y-99272377D01*
X112510328Y-99432980D01*
X112498000Y-99558148D01*
X112493878Y-99600000D01*
X112498000Y-99641849D01*
X112498001Y-103158806D01*
X112426266Y-103266165D01*
X112341310Y-103471266D01*
X112298000Y-103689000D01*
X103574687Y-103689000D01*
X103455784Y-103570098D01*
X103425186Y-103532814D01*
X103276418Y-103410724D01*
X103106691Y-103320003D01*
X102922525Y-103264137D01*
X102778993Y-103250000D01*
X102731000Y-103245273D01*
X102683007Y-103250000D01*
X100964601Y-103250000D01*
X101042520Y-103186054D01*
X101133369Y-103075353D01*
X101200876Y-102949057D01*
X101242446Y-102812017D01*
X101256483Y-102669500D01*
X101256483Y-101069500D01*
X101242446Y-100926983D01*
X101200876Y-100789943D01*
X101133369Y-100663647D01*
X101042520Y-100552946D01*
X100931819Y-100462097D01*
X100805523Y-100394590D01*
X100668483Y-100353020D01*
X100525966Y-100338983D01*
X98925966Y-100338983D01*
X98783449Y-100353020D01*
X98646409Y-100394590D01*
X98520113Y-100462097D01*
X98409412Y-100552946D01*
X98318563Y-100663647D01*
X98251056Y-100789943D01*
X98209486Y-100926983D01*
X98195449Y-101069500D01*
X98195449Y-102669500D01*
X98209486Y-102812017D01*
X98251056Y-102949057D01*
X98318563Y-103075353D01*
X98409412Y-103186054D01*
X98487331Y-103250000D01*
X88022687Y-103250000D01*
X85843000Y-101070314D01*
X85843000Y-100774604D01*
X87869000Y-100774604D01*
X87869000Y-101075396D01*
X87927681Y-101370410D01*
X88042790Y-101648306D01*
X88209901Y-101898406D01*
X88422594Y-102111099D01*
X88672694Y-102278210D01*
X88950590Y-102393319D01*
X89245604Y-102452000D01*
X89546396Y-102452000D01*
X89841410Y-102393319D01*
X90119306Y-102278210D01*
X90369406Y-102111099D01*
X90582099Y-101898406D01*
X90749210Y-101648306D01*
X90864319Y-101370410D01*
X90923000Y-101075396D01*
X90923000Y-100774604D01*
X90864319Y-100479590D01*
X90749210Y-100201694D01*
X90582099Y-99951594D01*
X90369406Y-99738901D01*
X90119306Y-99571790D01*
X89841410Y-99456681D01*
X89546396Y-99398000D01*
X89245604Y-99398000D01*
X88950590Y-99456681D01*
X88672694Y-99571790D01*
X88422594Y-99738901D01*
X88209901Y-99951594D01*
X88042790Y-100201694D01*
X87927681Y-100479590D01*
X87869000Y-100774604D01*
X85843000Y-100774604D01*
X85784319Y-100479590D01*
X85669210Y-100201694D01*
X85502099Y-99951594D01*
X85289406Y-99738901D01*
X85039306Y-99571790D01*
X84761410Y-99456681D01*
X84466396Y-99398000D01*
X84165604Y-99398000D01*
X83870590Y-99456681D01*
X83592694Y-99571790D01*
X83342594Y-99738901D01*
X83129901Y-99951594D01*
X82962790Y-100201694D01*
X82847681Y-100479590D01*
X82789000Y-100774604D01*
X81402000Y-100774604D01*
X81402000Y-90614604D01*
X82789000Y-90614604D01*
X82789000Y-90915396D01*
X82847681Y-91210410D01*
X82962790Y-91488306D01*
X83129901Y-91738406D01*
X83342594Y-91951099D01*
X83592694Y-92118210D01*
X83870590Y-92233319D01*
X84165604Y-92292000D01*
X84466396Y-92292000D01*
X84761410Y-92233319D01*
X85039306Y-92118210D01*
X85289406Y-91951099D01*
X85502099Y-91738406D01*
X85669210Y-91488306D01*
X85784319Y-91210410D01*
X85843000Y-90915396D01*
X85843000Y-90614604D01*
X87869000Y-90614604D01*
X87869000Y-90915396D01*
X87927681Y-91210410D01*
X88042790Y-91488306D01*
X88209901Y-91738406D01*
X88422594Y-91951099D01*
X88672694Y-92118210D01*
X88950590Y-92233319D01*
X89245604Y-92292000D01*
X89546396Y-92292000D01*
X89841410Y-92233319D01*
X90119306Y-92118210D01*
X90369406Y-91951099D01*
X90582099Y-91738406D01*
X90749210Y-91488306D01*
X90864319Y-91210410D01*
X90872058Y-91171500D01*
X98469983Y-91171500D01*
X98469983Y-92771500D01*
X98484020Y-92914017D01*
X98525590Y-93051057D01*
X98593097Y-93177353D01*
X98683946Y-93288054D01*
X98794647Y-93378903D01*
X98920943Y-93446410D01*
X99057983Y-93487980D01*
X99200500Y-93502017D01*
X100800500Y-93502017D01*
X100943017Y-93487980D01*
X101080057Y-93446410D01*
X101206353Y-93378903D01*
X101317054Y-93288054D01*
X101407903Y-93177353D01*
X101475410Y-93051057D01*
X101516980Y-92914017D01*
X101531017Y-92771500D01*
X101531017Y-91171500D01*
X101516980Y-91028983D01*
X101475410Y-90891943D01*
X101407903Y-90765647D01*
X101317054Y-90654946D01*
X101206353Y-90564097D01*
X101080057Y-90496590D01*
X100943017Y-90455020D01*
X100800500Y-90440983D01*
X99200500Y-90440983D01*
X99057983Y-90455020D01*
X98920943Y-90496590D01*
X98794647Y-90564097D01*
X98683946Y-90654946D01*
X98593097Y-90765647D01*
X98525590Y-90891943D01*
X98484020Y-91028983D01*
X98469983Y-91171500D01*
X90872058Y-91171500D01*
X90923000Y-90915396D01*
X90923000Y-90614604D01*
X90864319Y-90319590D01*
X90749210Y-90041694D01*
X90582099Y-89791594D01*
X90369406Y-89578901D01*
X90119306Y-89411790D01*
X89841410Y-89296681D01*
X89546396Y-89238000D01*
X89245604Y-89238000D01*
X88950590Y-89296681D01*
X88672694Y-89411790D01*
X88422594Y-89578901D01*
X88209901Y-89791594D01*
X88042790Y-90041694D01*
X87927681Y-90319590D01*
X87869000Y-90614604D01*
X85843000Y-90614604D01*
X85784319Y-90319590D01*
X85669210Y-90041694D01*
X85502099Y-89791594D01*
X85289406Y-89578901D01*
X85039306Y-89411790D01*
X84761410Y-89296681D01*
X84466396Y-89238000D01*
X84165604Y-89238000D01*
X83870590Y-89296681D01*
X83592694Y-89411790D01*
X83342594Y-89578901D01*
X83129901Y-89791594D01*
X82962790Y-90041694D01*
X82847681Y-90319590D01*
X82789000Y-90614604D01*
X81402000Y-90614604D01*
X81402000Y-85966819D01*
X81425398Y-85943421D01*
X81548734Y-85758835D01*
X81633690Y-85553734D01*
X81677000Y-85336000D01*
X81677000Y-85114000D01*
X81633690Y-84896266D01*
X81548734Y-84691165D01*
X81425398Y-84506579D01*
X81268421Y-84349602D01*
X81083835Y-84226266D01*
X80878734Y-84141310D01*
X80661000Y-84098000D01*
X80439000Y-84098000D01*
X80221266Y-84141310D01*
X80016165Y-84226266D01*
X79831579Y-84349602D01*
X79674602Y-84506579D01*
X79551266Y-84691165D01*
X79466310Y-84896266D01*
X79423000Y-85114000D01*
X56832036Y-85114000D01*
X56866028Y-70673141D01*
X97813500Y-70673141D01*
X97813500Y-70978859D01*
X97873143Y-71278702D01*
X97990136Y-71561147D01*
X98159983Y-71815342D01*
X98376158Y-72031517D01*
X98630353Y-72201364D01*
X98912798Y-72318357D01*
X99212641Y-72378000D01*
X99518359Y-72378000D01*
X99818202Y-72318357D01*
X100100647Y-72201364D01*
X100354842Y-72031517D01*
X100571017Y-71815342D01*
X100740864Y-71561147D01*
X100857857Y-71278702D01*
X100917500Y-70978859D01*
X100917500Y-70673141D01*
X102893500Y-70673141D01*
X102893500Y-70978859D01*
X102953143Y-71278702D01*
X103070136Y-71561147D01*
X103239983Y-71815342D01*
X103456158Y-72031517D01*
X103710353Y-72201364D01*
X103992798Y-72318357D01*
X104292641Y-72378000D01*
X104598359Y-72378000D01*
X104898202Y-72318357D01*
X105180647Y-72201364D01*
X105434842Y-72031517D01*
X105651017Y-71815342D01*
X105820864Y-71561147D01*
X105937857Y-71278702D01*
X105997500Y-70978859D01*
X105997500Y-70673141D01*
X105937857Y-70373298D01*
X105820864Y-70090853D01*
X105651017Y-69836658D01*
X105434842Y-69620483D01*
X105180647Y-69450636D01*
X104898202Y-69333643D01*
X104598359Y-69274000D01*
X104292641Y-69274000D01*
X103992798Y-69333643D01*
X103710353Y-69450636D01*
X103456158Y-69620483D01*
X103239983Y-69836658D01*
X103070136Y-70090853D01*
X102953143Y-70373298D01*
X102893500Y-70673141D01*
X100917500Y-70673141D01*
X100857857Y-70373298D01*
X100740864Y-70090853D01*
X100571017Y-69836658D01*
X100354842Y-69620483D01*
X100100647Y-69450636D01*
X99818202Y-69333643D01*
X99518359Y-69274000D01*
X99212641Y-69274000D01*
X98912798Y-69333643D01*
X98630353Y-69450636D01*
X98376158Y-69620483D01*
X98159983Y-69836658D01*
X97990136Y-70090853D01*
X97873143Y-70373298D01*
X97813500Y-70673141D01*
X56866028Y-70673141D01*
X56886954Y-61783141D01*
X95273500Y-61783141D01*
X95273500Y-62088859D01*
X95333143Y-62388702D01*
X95450136Y-62671147D01*
X95619983Y-62925342D01*
X95836158Y-63141517D01*
X96090353Y-63311364D01*
X96372798Y-63428357D01*
X96672641Y-63488000D01*
X96978359Y-63488000D01*
X97278202Y-63428357D01*
X97560647Y-63311364D01*
X97814842Y-63141517D01*
X98031017Y-62925342D01*
X98200864Y-62671147D01*
X98317857Y-62388702D01*
X98377500Y-62088859D01*
X98377500Y-61783141D01*
X99083500Y-61783141D01*
X99083500Y-62088859D01*
X99143143Y-62388702D01*
X99260136Y-62671147D01*
X99429983Y-62925342D01*
X99646158Y-63141517D01*
X99900353Y-63311364D01*
X100182798Y-63428357D01*
X100482641Y-63488000D01*
X100788359Y-63488000D01*
X101088202Y-63428357D01*
X101370647Y-63311364D01*
X101624842Y-63141517D01*
X101841017Y-62925342D01*
X102010864Y-62671147D01*
X102127857Y-62388702D01*
X102187500Y-62088859D01*
X102187500Y-61783141D01*
X102893500Y-61783141D01*
X102893500Y-62088859D01*
X102953143Y-62388702D01*
X103070136Y-62671147D01*
X103239983Y-62925342D01*
X103456158Y-63141517D01*
X103710353Y-63311364D01*
X103992798Y-63428357D01*
X104292641Y-63488000D01*
X104598359Y-63488000D01*
X104898202Y-63428357D01*
X105180647Y-63311364D01*
X105434842Y-63141517D01*
X105651017Y-62925342D01*
X105820864Y-62671147D01*
X105937857Y-62388702D01*
X105997500Y-62088859D01*
X105997500Y-61783141D01*
X105937857Y-61483298D01*
X105820864Y-61200853D01*
X105651017Y-60946658D01*
X105434842Y-60730483D01*
X105180647Y-60560636D01*
X104898202Y-60443643D01*
X104598359Y-60384000D01*
X104292641Y-60384000D01*
X103992798Y-60443643D01*
X103710353Y-60560636D01*
X103456158Y-60730483D01*
X103239983Y-60946658D01*
X103070136Y-61200853D01*
X102953143Y-61483298D01*
X102893500Y-61783141D01*
X102187500Y-61783141D01*
X102127857Y-61483298D01*
X102010864Y-61200853D01*
X101841017Y-60946658D01*
X101624842Y-60730483D01*
X101370647Y-60560636D01*
X101088202Y-60443643D01*
X100788359Y-60384000D01*
X100482641Y-60384000D01*
X100182798Y-60443643D01*
X99900353Y-60560636D01*
X99646158Y-60730483D01*
X99429983Y-60946658D01*
X99260136Y-61200853D01*
X99143143Y-61483298D01*
X99083500Y-61783141D01*
X98377500Y-61783141D01*
X98317857Y-61483298D01*
X98200864Y-61200853D01*
X98031017Y-60946658D01*
X97814842Y-60730483D01*
X97560647Y-60560636D01*
X97278202Y-60443643D01*
X96978359Y-60384000D01*
X96672641Y-60384000D01*
X96372798Y-60443643D01*
X96090353Y-60560636D01*
X95836158Y-60730483D01*
X95619983Y-60946658D01*
X95450136Y-61200853D01*
X95333143Y-61483298D01*
X95273500Y-61783141D01*
X56886954Y-61783141D01*
X56939931Y-39277712D01*
X57193425Y-39657093D01*
X57642907Y-40106575D01*
X58171442Y-40459730D01*
X58758719Y-40702988D01*
X59382168Y-40827000D01*
X60017832Y-40827000D01*
X60641281Y-40702988D01*
X61228558Y-40459730D01*
X61757093Y-40106575D01*
X62206575Y-39657093D01*
X62237903Y-39610207D01*
X95423000Y-39610207D01*
X95423000Y-39989793D01*
X95497053Y-40362085D01*
X95642315Y-40712777D01*
X95853201Y-41028391D01*
X96121609Y-41296799D01*
X96437223Y-41507685D01*
X96787915Y-41652947D01*
X97160207Y-41727000D01*
X97539793Y-41727000D01*
X97912085Y-41652947D01*
X98262777Y-41507685D01*
X98578391Y-41296799D01*
X98846799Y-41028391D01*
X99057685Y-40712777D01*
X99100000Y-40610620D01*
X99142315Y-40712777D01*
X99353201Y-41028391D01*
X99621609Y-41296799D01*
X99937223Y-41507685D01*
X100287915Y-41652947D01*
X100660207Y-41727000D01*
X101039793Y-41727000D01*
X101412085Y-41652947D01*
X101762777Y-41507685D01*
X102078391Y-41296799D01*
X102346799Y-41028391D01*
X102557685Y-40712777D01*
X102600000Y-40610620D01*
X102642315Y-40712777D01*
X102853201Y-41028391D01*
X103121609Y-41296799D01*
X103437223Y-41507685D01*
X103787915Y-41652947D01*
X104160207Y-41727000D01*
X104539793Y-41727000D01*
X104912085Y-41652947D01*
X105262777Y-41507685D01*
X105578391Y-41296799D01*
X105846799Y-41028391D01*
X105919483Y-40919611D01*
X105919483Y-41000000D01*
X105933520Y-41142517D01*
X105975090Y-41279557D01*
X106042597Y-41405853D01*
X106133446Y-41516554D01*
X106244147Y-41607403D01*
X106370443Y-41674910D01*
X106507483Y-41716480D01*
X106650000Y-41730517D01*
X109050000Y-41730517D01*
X109192517Y-41716480D01*
X109329557Y-41674910D01*
X109455853Y-41607403D01*
X109566554Y-41516554D01*
X109657403Y-41405853D01*
X109724910Y-41279557D01*
X109766480Y-41142517D01*
X109780517Y-41000000D01*
X109780517Y-38600000D01*
X109766480Y-38457483D01*
X109724910Y-38320443D01*
X109657403Y-38194147D01*
X109566554Y-38083446D01*
X109455853Y-37992597D01*
X109329557Y-37925090D01*
X109192517Y-37883520D01*
X109050000Y-37869483D01*
X106650000Y-37869483D01*
X106507483Y-37883520D01*
X106370443Y-37925090D01*
X106244147Y-37992597D01*
X106133446Y-38083446D01*
X106042597Y-38194147D01*
X105975090Y-38320443D01*
X105933520Y-38457483D01*
X105919483Y-38600000D01*
X105919483Y-38680389D01*
X105846799Y-38571609D01*
X105578391Y-38303201D01*
X105262777Y-38092315D01*
X104912085Y-37947053D01*
X104539793Y-37873000D01*
X104160207Y-37873000D01*
X103787915Y-37947053D01*
X103437223Y-38092315D01*
X103121609Y-38303201D01*
X102853201Y-38571609D01*
X102642315Y-38887223D01*
X102600000Y-38989380D01*
X102557685Y-38887223D01*
X102346799Y-38571609D01*
X102078391Y-38303201D01*
X101762777Y-38092315D01*
X101412085Y-37947053D01*
X101039793Y-37873000D01*
X100660207Y-37873000D01*
X100287915Y-37947053D01*
X99937223Y-38092315D01*
X99621609Y-38303201D01*
X99353201Y-38571609D01*
X99142315Y-38887223D01*
X99100000Y-38989380D01*
X99057685Y-38887223D01*
X98846799Y-38571609D01*
X98578391Y-38303201D01*
X98262777Y-38092315D01*
X97912085Y-37947053D01*
X97539793Y-37873000D01*
X97160207Y-37873000D01*
X96787915Y-37947053D01*
X96437223Y-38092315D01*
X96121609Y-38303201D01*
X95853201Y-38571609D01*
X95642315Y-38887223D01*
X95497053Y-39237915D01*
X95423000Y-39610207D01*
X62237903Y-39610207D01*
X62559730Y-39128558D01*
X62802988Y-38541281D01*
X62927000Y-37917832D01*
X62927000Y-37282168D01*
X62802988Y-36658719D01*
X62559730Y-36071442D01*
X62206575Y-35542907D01*
X61757093Y-35093425D01*
X61566487Y-34966066D01*
X89787743Y-34902000D01*
X140479395Y-34902000D01*
X140192907Y-35093425D01*
%TD*%
M02*
